<svg version="1.1" id="Layer_1" xmlns="http://www.w3.org/2000/svg" xmlns:xlink="http://www.w3.org/1999/xlink" x="0px" y="0px"
	 width="100%" viewBox="0 0 216 233" enable-background="new 0 0 216 233" xml:space="preserve">
<path fill="#FEFEFE" opacity="1.000000" stroke="none" 
	d="
M1.000000,217.000000 
	C1.000000,145.048630 1.000000,73.097275 1.000000,1.072954 
	C72.902664,1.072954 144.805435,1.072954 217.000000,1.072954 
	C217.000000,72.687294 217.000000,144.374985 216.532684,216.493622 
	C144.376907,216.949722 72.688454,216.974854 1.000000,217.000000 
M170.648102,42.842785 
	C149.630615,23.555374 124.723122,15.441034 96.669060,19.252417 
	C46.258682,26.101093 12.217772,71.661034 19.052580,121.956955 
	C25.946959,172.691254 76.515343,208.406570 126.700699,197.470047 
	C161.674637,189.848465 185.479156,168.603424 195.468048,134.353134 
	C205.555206,99.765991 196.879379,68.969658 170.648102,42.842785 
z"/>
<path fill="#121325" opacity="1.000000" stroke="none" 
	d="
M217.000000,218.000000 
	C217.000000,223.323807 217.000000,228.647598 217.000000,233.964600 
	C144.999985,233.957794 72.999985,233.957794 1.000000,233.957794 
	C1.000000,228.924515 1.000000,223.933456 1.468657,218.471893 
	C73.624878,218.000946 145.312439,218.000473 217.000000,218.000000 
M35.903908,224.596436 
	C35.752361,224.287064 35.504375,224.129379 34.736115,223.965500 
	C34.736115,223.965500 34.293766,223.871201 33.945255,223.361420 
	C33.307163,223.577301 32.669071,223.793182 31.510437,223.679657 
	C30.297070,223.853745 29.083702,224.027832 27.171957,224.160477 
	C22.937643,227.563522 18.252857,224.008698 13.550825,224.382217 
	C15.360938,226.359024 16.720804,227.844131 18.513597,229.802017 
	C21.625414,229.252213 25.355799,228.593124 29.571869,227.534409 
	C30.149271,226.724686 30.726673,225.914963 31.425272,225.728470 
	C32.638161,226.409653 33.851051,227.090836 35.484505,228.034515 
	C35.484505,228.034515 35.979389,228.063950 36.321171,228.613647 
	C38.655472,227.175812 40.989773,225.737976 43.163963,224.398758 
	C41.391090,224.556000 39.463486,224.726959 37.072487,224.979080 
	C36.756763,224.994492 36.440849,225.002090 35.903908,224.596436 
M44.492691,226.533295 
	C44.492691,226.533295 44.516113,226.495819 44.492691,226.533295 
M43.610432,228.444901 
	C43.610432,228.444901 43.422745,228.314865 43.422745,228.314865 
	C43.422745,228.314865 43.434624,228.578995 43.610432,228.444901 
z"/>
<path fill="#000000" opacity="1.000000" stroke="none" 
	d="
M217.000000,217.750000 
	C145.312439,218.000473 73.624878,218.000946 1.468657,218.000702 
	C1.000000,218.000000 1.000000,217.500000 1.000000,217.250000 
	C72.688454,216.974854 144.376907,216.949722 216.532684,216.962280 
	C217.000000,217.000000 217.000000,217.500000 217.000000,217.750000 
z"/>
<path fill="#01BDF1" opacity="1.000000" stroke="none" 
	d="
M170.903687,43.087204 
	C196.879379,68.969658 205.555206,99.765991 195.468048,134.353134 
	C185.479156,168.603424 161.674637,189.848465 126.700699,197.470047 
	C76.515343,208.406570 25.946959,172.691254 19.052580,121.956955 
	C12.217772,71.661034 46.258682,26.101093 96.669060,19.252417 
	C124.723122,15.441034 149.630615,23.555374 170.903687,43.087204 
M51.019665,100.500183 
	C51.019711,120.328072 51.010891,140.155960 51.025028,159.983856 
	C51.029446,166.178101 51.788338,166.949219 57.879723,166.952179 
	C82.706238,166.964233 107.532753,166.959274 132.359268,166.956085 
	C138.901398,166.955231 139.687088,166.160477 139.693329,159.404541 
	C139.707031,144.575302 139.575409,129.743973 139.823486,114.918869 
	C139.862717,112.574440 141.033646,109.774330 142.609085,108.016296 
	C148.052277,101.942192 153.931229,96.260345 159.597580,90.384125 
	C170.758438,78.809860 170.412155,80.916718 158.721909,69.457832 
	C154.921036,65.732201 152.779739,65.827530 149.026443,69.520065 
	C146.162537,72.337608 143.319382,75.176231 140.139908,78.329903 
	C139.873688,77.125076 139.741501,76.802635 139.740158,76.479645 
	C139.716476,70.814796 139.703857,65.149887 139.698746,59.484978 
	C139.691010,50.931763 139.358047,50.601234 130.581741,50.598854 
	C119.751381,50.595921 108.919823,50.494740 98.090912,50.619778 
	C75.864067,50.876427 83.011238,48.042675 66.725563,63.187771 
	C50.930046,77.877037 51.019596,77.973335 51.019665,100.500183 
z"/>
<path fill="#070716" opacity="1.000000" stroke="none" 
	d="
M29.086184,227.934021 
	C25.355799,228.593124 21.625414,229.252213 18.513597,229.802017 
	C16.720804,227.844131 15.360938,226.359024 13.550825,224.382217 
	C18.252857,224.008698 22.937643,227.563522 27.664524,224.486053 
	C28.466787,225.852432 28.776485,226.893234 29.086184,227.934021 
z"/>
<path fill="#9F9FA4" opacity="1.000000" stroke="none" 
	d="
M37.535873,224.897919 
	C39.463486,224.726959 41.391090,224.556000 43.163963,224.398758 
	C40.989773,225.737976 38.655472,227.175812 36.164368,228.049774 
	C36.017982,227.293320 36.028397,227.100739 36.354931,226.970612 
	C36.959328,226.321335 37.247601,225.609619 37.535873,224.897919 
z"/>
<path fill="#1A1B1E" opacity="1.000000" stroke="none" 
	d="
M29.329025,227.734222 
	C28.776485,226.893234 28.466787,225.852432 28.013710,224.506775 
	C29.083702,224.027832 30.297070,223.853745 31.785969,224.093002 
	C31.910278,224.834045 31.657804,225.033676 31.304075,225.105240 
	C30.726673,225.914963 30.149271,226.724686 29.329025,227.734222 
z"/>
<path fill="#818288" opacity="1.000000" stroke="none" 
	d="
M31.364674,225.416855 
	C31.657804,225.033676 31.910278,224.834045 32.046242,224.257721 
	C32.669071,223.793182 33.307163,223.577301 34.115326,223.956909 
	C34.498581,225.330399 34.711761,226.108398 34.973396,227.105652 
	C35.021854,227.324905 35.063938,227.772018 35.063942,227.772018 
	C33.851051,227.090836 32.638161,226.409653 31.364674,225.416855 
z"/>
<path fill="#A6A7AC" opacity="1.000000" stroke="none" 
	d="
M35.274223,227.903259 
	C35.063938,227.772018 35.021854,227.324905 34.974014,226.758774 
	C35.004101,225.502884 35.082027,224.813126 35.159954,224.123367 
	C35.504375,224.129379 35.752361,224.287064 35.966072,225.114716 
	C36.031757,226.058044 36.035282,226.483109 36.038811,226.908173 
	C36.028397,227.100739 36.017982,227.293320 35.993477,227.774933 
	C35.979389,228.063950 35.484505,228.034515 35.274223,227.903259 
z"/>
<path fill="#131418" opacity="1.000000" stroke="none" 
	d="
M36.354931,226.970612 
	C36.035282,226.483109 36.031757,226.058044 36.076492,225.317413 
	C36.440849,225.002090 36.756763,224.994492 37.304180,224.938492 
	C37.247601,225.609619 36.959328,226.321335 36.354931,226.970612 
z"/>
<path fill="#3D3F4A" opacity="1.000000" stroke="none" 
	d="
M34.948036,224.044434 
	C35.082027,224.813126 35.004101,225.502884 34.925560,226.539520 
	C34.711761,226.108398 34.498581,225.330399 34.289581,224.211792 
	C34.293766,223.871201 34.736115,223.965500 34.948036,224.044434 
z"/>
<path fill="#9F9FA4" opacity="1.000000" stroke="none" 
	d="
M44.504402,226.514557 
	C44.516113,226.495819 44.492691,226.533295 44.504402,226.514557 
z"/>
<path fill="#9F9FA4" opacity="1.000000" stroke="none" 
	d="
M43.522530,228.511948 
	C43.434624,228.578995 43.422745,228.314865 43.422745,228.314865 
	C43.422745,228.314865 43.610432,228.444901 43.522530,228.511948 
z"/>
<path fill="#E6F7FB" opacity="1.000000" stroke="none" 
	d="
M51.019672,100.000267 
	C51.019596,77.973335 50.930046,77.877037 66.725563,63.187771 
	C83.011238,48.042675 75.864067,50.876427 98.090912,50.619778 
	C108.919823,50.494740 119.751381,50.595921 130.581741,50.598854 
	C139.358047,50.601234 139.691010,50.931763 139.698746,59.484978 
	C139.703857,65.149887 139.716476,70.814796 139.740158,76.479645 
	C139.741501,76.802635 139.873688,77.125076 140.139908,78.329903 
	C143.319382,75.176231 146.162537,72.337608 149.026443,69.520065 
	C152.779739,65.827530 154.921036,65.732201 158.721909,69.457832 
	C170.412155,80.916718 170.758438,78.809860 159.597580,90.384125 
	C153.931229,96.260345 148.052277,101.942192 142.609085,108.016296 
	C141.033646,109.774330 139.862717,112.574440 139.823486,114.918869 
	C139.575409,129.743973 139.707031,144.575302 139.693329,159.404541 
	C139.687088,166.160477 138.901398,166.955231 132.359268,166.956085 
	C107.532753,166.959274 82.706238,166.964233 57.879723,166.952179 
	C51.788338,166.949219 51.029446,166.178101 51.025028,159.983856 
	C51.010891,140.155960 51.019711,120.328072 51.019672,100.000267 
M109.472855,109.634651 
	C113.180504,106.069290 116.995483,102.607834 120.570778,98.914352 
	C126.007401,93.297989 133.274567,88.340157 136.049454,81.578194 
	C138.749191,74.999313 136.572266,66.492767 136.934753,58.851521 
	C137.128571,54.765427 135.974228,53.374481 131.709122,53.446804 
	C117.048676,53.695385 102.381409,53.533512 87.716782,53.555042 
	C86.123268,53.557381 84.530014,53.735004 82.542145,53.855171 
	C82.542145,60.860809 82.558319,67.333527 82.537834,73.806122 
	C82.514992,81.019653 81.585373,81.962822 74.558647,81.972359 
	C67.792801,81.981544 61.026943,81.974350 54.343559,81.974350 
	C54.343559,109.697922 54.343559,136.749985 54.343559,163.636169 
	C81.963257,163.636169 109.187859,163.636169 136.629639,163.636169 
	C136.629639,147.143570 136.629639,131.078079 136.629639,115.716934 
	C133.008392,118.957687 128.443329,121.965874 125.312325,126.068504 
	C118.717438,134.709915 109.372620,137.572952 99.636711,140.066742 
	C96.809143,140.791000 94.322716,139.959854 95.287651,136.886642 
	C97.839645,128.758759 98.700447,119.772591 105.992729,113.734077 
	C107.375626,112.588943 108.023636,110.556343 108.964119,108.962166 
	C108.964119,108.962166 108.935753,109.009125 109.472855,109.634651 
M162.008362,76.466179 
	C160.818130,75.304863 159.499298,74.247414 158.461838,72.962738 
	C155.363373,69.125923 152.867554,69.182663 149.322052,72.951180 
	C135.307327,87.847473 120.831718,102.311043 106.867371,117.253151 
	C104.072769,120.243431 102.464058,124.503906 100.880753,128.410599 
	C99.714302,131.288742 103.760460,135.822388 106.644691,134.863586 
	C110.491028,133.584961 114.889915,132.302780 117.611298,129.581757 
	C132.895905,114.299202 147.707809,98.544960 162.788712,83.056541 
	C165.139160,80.642563 165.016342,78.886612 162.008362,76.466179 
M75.223785,79.120110 
	C77.790054,79.287758 79.853859,79.035004 79.787659,75.573303 
	C79.661530,68.977097 79.751076,62.376770 79.751076,54.685772 
	C71.062386,62.979847 63.111935,70.569214 54.153812,79.120483 
	C61.787994,79.120483 68.033333,79.120483 75.223785,79.120110 
z"/>
<path fill="#05BEF1" opacity="1.000000" stroke="none" 
	d="
M109.010727,108.933212 
	C108.023636,110.556343 107.375626,112.588943 105.992729,113.734077 
	C98.700447,119.772591 97.839645,128.758759 95.287651,136.886642 
	C94.322716,139.959854 96.809143,140.791000 99.636711,140.066742 
	C109.372620,137.572952 118.717438,134.709915 125.312325,126.068504 
	C128.443329,121.965874 133.008392,118.957687 136.629639,115.716934 
	C136.629639,131.078079 136.629639,147.143570 136.629639,163.636169 
	C109.187859,163.636169 81.963257,163.636169 54.343559,163.636169 
	C54.343559,136.749985 54.343559,109.697922 54.343559,81.974350 
	C61.026943,81.974350 67.792801,81.981544 74.558647,81.972359 
	C81.585373,81.962822 82.514992,81.019653 82.537834,73.806122 
	C82.558319,67.333527 82.542145,60.860809 82.542145,53.855171 
	C84.530014,53.735004 86.123268,53.557381 87.716782,53.555042 
	C102.381409,53.533512 117.048676,53.695385 131.709122,53.446804 
	C135.974228,53.374481 137.128571,54.765427 136.934753,58.851521 
	C136.572266,66.492767 138.749191,74.999313 136.049454,81.578194 
	C133.274567,88.340157 126.007401,93.297989 120.570778,98.914352 
	C116.995483,102.607834 113.180504,106.069290 109.215698,108.912041 
	C107.874542,107.512848 106.797379,106.261032 105.705475,106.248032 
	C93.912933,106.107704 82.117775,106.126701 70.324310,106.222153 
	C69.222267,106.231071 68.126854,107.060165 67.028366,107.508446 
	C67.146950,107.983368 67.265533,108.458290 67.384117,108.933212 
	C81.259651,108.933212 95.135185,108.933212 109.010727,108.933212 
M78.530884,90.802124 
	C74.808601,90.802124 71.086319,90.802124 67.364037,90.802124 
	C67.387871,91.280243 67.411697,91.758362 67.435532,92.236481 
	C72.469666,94.303299 120.212502,93.749535 123.567696,90.802002 
	C108.291733,90.802002 93.905693,90.802002 78.530884,90.802124 
M74.599670,122.819885 
	C72.101608,122.932770 69.603554,123.045654 66.342850,123.193001 
	C69.184441,125.791817 83.530174,126.807961 92.901726,125.686325 
	C93.864372,125.571106 94.746597,124.783836 95.666138,124.308418 
	C95.534309,123.812202 95.402473,123.315979 95.270645,122.819763 
	C88.704712,122.819763 82.138779,122.819763 74.599670,122.819885 
M72.695320,138.812958 
	C70.845039,139.057755 68.994759,139.302551 67.144478,139.547348 
	C67.212151,139.886108 67.279831,140.224869 67.347511,140.563629 
	C75.143974,140.563629 82.940437,140.563629 90.736893,140.563629 
	C90.744965,139.980209 90.753029,139.396774 90.761101,138.813354 
	C85.056145,138.813354 79.351189,138.813354 72.695320,138.812958 
z"/>
<path fill="#07BEF1" opacity="1.000000" stroke="none" 
	d="
M162.258301,76.715958 
	C165.016342,78.886612 165.139160,80.642563 162.788712,83.056541 
	C147.707809,98.544960 132.895905,114.299202 117.611298,129.581757 
	C114.889915,132.302780 110.491028,133.584961 106.644691,134.863586 
	C103.760460,135.822388 99.714302,131.288742 100.880753,128.410599 
	C102.464058,124.503906 104.072769,120.243431 106.867371,117.253151 
	C120.831718,102.311043 135.307327,87.847473 149.322052,72.951180 
	C152.867554,69.182663 155.363373,69.125923 158.461838,72.962738 
	C159.499298,74.247414 160.818130,75.304863 162.258301,76.715958 
M145.924988,86.418694 
	C133.962006,98.801720 121.999031,111.184746 110.036057,123.567772 
	C110.390778,123.895447 110.745491,124.223129 111.100212,124.550804 
	C115.536209,122.991852 156.009842,80.667717 156.336487,75.584412 
	C152.432220,79.652702 149.428223,82.782906 145.924988,86.418694 
z"/>
<path fill="#08BEF1" opacity="1.000000" stroke="none" 
	d="
M74.751228,79.120300 
	C68.033333,79.120483 61.787994,79.120483 54.153812,79.120483 
	C63.111935,70.569214 71.062386,62.979847 79.751076,54.685772 
	C79.751076,62.376770 79.661530,68.977097 79.787659,75.573303 
	C79.853859,79.035004 77.790054,79.287758 74.751228,79.120300 
z"/>
<path fill="#DEF4FC" opacity="1.000000" stroke="none" 
	d="
M108.987419,108.947693 
	C95.135185,108.933212 81.259651,108.933212 67.384117,108.933212 
	C67.265533,108.458290 67.146950,107.983368 67.028366,107.508446 
	C68.126854,107.060165 69.222267,106.231071 70.324310,106.222153 
	C82.117775,106.126701 93.912933,106.107704 105.705475,106.248032 
	C106.797379,106.261032 107.874542,107.512848 108.947151,108.599274 
	C108.935753,109.009125 108.964119,108.962166 108.987419,108.947693 
z"/>
<path fill="#FDFEFF" opacity="1.000000" stroke="none" 
	d="
M79.025269,90.802063 
	C93.905693,90.802002 108.291733,90.802002 123.567696,90.802002 
	C120.212502,93.749535 72.469666,94.303299 67.435532,92.236481 
	C67.411697,91.758362 67.387871,91.280243 67.364037,90.802124 
	C71.086319,90.802124 74.808601,90.802124 79.025269,90.802063 
z"/>
<path fill="#D6F2FA" opacity="1.000000" stroke="none" 
	d="
M75.086258,122.819824 
	C82.138779,122.819763 88.704712,122.819763 95.270645,122.819763 
	C95.402473,123.315979 95.534309,123.812202 95.666138,124.308418 
	C94.746597,124.783836 93.864372,125.571106 92.901726,125.686325 
	C83.530174,126.807961 69.184441,125.791817 66.342850,123.193001 
	C69.603554,123.045654 72.101608,122.932770 75.086258,122.819824 
z"/>
<path fill="#FCFEFF" opacity="1.000000" stroke="none" 
	d="
M73.170776,138.813156 
	C79.351189,138.813354 85.056145,138.813354 90.761101,138.813354 
	C90.753029,139.396774 90.744965,139.980209 90.736893,140.563629 
	C82.940437,140.563629 75.143974,140.563629 67.347511,140.563629 
	C67.279831,140.224869 67.212151,139.886108 67.144478,139.547348 
	C68.994759,139.302551 70.845039,139.057755 73.170776,138.813156 
z"/>
<path fill="#E8F8FB" opacity="1.000000" stroke="none" 
	d="
M146.174622,86.165909 
	C149.428223,82.782906 152.432220,79.652702 156.336487,75.584412 
	C156.009842,80.667717 115.536209,122.991852 111.100212,124.550804 
	C110.745491,124.223129 110.390778,123.895447 110.036057,123.567772 
	C121.999031,111.184746 133.962006,98.801720 146.174622,86.165909 
z"/>
</svg>