<svg version="1.1" id="Layer_1" xmlns="http://www.w3.org/2000/svg" xmlns:xlink="http://www.w3.org/1999/xlink" x="0px" y="0px"
	 width="100%" viewBox="0 0 128 128" enable-background="new 0 0 128 128" xml:space="preserve">
<path fill="#FFFFFF" opacity="1.000000" stroke="none" 
	d="
M75.000000,129.000000 
	C51.000000,129.000000 27.499788,128.955139 4.000308,129.065582 
	C1.499216,129.077347 0.930376,128.499771 0.935936,125.999855 
	C1.026385,85.333397 1.026381,44.666611 0.935937,4.000143 
	C0.930377,1.500242 1.500242,0.930377 4.000143,0.935937 
	C44.666611,1.026383 85.333397,1.026383 125.999855,0.935936 
	C128.499771,0.930377 129.069626,1.500242 129.064072,4.000143 
	C128.973618,44.666611 128.973618,85.333397 129.064072,125.999855 
	C129.069626,128.499771 128.501953,129.085770 125.999489,129.066727 
	C109.167130,128.938599 92.333336,129.000000 75.000000,129.000000 
z"/>
<path fill="#F18B0D" opacity="1.000000" stroke="none" 
	d="
M49.206829,112.416023 
	C40.191452,112.771538 31.373405,112.835960 22.555450,112.910736 
	C18.842323,112.942223 17.077209,111.116943 17.079077,107.404877 
	C17.093309,79.103050 17.092251,50.801205 17.072916,22.499380 
	C17.069756,17.870989 19.993261,17.149778 23.736853,17.159296 
	C41.883224,17.205444 60.029747,17.191942 78.176216,17.196117 
	C87.332710,17.198225 96.489235,17.178272 105.645691,17.196276 
	C111.713966,17.208206 112.746986,18.169083 112.755447,24.022404 
	C112.775169,37.673450 112.737137,51.324581 112.612366,65.422684 
	C109.387627,65.325348 108.071556,62.465500 106.225891,60.537262 
	C98.408356,52.369972 90.185715,44.608826 82.166023,36.187134 
	C81.563332,35.447392 81.227921,34.915607 80.615967,34.222137 
	C80.265091,33.871487 80.122925,33.733261 79.774681,33.381359 
	C79.177422,32.718403 78.788780,32.266666 78.072060,31.708319 
	C76.783432,30.762342 75.662018,30.095467 74.786514,28.712376 
	C74.426941,28.068541 75.255363,27.241665 73.832092,27.311352 
	C67.903015,27.393084 62.303509,27.162811 56.386169,27.577202 
	C55.883472,27.807112 55.702778,27.934126 55.315609,28.316685 
	C53.890110,30.055161 52.660835,31.530998 51.673161,33.554260 
	C51.091370,34.298409 50.496761,34.508293 49.774441,35.064468 
	C49.067913,38.426723 49.139828,41.600739 48.788448,44.990517 
	C49.546589,43.851562 48.344326,41.542149 50.960896,40.912170 
	C52.822433,44.810478 52.215919,49.170193 54.619118,52.725796 
	C55.147961,53.508228 54.790779,54.710083 54.268318,55.561230 
	C51.359241,60.300419 49.302353,65.565903 45.189598,69.944191 
	C44.612309,70.134872 44.366589,70.148178 43.771133,70.068146 
	C40.248798,68.579346 36.799084,69.710625 33.730507,69.103104 
	C34.236603,69.863441 34.344387,70.452225 33.972229,71.361176 
	C31.114767,73.341042 30.088673,75.844093 30.321095,78.876518 
	C30.681988,83.585144 29.077545,88.544266 32.264336,93.216293 
	C32.959068,94.266945 33.386768,95.077316 34.279160,95.961899 
	C35.042057,96.627609 35.565468,97.056610 36.341743,97.719597 
	C39.601639,101.728889 43.101414,105.024918 46.639854,108.282677 
	C47.827511,109.376137 49.500416,110.115150 49.206829,112.416023 
z"/>
<path fill="#E06E0F" opacity="1.000000" stroke="none" 
	d="
M81.762527,35.200787 
	C92.438248,44.729259 102.741333,54.607754 112.257210,65.685257 
	C112.568489,70.657295 112.634750,75.444908 112.605759,80.700127 
	C112.411629,90.534302 112.648056,99.904106 112.174835,109.702995 
	C112.051758,111.115990 111.459770,111.686691 110.313972,112.141602 
	C109.812843,111.750397 109.530441,111.710030 109.352753,112.247559 
	C109.538002,112.484055 109.408562,112.502258 109.343666,112.494537 
	C109.036942,112.151634 108.786377,112.127304 108.295593,112.591240 
	C88.688004,112.766426 69.310448,112.816017 49.471176,112.784271 
	C46.803028,108.940117 42.741634,106.995178 40.122532,103.629204 
	C38.814495,101.948166 36.735332,100.902786 35.999840,98.362305 
	C39.196819,95.491524 43.033180,97.217171 46.884621,96.477509 
	C48.902382,95.258347 51.223240,96.182411 53.004120,94.441620 
	C54.507668,93.080788 55.664894,91.817734 57.283047,90.628769 
	C57.756828,90.477249 57.952675,90.451447 58.422707,90.463974 
	C58.899292,87.270454 58.884686,84.045738 58.288578,80.511879 
	C57.826347,78.901398 57.923866,77.497383 57.022446,76.014984 
	C56.060799,74.664330 55.352154,73.371918 54.109589,72.950462 
	C49.314640,71.324112 50.393543,68.628479 52.370003,65.396156 
	C54.592934,61.760750 56.450962,57.902058 59.333786,54.308128 
	C59.754711,53.993156 59.934933,53.894257 60.407333,53.756046 
	C61.042316,53.874546 61.277672,54.117371 61.497704,54.671204 
	C61.762234,54.694145 61.854885,54.554199 62.123093,54.219334 
	C62.579506,53.786572 62.887337,53.589931 63.489326,53.325233 
	C64.548965,53.040180 65.338318,53.049343 66.418823,53.260132 
	C66.885384,53.422493 67.063072,53.507172 67.474289,53.775425 
	C67.816780,54.095852 67.925728,54.232700 68.141853,54.548466 
	C68.701202,55.367825 68.603073,54.960567 68.628975,54.319466 
	C68.914169,53.948284 69.091667,53.842018 69.592056,53.788132 
	C73.971008,57.722080 76.013992,62.886543 78.704475,67.637962 
	C79.627235,69.267570 79.106911,70.516739 77.603516,71.422607 
	C75.871750,72.466087 74.577744,74.019119 72.696793,75.402740 
	C72.151733,75.580185 71.926239,75.613098 71.380096,75.609291 
	C71.543358,79.891663 71.048279,84.243019 71.613197,88.872253 
	C71.883217,89.347755 72.027489,89.514580 72.412827,89.906914 
	C73.842896,91.402763 75.063194,92.644104 76.398987,94.217407 
	C83.124077,96.434128 89.719612,96.117447 96.583633,94.830788 
	C97.819626,93.800087 98.494560,92.654770 99.884384,91.842163 
	C100.902725,91.886429 101.556282,91.865799 102.049980,90.806213 
	C102.599380,90.632629 102.828430,90.510162 102.952766,90.256134 
	C102.990997,90.178017 102.987907,90.122795 102.971413,90.104134 
	C102.530113,89.604431 103.179214,89.973167 102.379120,90.234589 
	C101.702583,89.501961 101.872719,88.900818 102.213669,87.997330 
	C103.014671,84.361320 102.782082,81.010452 102.417702,77.351135 
	C101.858696,76.069077 101.402367,75.099747 100.367630,74.126251 
	C98.970703,72.884506 97.571350,72.134346 96.521919,70.531693 
	C96.333847,70.016029 96.283920,69.803871 96.186066,69.288574 
	C93.004387,69.311310 89.863167,69.361794 86.326088,69.207016 
	C85.673836,69.119873 85.412804,69.066879 84.770218,68.878769 
	C80.055283,65.324905 78.225082,60.217739 75.592911,55.655838 
	C75.178551,54.937714 74.879845,53.916763 75.261055,53.247677 
	C79.122719,46.469765 76.737061,38.879089 78.365059,31.443626 
	C79.036201,31.518396 79.488251,31.944738 79.992065,32.700249 
	C81.908058,36.720978 80.664421,40.649254 80.744690,44.649200 
	C81.778297,41.787640 80.220955,38.464199 81.762527,35.200787 
z"/>
<path fill="#F18B0D" opacity="1.000000" stroke="none" 
	d="
M112.370094,109.805191 
	C109.956108,107.484093 112.134109,104.764969 112.059555,102.071831 
	C111.873177,95.340157 112.082588,88.597527 112.321854,81.513519 
	C112.550140,90.602516 112.589775,100.037285 112.370094,109.805191 
z"/>
<path fill="#F18B0D" opacity="1.000000" stroke="none" 
	d="
M109.683250,112.465179 
	C109.498314,112.200836 108.834114,111.650383 109.912003,112.007874 
	C109.997116,112.206764 109.828499,112.446304 109.683250,112.465179 
z"/>
<path fill="#F18B0D" opacity="1.000000" stroke="none" 
	d="
M108.281891,112.779350 
	C108.242027,112.417580 108.504013,112.269890 109.065155,112.380280 
	C109.090981,112.764236 108.830795,112.882591 108.281891,112.779350 
z"/>
<path fill="#FDF9F7" opacity="1.000000" stroke="none" 
	d="
M101.134949,91.349533 
	C100.042580,92.537025 99.239159,93.328941 98.299042,94.367218 
	C95.827141,96.891670 92.886292,95.855476 90.207291,95.948494 
	C85.794380,96.101707 81.363205,96.140411 76.562027,95.185715 
	C74.974709,93.799522 73.419991,93.038116 72.655945,91.126083 
	C69.629265,85.996773 71.123901,80.850327 71.943649,75.419998 
	C73.057480,74.024734 73.638916,72.282555 74.606796,72.031754 
	C80.542519,70.493729 77.631889,67.594391 75.955200,64.782684 
	C73.840866,61.237083 71.770882,57.665043 69.407852,53.883114 
	C66.623962,53.732883 64.103241,53.150425 61.228073,53.718811 
	C57.596001,58.932636 54.338387,64.213272 50.863392,69.846275 
	C53.340893,71.092407 56.399090,71.470520 57.426765,74.810867 
	C59.073486,80.115288 59.594257,85.205330 57.908379,90.632370 
	C56.677441,92.277756 55.798458,93.602707 54.143311,94.637039 
	C46.899502,96.747498 39.817078,97.240395 32.364418,94.992348 
	C29.831604,92.840126 28.847012,90.643745 29.045300,87.709358 
	C29.279026,84.250496 29.208096,80.760582 29.082010,77.290939 
	C28.965845,74.094223 30.096359,71.836937 33.482613,70.481369 
	C35.694908,69.295982 37.747131,69.803345 40.110962,69.697006 
	C41.197395,69.706963 41.916248,69.742790 43.332031,69.887482 
	C48.019375,65.334236 50.349487,59.653217 53.577076,54.526367 
	C54.018475,53.825241 54.622726,52.883194 53.780914,52.341293 
	C49.719021,49.726513 51.146214,45.612144 50.666412,41.562519 
	C49.318401,39.084873 49.519573,36.921124 50.305828,34.321121 
	C51.176891,32.036499 51.850517,30.187174 53.946785,28.913097 
	C54.181629,27.298822 55.285229,27.107073 56.230915,27.115122 
	C62.155209,27.165548 68.100449,26.432711 74.352341,27.876377 
	C75.828102,29.075830 76.951241,29.926649 78.329254,30.934763 
	C79.766121,36.653076 78.913315,42.278996 79.111107,47.871452 
	C79.122536,48.194717 79.134979,48.652306 78.944450,48.828827 
	C73.245415,54.109074 78.637474,57.926579 80.724037,62.135681 
	C81.673599,64.051178 82.869904,65.844353 84.195465,67.908829 
	C88.300407,70.138191 92.705643,67.938782 96.738968,70.112381 
	C97.897469,71.307503 98.920357,72.078575 100.192169,72.971703 
	C103.886749,78.875572 102.379860,84.929924 101.134949,91.349533 
z"/>
<path fill="#DF6701" opacity="1.000000" stroke="none" 
	d="
M32.125130,94.929039 
	C39.040215,94.695404 46.030079,94.779678 53.484417,94.865562 
	C53.190807,97.409142 51.257866,96.890930 49.207344,96.805115 
	C44.312874,98.053368 39.570724,97.262543 34.432430,97.216248 
	C33.404934,96.418243 32.802418,95.832596 32.125130,94.929039 
z"/>
<path fill="#EF7D00" opacity="1.000000" stroke="none" 
	d="
M50.346626,33.794456 
	C50.605492,36.022564 50.669243,38.133854 50.643799,40.692532 
	C49.174221,43.444305 50.680939,46.142937 49.273514,48.739914 
	C47.982143,43.979580 48.725327,38.911705 48.774490,33.438896 
	C49.369682,33.231709 49.760597,33.454674 50.346626,33.794456 
z"/>
<path fill="#EE7900" opacity="1.000000" stroke="none" 
	d="
M74.898788,28.112938 
	C68.164719,28.331753 61.624470,28.438496 54.634155,28.624804 
	C54.150024,28.425690 54.115959,28.147011 54.041779,27.449114 
	C60.691467,25.897257 67.426659,26.757318 74.571365,26.783329 
	C75.141396,27.231125 75.300018,27.458405 75.396423,27.709560 
	C75.415909,27.760313 75.199997,27.901419 74.898788,28.112938 
z"/>
<path fill="#F1891B" opacity="1.000000" stroke="none" 
	d="
M74.711609,26.697124 
	C68.315948,27.001776 61.627193,27.008125 54.470055,27.022186 
	C60.749081,24.936457 67.598343,26.138121 74.711609,26.697124 
z"/>
<path fill="#EE7801" opacity="1.000000" stroke="none" 
	d="
M42.543030,70.342529 
	C39.731701,70.317184 37.214359,70.401901 34.234352,70.358780 
	C33.551147,69.938766 33.330605,69.646576 33.055252,69.178665 
	C36.365143,68.001717 39.800278,68.694237 43.602863,68.821655 
	C44.003922,69.064651 44.000786,69.528008 44.014999,69.759094 
	C44.029209,69.990173 44.008270,70.020164 43.990566,70.022301 
	C43.648117,70.310074 43.267002,70.446159 42.543030,70.342529 
z"/>
<path fill="#DD6200" opacity="1.000000" stroke="none" 
	d="
M81.218048,48.568291 
	C78.865097,44.099590 80.586586,38.954311 80.039856,33.492657 
	C80.043831,33.029423 80.528458,33.005333 80.770905,33.014412 
	C82.007263,38.039341 81.281403,43.102379 81.218048,48.568291 
z"/>
<path fill="#E37021" opacity="1.000000" stroke="none" 
	d="
M81.303070,48.703892 
	C81.005966,43.980679 81.004036,38.966251 81.007721,33.487656 
	C81.329788,33.479752 81.646225,33.936012 81.985611,34.683739 
	C81.766273,39.451141 82.471283,43.956001 81.303070,48.703892 
z"/>
<path fill="#F38A1D" opacity="1.000000" stroke="none" 
	d="
M48.686905,33.303165 
	C48.985413,38.027462 48.992062,43.046185 48.996830,48.531532 
	C47.074329,43.931660 48.076668,38.751305 48.686905,33.303165 
z"/>
<path fill="#E16E1A" opacity="1.000000" stroke="none" 
	d="
M34.169338,97.246384 
	C38.694118,97.002937 43.380779,97.001976 48.533485,97.001740 
	C45.106480,99.083702 40.908936,97.481949 36.420872,98.011597 
	C35.413589,97.842499 34.872406,97.665688 34.169338,97.246384 
z"/>
<path fill="#EE8B26" opacity="1.000000" stroke="none" 
	d="
M43.732300,68.752487 
	C40.641464,69.042923 37.279007,69.021194 33.458500,69.001198 
	C36.387341,66.958855 39.946201,68.112175 43.732300,68.752487 
z"/>
<path fill="#F18816" opacity="1.000000" stroke="none" 
	d="
M26.330849,77.157501 
	C27.278751,78.312920 27.181137,79.674706 26.547621,81.153748 
	C25.627819,79.893005 26.086609,78.608841 26.330849,77.157501 
z"/>
<path fill="#F18816" opacity="1.000000" stroke="none" 
	d="
M27.402107,92.452423 
	C26.127291,92.562637 26.026798,91.862015 26.227531,91.055466 
	C26.263477,90.911049 26.756706,90.720161 26.924726,90.797752 
	C27.526920,91.075844 27.783916,91.593758 27.402107,92.452423 
z"/>
<path fill="#EE7900" opacity="1.000000" stroke="none" 
	d="
M77.473770,27.456234 
	C77.522591,27.428133 77.424950,27.484333 77.473770,27.456234 
z"/>
<path fill="#E06701" opacity="1.000000" stroke="none" 
	d="
M75.968399,95.107773 
	C83.168159,94.863792 90.182854,94.818428 97.679947,94.693314 
	C97.792435,95.151115 97.489502,96.091705 97.042610,96.165962 
	C89.906212,97.351784 82.772499,97.939056 75.968399,95.107773 
z"/>
<path fill="#DD6802" opacity="1.000000" stroke="none" 
	d="
M100.979424,91.945435 
	C100.783279,85.831154 100.720551,79.917183 100.549454,73.548485 
	C101.812500,73.244453 102.127396,74.451897 102.862885,75.689240 
	C104.029739,80.025459 103.274490,84.111603 103.205276,88.583603 
	C102.870827,89.274368 102.756859,89.547615 102.808868,89.910652 
	C103.079872,90.167183 103.184891,90.333931 103.131104,90.749985 
	C102.137634,91.032990 102.271072,92.636871 100.979424,91.945435 
z"/>
<path fill="#E0722A" opacity="1.000000" stroke="none" 
	d="
M71.210373,90.577690 
	C69.073364,85.660202 70.033478,80.220703 70.728279,74.899994 
	C72.003311,80.028152 71.282463,85.102783 71.210373,90.577690 
z"/>
<path fill="#DD5303" opacity="1.000000" stroke="none" 
	d="
M71.356552,90.974617 
	C70.997528,85.978912 71.003250,80.956291 71.013123,75.466782 
	C71.230629,75.012627 71.443970,75.025368 71.977364,75.057846 
	C72.331848,80.044228 72.366272,85.010849 72.425865,90.437553 
	C72.207794,90.914322 71.964539,90.931015 71.356552,90.974617 
z"/>
<path fill="#DF5802" opacity="1.000000" stroke="none" 
	d="
M57.864040,90.914200 
	C57.531075,85.923309 57.576084,80.956802 57.634689,75.527924 
	C59.614914,75.950150 58.797375,77.746132 59.007553,79.609818 
	C59.985790,83.364204 59.304619,86.783913 59.213631,90.583725 
	C58.745533,90.977592 58.493778,90.958092 57.864040,90.914200 
z"/>
<path fill="#E05803" opacity="1.000000" stroke="none" 
	d="
M96.905731,70.154160 
	C92.897461,69.624229 88.462158,72.214302 84.614304,68.540207 
	C84.699188,68.104378 84.961746,68.084099 85.618088,68.032822 
	C89.368927,69.178909 92.850060,68.137268 96.623169,68.790802 
	C96.977516,69.262146 96.957191,69.517029 96.905731,70.154160 
z"/>
<path fill="#E17122" opacity="1.000000" stroke="none" 
	d="
M59.049385,91.289688 
	C58.998707,87.639984 59.000130,84.282875 59.006363,80.469269 
	C60.992054,83.853836 59.748722,87.907806 59.777561,91.876694 
	C59.777805,91.910461 59.487934,92.013412 59.397964,91.964790 
	C59.268147,91.894638 59.197430,91.715126 59.049385,91.289688 
z"/>
<path fill="#E16F1D" opacity="1.000000" stroke="none" 
	d="
M103.283600,88.714821 
	C102.989639,84.976601 102.994484,80.952095 103.000198,76.464592 
	C104.891068,80.064560 103.974121,84.258827 103.283600,88.714821 
z"/>
<path fill="#E1722A" opacity="1.000000" stroke="none" 
	d="
M97.101852,68.723511 
	C93.525536,68.776619 90.017395,69.467140 86.290833,68.301682 
	C89.739136,68.251945 93.505608,67.499496 97.101852,68.723511 
z"/>
<path fill="#DD6204" opacity="1.000000" stroke="none" 
	d="
M60.902237,53.985916 
	C63.338329,52.159622 66.005173,53.032185 68.870255,53.358368 
	C69.102554,53.879280 69.071152,54.096741 69.018509,54.643097 
	C68.835060,55.144554 68.672852,55.317123 68.259453,55.238487 
	C68.008255,54.987286 67.999367,54.998489 68.004562,54.996895 
	C67.806480,54.757885 67.585121,54.538723 67.177589,54.175217 
	C65.938972,54.010391 64.868462,54.008167 63.396515,54.005974 
	C62.774551,54.228176 62.546841,54.442726 62.152107,54.821419 
	C61.992268,54.993179 62.000153,54.999542 61.996460,54.994480 
	C61.827866,55.089581 61.662964,55.189747 61.249676,55.141365 
	C60.984482,54.768490 60.967667,54.544163 60.902237,53.985916 
z"/>
<path fill="#DE711D" opacity="1.000000" stroke="none" 
	d="
M68.020340,55.240986 
	C68.008255,54.987286 68.502899,54.987003 68.750092,54.979492 
	C68.835197,55.413040 68.673119,55.854099 68.511040,56.295155 
	C68.351501,56.028332 68.191971,55.761509 68.020340,55.240986 
z"/>
<path fill="#DE711D" opacity="1.000000" stroke="none" 
	d="
M61.089195,55.162739 
	C61.001293,54.992821 61.497074,54.989807 61.744919,54.989613 
	C61.820335,55.340187 61.659477,55.718460 61.089195,55.162739 
z"/>
<path fill="#DE711D" opacity="1.000000" stroke="none" 
	d="
M67.115189,54.231728 
	C67.337891,54.098854 67.601303,54.279736 67.904739,54.775280 
	C67.682632,54.906769 67.419678,54.725281 67.115189,54.231728 
z"/>
<path fill="#E16F1D" opacity="1.000000" stroke="none" 
	d="
M103.147339,90.913986 
	C102.972298,90.999298 102.982666,90.499916 102.978760,90.250175 
	C103.328331,90.176796 103.721153,90.336655 103.147339,90.913986 
z"/>
<path fill="#DE711D" opacity="1.000000" stroke="none" 
	d="
M62.214211,54.891216 
	C62.086597,54.666367 62.272446,54.404522 62.772446,54.106827 
	C62.898243,54.330944 62.711933,54.592030 62.214211,54.891216 
z"/>
<path fill="#F18B0D" opacity="1.000000" stroke="none" 
	d="
M42.460838,70.385880 
	C42.676697,70.148521 43.104347,70.064568 43.752434,70.002533 
	C43.539452,70.196053 43.106045,70.367668 42.460838,70.385880 
z"/>
</svg>