<svg version="1.1" id="Layer_1" xmlns="http://www.w3.org/2000/svg" xmlns:xlink="http://www.w3.org/1999/xlink" x="0px" y="0px"
	 width="100%" viewBox="0 0 180 180" enable-background="new 0 0 180 180" xml:space="preserve">
<path fill="#01295A" opacity="1.000000" stroke="none" 
	d="
M167.311554,180.778610 
	C115.979103,181.000000 64.958206,181.000000 13.468657,181.000000 
	C12.336364,180.356110 11.463827,180.586411 10.679543,180.436722 
	C3.251239,179.019012 2.702247,178.431915 1.222001,170.314667 
	C1.000000,163.978851 1.000000,157.957703 1.000000,151.468277 
	C2.341281,149.249710 4.237893,148.824173 6.300154,148.721298 
	C9.127217,148.580246 11.955122,148.601501 14.783093,148.596664 
	C68.687187,148.504730 122.591599,148.775452 176.495346,148.439026 
	C177.859222,148.430496 179.156387,148.382751 180.627472,149.668823 
	C181.000000,155.354935 181.000000,160.709854 181.000000,166.532394 
	C180.394318,167.655548 180.418320,168.532349 180.229126,169.319351 
	C178.073257,178.286636 176.955063,179.293091 167.311554,180.778610 
z"/>
<path fill="#043972" opacity="1.000000" stroke="none" 
	d="
M1.361256,74.350311 
	C1.000000,58.312439 1.000000,42.624878 1.000000,26.468658 
	C2.215421,24.675945 3.685679,24.385986 5.484684,24.403400 
	C48.743587,24.822144 92.004570,24.665453 135.263321,24.501535 
	C148.032486,24.453154 160.813766,24.224846 173.588150,23.991282 
	C175.906860,23.948887 178.260941,23.926702 180.647629,25.681850 
	C181.000000,34.687565 181.000000,43.375126 181.000000,52.531345 
	C179.676315,54.791279 178.162659,56.174801 175.713013,56.213169 
	C161.441010,56.436718 147.169708,56.691971 132.901459,56.054935 
	C132.236877,56.025265 131.604645,55.785572 130.556091,55.333961 
	C127.786934,53.927723 127.911858,51.641933 127.711525,49.504715 
	C127.496002,47.205441 127.801804,44.794952 125.908890,42.497772 
	C123.817741,40.180828 121.572617,39.498745 118.919769,39.499302 
	C100.276726,39.503204 81.633659,39.489697 62.990597,39.519844 
	C60.614822,39.523685 58.293095,39.670490 56.438698,42.196762 
	C54.414597,44.410816 54.442242,46.764019 54.417282,49.096752 
	C54.349735,55.409939 54.493065,61.724892 54.322399,68.036346 
	C54.264790,70.166885 54.465401,72.392609 52.727798,74.610336 
	C50.734371,75.852364 48.954269,76.242905 47.110527,76.271652 
	C33.505749,76.483788 19.900343,76.516754 6.296176,76.246132 
	C4.652667,76.213432 2.944431,76.106026 1.361256,74.350311 
z"/>
<path fill="#053C76" opacity="1.000000" stroke="none" 
	d="
M181.000000,25.536816 
	C174.316422,27.427561 167.503281,26.720428 160.794739,26.735126 
	C153.373001,26.751390 145.953308,26.980770 138.532654,26.985813 
	C96.100822,27.014648 53.668953,26.988937 11.237126,27.021578 
	C8.057016,27.024023 4.928250,26.819292 1.419289,26.036304 
	C1.000000,20.977907 1.000000,15.955815 1.000000,10.466862 
	C2.154026,5.522421 4.168606,1.890085 9.707627,1.216158 
	C63.354229,1.000000 116.708458,1.000000 170.531342,1.000000 
	C177.100723,2.353446 180.620026,5.872790 180.780334,12.697392 
	C181.000000,17.024544 181.000000,21.049089 181.000000,25.536816 
z"/>
<path fill="#023166" opacity="1.000000" stroke="none" 
	d="
M180.724854,101.588593 
	C181.000000,108.687645 181.000000,115.375290 181.000000,122.531464 
	C178.687027,129.721893 173.132538,129.403015 167.532059,129.418121 
	C155.564194,129.450394 143.595642,129.121689 131.164368,129.456100 
	C114.753654,129.320801 98.806557,129.476913 82.860062,129.380112 
	C71.880585,129.313461 70.739166,128.131592 70.624207,116.937744 
	C70.579857,112.619431 70.481674,108.296761 70.723312,103.983292 
	C71.043358,98.270157 72.256874,96.928810 77.951843,96.748444 
	C89.574860,96.380333 101.205681,96.673401 112.832893,96.591293 
	C120.681969,96.535873 121.090088,96.246834 123.916916,88.751381 
	C126.407814,86.894783 128.890137,86.676659 131.401505,86.659142 
	C144.876709,86.565147 158.353134,86.484520 171.826843,86.691772 
	C179.201263,86.805199 179.942688,87.735695 180.012497,95.242775 
	C180.030914,97.225227 179.733780,99.242004 180.724854,101.588593 
z"/>
<path fill="#012D5F" opacity="1.000000" stroke="none" 
	d="
M130.760559,128.181244 
	C132.283157,125.923409 133.547302,124.308678 136.180939,126.070946 
	C137.948334,127.253578 140.000290,126.986076 141.972977,126.991539 
	C149.091873,127.011246 156.210953,127.021332 163.329773,126.993317 
	C169.263687,126.969963 175.481827,128.111740 180.627747,123.032646 
	C181.000000,131.687561 181.000000,140.375137 181.000000,149.531342 
	C176.586929,150.980911 172.113541,151.022461 167.615601,151.019958 
	C112.389526,150.989304 57.163414,151.000000 1.468657,151.000000 
	C1.000000,140.979111 1.000000,130.958206 1.000000,120.468658 
	C2.586673,117.890068 4.914439,117.714729 7.249575,117.686928 
	C19.805132,117.537468 32.360992,117.557045 44.916935,117.671776 
	C47.284008,117.693398 49.496735,118.162056 51.883087,119.753761 
	C55.273617,122.576500 54.306618,126.136925 54.326126,129.316605 
	C54.412037,143.323303 53.830135,142.640213 67.708481,142.611252 
	C85.139610,142.574860 102.570923,142.637650 120.001999,142.584610 
	C127.473000,142.561874 128.201324,141.790558 128.660049,134.382828 
	C128.790848,132.270966 128.486847,129.997665 130.760559,128.181244 
z"/>
<path fill="#03366D" opacity="1.000000" stroke="none" 
	d="
M181.000000,101.531342 
	C178.371689,100.809166 179.074066,98.404083 179.020813,96.345581 
	C178.846283,89.598679 178.343735,89.024872 171.500931,89.011375 
	C156.389771,88.981583 141.278503,89.004601 125.715096,89.004852 
	C121.043823,82.357513 114.341293,83.404228 107.961937,83.391869 
	C98.326576,83.373207 88.688499,83.569595 79.056641,83.286278 
	C72.391212,83.090210 70.994881,81.591354 70.691299,74.894302 
	C70.540802,71.574348 70.556099,68.249123 70.672279,64.928322 
	C70.936104,57.386997 72.376389,55.823273 79.835358,55.689419 
	C92.957687,55.453934 106.083435,55.625740 119.207703,55.608131 
	C122.555664,55.603642 125.848763,55.410042 129.462250,54.062096 
	C144.220581,53.998703 158.507095,53.990726 172.793579,54.007702 
	C175.294113,54.010674 177.779037,53.980072 180.591431,53.087166 
	C181.000000,69.020897 181.000000,85.041786 181.000000,101.531342 
z"/>
<path fill="#023369" opacity="1.000000" stroke="none" 
	d="
M52.398026,120.731819 
	C37.150379,118.893875 22.249521,120.503151 7.395703,120.008545 
	C5.578163,119.948029 3.756869,120.000237 1.468657,120.000107 
	C1.000000,104.979103 1.000000,89.958214 1.000000,74.468658 
	C17.679800,74.000008 34.359600,74.000023 51.506386,73.999954 
	C53.930027,74.960083 54.168377,76.803558 54.214306,78.638947 
	C54.528782,91.206474 54.523190,103.775436 54.217175,116.343140 
	C54.180996,117.829094 54.017757,119.335060 52.398026,120.731819 
z"/>
<path fill="#1C4878" opacity="1.000000" stroke="none" 
	d="
M167.474121,181.000000 
	C173.596146,178.578430 177.690445,173.659882 180.753632,167.233185 
	C181.000000,167.327896 181.000000,167.655807 181.000000,167.983704 
	C181.000000,172.246399 182.677765,178.415756 180.563736,180.276001 
	C178.074020,182.466812 172.298843,180.923920 167.474121,181.000000 
z"/>
<path fill="#1C4878" opacity="1.000000" stroke="none" 
	d="
M181.000000,12.520824 
	C178.975677,8.202389 175.589005,4.531811 171.231766,1.236217 
	C174.262268,1.000000 179.744385,-0.053912 180.344467,1.210016 
	C181.783524,4.241080 180.928940,8.361099 181.000000,12.520824 
z"/>
<path fill="#1C4878" opacity="1.000000" stroke="none" 
	d="
M1.000000,170.482956 
	C3.284891,175.196213 7.149149,178.672684 12.742298,180.773605 
	C12.347138,181.000000 11.693989,181.012665 11.041462,180.997894 
	C7.694221,180.922089 3.287128,182.066925 1.329763,180.376907 
	C-0.284947,178.982742 1.000000,174.230225 1.000000,170.482956 
z"/>
<path fill="#1C4878" opacity="1.000000" stroke="none" 
	d="
M9.508951,1.000000 
	C6.888916,3.577725 3.884516,6.262022 1.235836,9.768629 
	C1.000000,9.675850 1.000000,9.351699 1.000000,9.027549 
	C0.999998,1.000000 0.999999,1.000000 9.508951,1.000000 
z"/>
<path fill="#B0E2FF" opacity="1.000000" stroke="none" 
	d="
M52.059849,121.462326 
	C52.031265,105.641617 52.094742,90.281532 52.065796,74.460663 
	C52.151024,62.905430 52.328667,51.810993 52.754265,40.384293 
	C54.223633,38.943031 55.741150,39.012321 57.230133,39.011452 
	C79.919708,38.998207 102.609283,38.983078 125.298851,39.020042 
	C126.292740,39.021664 127.291397,39.056797 128.539246,39.930923 
	C130.505066,44.471920 129.208893,48.845352 129.821411,53.550972 
	C130.061295,57.361904 128.556870,58.349411 125.142754,58.305508 
	C109.511940,58.104511 93.875832,58.323891 78.244614,58.139427 
	C74.534027,58.095642 72.830376,58.790611 73.184029,62.960629 
	C73.576141,67.584167 73.439362,72.274437 73.217140,76.920540 
	C73.067909,80.040611 74.244041,80.880737 77.237915,80.851761 
	C90.707977,80.721390 104.180031,80.795547 117.651360,80.796265 
	C124.978996,80.796661 124.978996,80.796951 125.169121,88.556602 
	C124.603821,98.804253 124.603821,98.804199 114.594498,98.804321 
	C102.277084,98.804466 89.957603,98.929733 77.643539,98.726791 
	C74.069847,98.667900 73.097832,99.859970 73.223946,103.278290 
	C73.463120,109.761078 73.535896,116.271408 73.203499,122.745941 
	C73.000755,126.695007 74.532578,127.382156 78.079979,127.360535 
	C95.552292,127.254051 113.026176,127.405457 130.834381,127.736115 
	C131.134552,132.505051 130.976898,137.007385 131.111908,141.500931 
	C131.191010,144.133438 130.634125,145.379044 127.601395,145.365936 
	C103.601921,145.262146 79.601730,145.281982 55.601997,145.350937 
	C53.037067,145.358307 52.087708,144.578949 52.145512,141.921127 
	C52.290428,135.258179 52.167439,128.589401 52.059849,121.462326 
z"/>
<path fill="#053C76" opacity="1.000000" stroke="none" 
	d="
M128.750031,39.915672 
	C103.901871,40.253712 78.916054,40.222313 53.466225,40.121475 
	C54.004143,37.623859 56.173714,38.018181 58.108810,38.016312 
	C79.972931,37.995182 101.837097,37.992477 123.701195,38.022884 
	C125.451935,38.025318 127.436684,37.563633 128.750031,39.915672 
z"/>
</svg>