<svg version="1.1" id="Layer_1" xmlns="http://www.w3.org/2000/svg" xmlns:xlink="http://www.w3.org/1999/xlink" x="0px" y="0px"
	 width="100%" viewBox="0 0 256 256" enable-background="new 0 0 256 256" xml:space="preserve">
<path fill="#5BC496" opacity="1.000000" stroke="none" 
	d="
M1.000000,76.000000 
	C1.000000,51.026894 1.000000,26.053783 1.000000,1.040338 
	C86.214638,1.040338 171.429291,1.040338 257.000000,1.040338 
	C257.000000,26.019768 257.000000,51.041225 256.577148,76.530090 
	C250.698410,76.855789 245.243027,76.620949 239.786530,76.591331 
	C227.564743,76.525002 215.342392,76.547920 203.120285,76.558617 
	C191.227921,76.569023 179.335617,76.615204 167.443253,76.635178 
	C155.548660,76.655159 143.654053,76.663818 131.759445,76.674332 
	C119.539581,76.685127 107.319710,76.695297 95.099846,76.699966 
	C83.369049,76.704453 71.638245,76.705399 59.907448,76.700844 
	C47.687557,76.696098 35.466946,76.759605 23.248045,76.644882 
	C15.830667,76.575241 8.415926,76.224472 1.000000,76.000000 
z"/>
<path fill="#51B790" opacity="1.000000" stroke="none" 
	d="
M257.000000,192.000000 
	C257.000000,213.642151 257.000000,235.284302 257.000000,256.963226 
	C171.787750,256.963226 86.575478,256.963226 1.000000,256.963226 
	C1.000000,235.313797 1.000000,213.625549 1.374936,191.549347 
	C9.863575,191.086258 17.980885,191.119125 26.088047,190.848328 
	C27.786524,190.791595 29.447639,189.616302 31.494083,189.152985 
	C32.801071,189.563293 33.739685,189.962448 34.678856,189.963760 
	C58.626774,189.997391 82.574783,190.003708 106.522621,189.946854 
	C107.734108,189.943985 108.944160,189.333405 110.512253,189.120377 
	C113.917259,189.823257 116.963364,190.914276 120.012749,190.923508 
	C158.390594,191.039825 196.769043,190.948730 235.147003,191.045166 
	C242.432083,191.063477 249.715698,191.666672 257.000000,192.000000 
z"/>
<path fill="#57BF93" opacity="1.000000" stroke="none" 
	d="
M1.000000,76.468658 
	C8.415926,76.224472 15.830667,76.575241 23.248045,76.644882 
	C35.466946,76.759605 47.687557,76.696098 59.907448,76.700844 
	C71.638245,76.705399 83.369049,76.704453 95.099846,76.699966 
	C107.319710,76.695297 119.539581,76.685127 131.759445,76.674332 
	C143.654053,76.663818 155.548660,76.655159 167.443253,76.635178 
	C179.335617,76.615204 191.227921,76.569023 203.120285,76.558617 
	C215.342392,76.547920 227.564743,76.525002 239.786530,76.591331 
	C245.243027,76.620949 250.698410,76.855789 256.577148,76.998749 
	C257.000000,90.020897 257.000000,103.041786 256.592377,116.439896 
	C244.109329,116.878777 232.033920,116.940437 219.808960,116.672356 
	C219.377487,115.562714 219.084747,114.786537 218.815292,114.002357 
	C215.380707,104.006828 210.727859,94.746407 202.917801,87.352654 
	C200.488388,85.052757 197.706558,83.827011 194.977234,86.238274 
	C192.033279,88.839180 192.974823,91.891701 195.238312,94.625298 
	C196.611740,96.283951 198.054596,97.888023 199.372742,99.589096 
	C208.878799,111.856720 211.169891,125.982475 209.627380,140.892792 
	C206.011627,139.859299 202.773590,138.801666 199.467270,138.040894 
	C197.057297,137.486359 194.557251,137.323334 192.079468,136.529984 
	C192.036301,134.075348 192.203873,132.051956 191.952881,130.081863 
	C190.762878,120.740692 187.653992,112.152481 180.210114,106.018845 
	C178.561874,104.660721 175.191452,105.392693 172.614014,105.162270 
	C172.541748,107.737503 171.968231,110.434471 172.554794,112.849701 
	C173.029510,114.804459 174.971436,116.374580 176.139572,118.194267 
	C180.661484,125.238297 182.441589,132.771423 179.682663,140.897278 
	C176.439575,139.857880 173.518921,138.093384 170.653091,138.178360 
	C165.038406,138.344833 161.203857,137.191132 160.701065,130.819046 
	C160.650406,130.177048 159.698486,129.606171 158.954269,128.642349 
	C156.752960,127.793381 154.763687,126.885620 152.771210,126.878593 
	C126.009193,126.784058 99.246742,126.814964 72.484390,126.815102 
	C60.848587,126.815155 49.209690,126.970634 37.578564,126.737633 
	C33.153313,126.648987 31.661829,128.225662 31.961481,132.551697 
	C32.247490,136.680771 31.927780,140.851807 31.516264,144.955048 
	C30.181305,144.131729 28.554064,143.505371 28.339121,142.558426 
	C27.362593,138.256271 24.388592,137.902664 20.810909,137.967239 
	C14.209225,138.086365 7.603842,138.000473 1.000000,138.000000 
	C1.000000,117.645775 1.000000,97.291542 1.000000,76.468658 
M51.500572,102.683273 
	C80.226364,102.683273 108.952164,102.683273 137.605042,102.683273 
	C137.605042,95.992638 137.605042,90.095764 137.605042,83.879753 
	C135.228928,83.879753 133.247955,83.879761 131.266983,83.879753 
	C102.477150,83.879578 73.687317,83.878792 44.897484,83.879471 
	C30.616943,83.879807 30.616982,83.881027 31.005232,98.214317 
	C31.009737,98.380630 31.022062,98.548553 31.006041,98.713326 
	C30.716942,101.686516 31.912817,102.879036 35.026955,102.745895 
	C40.176460,102.525726 45.342152,102.684235 51.500572,102.683273 
z"/>
<path fill="#54BB92" opacity="1.000000" stroke="none" 
	d="
M1.000000,138.468658 
	C7.603842,138.000473 14.209225,138.086365 20.810909,137.967239 
	C24.388592,137.902664 27.362593,138.256271 28.339121,142.558426 
	C28.554064,143.505371 30.181305,144.131729 31.715279,145.310699 
	C33.643887,146.155746 35.014751,146.977905 36.387024,146.980255 
	C75.873260,147.048248 115.359680,147.008698 154.845917,147.078003 
	C158.266037,147.084000 159.110062,145.540192 159.036438,142.487213 
	C158.928116,137.995880 159.107803,133.497604 159.164810,129.002289 
	C159.698486,129.606171 160.650406,130.177048 160.701065,130.819046 
	C161.203857,137.191132 165.038406,138.344833 170.653091,138.178360 
	C173.518921,138.093384 176.439575,139.857880 179.666962,141.285461 
	C177.375153,146.680878 174.493210,151.462952 172.253799,156.529053 
	C171.338043,158.600723 170.811630,162.110748 171.928680,163.467789 
	C173.106384,164.898499 176.497131,164.994080 178.842346,164.786087 
	C180.149994,164.670105 181.484879,162.896255 182.486343,161.617935 
	C188.152618,154.385269 191.762772,146.315338 192.097351,136.985779 
	C194.557251,137.323334 197.057297,137.486359 199.467270,138.040894 
	C202.773590,138.801666 206.011627,139.859299 209.632675,141.309509 
	C208.892853,153.707474 203.463943,163.626740 195.874863,172.481247 
	C193.219528,175.579330 191.354523,178.783661 194.867493,181.976395 
	C198.421921,185.206802 201.312576,182.322128 203.747421,179.734879 
	C214.004822,168.835449 219.513290,155.777191 221.476868,141.062744 
	C233.553345,141.093445 245.276672,141.046722 257.000000,141.000000 
	C257.000000,157.687561 257.000000,174.375122 257.000000,191.531342 
	C249.715698,191.666672 242.432083,191.063477 235.147003,191.045166 
	C196.769043,190.948730 158.390594,191.039825 120.012749,190.923508 
	C116.963364,190.914276 113.917259,189.823257 110.451080,188.655930 
	C109.967110,182.726959 109.901688,177.377060 109.820847,171.787567 
	C109.613373,171.208099 109.336700,171.112122 108.510269,171.215546 
	C84.102699,171.160645 60.159302,171.257248 36.218716,171.041428 
	C31.893293,171.002426 30.673931,172.475327 30.958427,176.494736 
	C31.251255,180.631851 31.089064,184.801208 31.125973,188.956451 
	C29.447639,189.616302 27.786524,190.791595 26.088047,190.848328 
	C17.980885,191.119125 9.863575,191.086258 1.374936,191.080688 
	C1.000000,173.645767 1.000000,156.291550 1.000000,138.468658 
z"/>
<path fill="#57BF93" opacity="1.000000" stroke="none" 
	d="
M257.000000,140.531372 
	C245.276672,141.046722 233.553345,141.093445 221.446564,140.596375 
	C220.694916,132.369095 220.326706,124.685600 219.958496,117.002098 
	C232.033920,116.940437 244.109329,116.878777 256.592377,116.908554 
	C257.000000,124.687584 257.000000,132.375168 257.000000,140.531372 
z"/>
<path fill="#FFFFFF" opacity="1.000000" stroke="none" 
	d="
M31.494085,189.152985 
	C31.089064,184.801208 31.251255,180.631851 30.958427,176.494736 
	C30.673931,172.475327 31.893293,171.002426 36.218716,171.041428 
	C60.159302,171.257248 84.102699,171.160645 108.627548,171.370453 
	C109.397423,171.751450 109.606194,171.903885 109.836266,172.027145 
	C109.901688,177.377060 109.967110,182.726959 110.093704,188.541321 
	C108.944160,189.333405 107.734108,189.943985 106.522621,189.946854 
	C82.574783,190.003708 58.626774,189.997391 34.678856,189.963760 
	C33.739685,189.962448 32.801071,189.563293 31.494085,189.152985 
z"/>
<path fill="#FFFFFF" opacity="1.000000" stroke="none" 
	d="
M158.954269,128.642349 
	C159.107803,133.497604 158.928116,137.995880 159.036438,142.487213 
	C159.110062,145.540192 158.266037,147.084000 154.845917,147.078003 
	C115.359680,147.008698 75.873260,147.048248 36.387024,146.980255 
	C35.014751,146.977905 33.643887,146.155746 32.073353,145.360046 
	C31.927780,140.851807 32.247490,136.680771 31.961481,132.551697 
	C31.661829,128.225662 33.153313,126.648987 37.578564,126.737633 
	C49.209690,126.970634 60.848587,126.815155 72.484390,126.815102 
	C99.246742,126.814964 126.009193,126.784058 152.771210,126.878593 
	C154.763687,126.885620 156.752960,127.793381 158.954269,128.642349 
z"/>
<path fill="#FFFFFF" opacity="1.000000" stroke="none" 
	d="
M51.000797,102.683228 
	C45.342152,102.684235 40.176460,102.525726 35.026955,102.745895 
	C31.912817,102.879036 30.716942,101.686516 31.006041,98.713326 
	C31.022062,98.548553 31.009737,98.380630 31.005232,98.214317 
	C30.616982,83.881027 30.616943,83.879807 44.897484,83.879471 
	C73.687317,83.878792 102.477150,83.879578 131.266983,83.879753 
	C133.247955,83.879761 135.228928,83.879753 137.605042,83.879753 
	C137.605042,90.095764 137.605042,95.992638 137.605042,102.683273 
	C108.952164,102.683273 80.226364,102.683273 51.000797,102.683228 
z"/>
<path fill="#499D7B" opacity="1.000000" stroke="none" 
	d="
M219.808960,116.672356 
	C220.326706,124.685600 220.694916,132.369095 221.093414,140.518951 
	C219.513290,155.777191 214.004822,168.835449 203.747421,179.734879 
	C201.312576,182.322128 198.421921,185.206802 194.867493,181.976395 
	C191.354523,178.783661 193.219528,175.579330 195.874863,172.481247 
	C203.463943,163.626740 208.892853,153.707474 209.981140,141.412567 
	C211.169891,125.982475 208.878799,111.856720 199.372742,99.589096 
	C198.054596,97.888023 196.611740,96.283951 195.238312,94.625298 
	C192.974823,91.891701 192.033279,88.839180 194.977234,86.238274 
	C197.706558,83.827011 200.488388,85.052757 202.917801,87.352654 
	C210.727859,94.746407 215.380707,104.006828 218.815292,114.002357 
	C219.084747,114.786537 219.377487,115.562714 219.808960,116.672356 
z"/>
<path fill="#48A07C" opacity="1.000000" stroke="none" 
	d="
M192.079468,136.529984 
	C191.762772,146.315338 188.152618,154.385269 182.486343,161.617935 
	C181.484879,162.896255 180.149994,164.670105 178.842346,164.786087 
	C176.497131,164.994080 173.106384,164.898499 171.928680,163.467789 
	C170.811630,162.110748 171.338043,158.600723 172.253799,156.529053 
	C174.493210,151.462952 177.375153,146.680878 180.014191,141.396301 
	C182.441589,132.771423 180.661484,125.238297 176.139572,118.194267 
	C174.971436,116.374580 173.029510,114.804459 172.554794,112.849701 
	C171.968231,110.434471 172.541748,107.737503 172.614014,105.162270 
	C175.191452,105.392693 178.561874,104.660721 180.210114,106.018845 
	C187.653992,112.152481 190.762878,120.740692 191.952881,130.081863 
	C192.203873,132.051956 192.036301,134.075348 192.079468,136.529984 
z"/>
<path fill="#DBEDE6" opacity="1.000000" stroke="none" 
	d="
M109.820847,171.787567 
	C109.606194,171.903885 109.397423,171.751450 109.092682,171.414917 
	C109.336700,171.112122 109.613373,171.208099 109.820847,171.787567 
z"/>
</svg>