<svg version="1.1" id="Layer_1" xmlns="http://www.w3.org/2000/svg" xmlns:xlink="http://www.w3.org/1999/xlink" x="0px" y="0px"
	 width="100%" viewBox="0 0 225 225" enable-background="new 0 0 225 225" xml:space="preserve">
<path fill="#FEFFFE" opacity="1.000000" stroke="none" 
	d="
M152.000000,226.000000 
	C101.333336,226.000000 51.166672,226.000000 1.000007,226.000000 
	C1.000005,151.000000 1.000005,76.000015 1.000002,1.000017 
	C75.999992,1.000011 150.999985,1.000011 225.999969,1.000006 
	C225.999985,75.999985 225.999985,150.999969 226.000000,225.999969 
	C201.500000,226.000000 177.000000,226.000000 152.000000,226.000000 
M124.493294,30.996548 
	C122.589729,29.132141 120.848793,27.055912 118.750610,25.444988 
	C113.489029,21.405319 105.425690,24.622183 105.294693,31.133947 
	C105.240021,33.851994 107.073578,37.212360 109.082794,39.271580 
	C124.557175,55.131084 140.553864,70.486259 155.863342,86.499969 
	C172.785583,104.200645 177.408600,125.224693 169.325867,148.316162 
	C159.953537,175.091934 133.714569,190.438126 104.873970,186.929764 
	C78.641342,183.738617 56.843960,160.900818 54.300266,133.437775 
	C52.919613,118.531593 56.786526,104.921913 65.850052,92.701271 
	C70.046379,96.916412 73.896553,100.783844 77.903145,104.808395 
	C77.280518,105.980904 76.566017,107.272827 75.899727,108.589157 
	C66.068626,128.011520 72.113182,151.456390 90.002502,163.312469 
	C107.939575,175.200211 132.286224,171.731781 146.000900,155.334915 
	C160.024475,138.568741 159.206284,114.329544 143.917633,98.492592 
	C136.281754,90.582863 128.432053,82.877296 120.578003,75.182541 
	C119.203781,73.836197 117.457932,72.506851 115.656647,72.033211 
	C111.758453,71.008217 108.331108,72.234940 106.244591,75.869987 
	C104.035378,79.718803 104.921783,83.285812 107.929573,86.327393 
	C115.778648,94.264664 123.850540,101.988541 131.524719,110.090080 
	C141.646866,120.775925 141.527496,135.993820 131.583450,145.993591 
	C121.959618,155.671356 106.333794,156.059113 96.364922,146.867554 
	C85.941177,137.256577 85.235771,122.229012 94.679703,110.966568 
	C99.274384,105.487137 99.155075,101.770920 94.072578,96.637421 
	C87.038818,89.533081 79.971283,82.461700 72.871841,75.422989 
	C67.569336,70.165840 62.959587,70.198532 57.925091,75.737137 
	C42.177025,93.062050 35.236320,113.320671 37.763657,136.730911 
	C42.644711,181.943192 86.893898,213.281570 130.852280,202.357758 
	C159.147858,195.326218 178.271729,177.651566 186.562408,149.855225 
	C195.175140,120.979172 187.970810,95.192207 167.029480,73.553772 
	C153.247452,59.312954 139.023483,45.499821 124.493294,30.996548 
M95.406250,49.989540 
	C91.922401,47.088493 88.125633,46.703144 84.481789,49.341312 
	C81.429871,51.550919 80.225983,54.767998 81.507744,58.544163 
	C83.181267,63.474487 88.502159,65.756729 93.166145,63.599155 
	C97.972641,61.375652 99.068878,56.240860 95.406250,49.989540 
z"/>
<path fill="#08D45F" opacity="1.000000" stroke="none" 
	d="
M124.745361,31.245861 
	C139.023483,45.499821 153.247452,59.312954 167.029480,73.553772 
	C187.970810,95.192207 195.175140,120.979172 186.562408,149.855225 
	C178.271729,177.651566 159.147858,195.326218 130.852280,202.357758 
	C86.893898,213.281570 42.644711,181.943192 37.763657,136.730911 
	C35.236320,113.320671 42.177025,93.062050 57.925091,75.737137 
	C62.959587,70.198532 67.569336,70.165840 72.871841,75.422989 
	C79.971283,82.461700 87.038818,89.533081 94.072578,96.637421 
	C99.155075,101.770920 99.274384,105.487137 94.679703,110.966568 
	C85.235771,122.229012 85.941177,137.256577 96.364922,146.867554 
	C106.333794,156.059113 121.959618,155.671356 131.583450,145.993591 
	C141.527496,135.993820 141.646866,120.775925 131.524719,110.090080 
	C123.850540,101.988541 115.778648,94.264664 107.929573,86.327393 
	C104.921783,83.285812 104.035378,79.718803 106.244591,75.869987 
	C108.331108,72.234940 111.758453,71.008217 115.656647,72.033211 
	C117.457932,72.506851 119.203781,73.836197 120.578003,75.182541 
	C128.432053,82.877296 136.281754,90.582863 143.917633,98.492592 
	C159.206284,114.329544 160.024475,138.568741 146.000900,155.334915 
	C132.286224,171.731781 107.939575,175.200211 90.002502,163.312469 
	C72.113182,151.456390 66.068626,128.011520 75.899727,108.589157 
	C76.566017,107.272827 77.280518,105.980904 77.903145,104.808395 
	C73.896553,100.783844 70.046379,96.916412 65.850052,92.701271 
	C56.786526,104.921913 52.919613,118.531593 54.300266,133.437775 
	C56.843960,160.900818 78.641342,183.738617 104.873970,186.929764 
	C133.714569,190.438126 159.953537,175.091934 169.325867,148.316162 
	C177.408600,125.224693 172.785583,104.200645 155.863342,86.499969 
	C140.553864,70.486259 124.557175,55.131084 109.082794,39.271580 
	C107.073578,37.212360 105.240021,33.851994 105.294693,31.133947 
	C105.425690,24.622183 113.489029,21.405319 118.750610,25.444988 
	C120.848793,27.055912 122.589729,29.132141 124.745361,31.245861 
z"/>
<path fill="#0CD560" opacity="1.000000" stroke="none" 
	d="
M95.677780,50.276157 
	C99.068878,56.240860 97.972641,61.375652 93.166145,63.599155 
	C88.502159,65.756729 83.181267,63.474487 81.507744,58.544163 
	C80.225983,54.767998 81.429871,51.550919 84.481789,49.341312 
	C88.125633,46.703144 91.922401,47.088493 95.677780,50.276157 
z"/>
</svg>