<svg version="1.1" id="Layer_1" xmlns="http://www.w3.org/2000/svg" xmlns:xlink="http://www.w3.org/1999/xlink" x="0px" y="0px"
	 width="100%" viewBox="0 0 516 344" enable-background="new 0 0 516 344" xml:space="preserve">
<path fill="#FFFFFF" opacity="1.000000" stroke="none" 
	d="
M488.000000,345.000000 
	C326.833374,345.000000 166.166748,344.984802 5.500207,345.093903 
	C1.751164,345.096436 0.901532,344.250092 0.905434,340.500061 
	C1.021814,228.666870 1.020124,116.833527 0.904717,5.000345 
	C0.901184,1.576903 1.575619,0.903137 4.999812,0.905322 
	C174.333008,1.013345 343.666290,1.013326 512.999512,0.905412 
	C516.422302,0.903231 517.098877,1.574862 517.095398,4.999696 
	C516.979858,116.999550 516.979919,228.999557 517.095276,340.999420 
	C517.098816,344.422333 516.445129,345.239777 512.996399,345.103455 
	C504.842285,344.781219 496.666840,345.000000 488.000000,345.000000 
z"/>
<path fill="#383838" opacity="1.000000" stroke="none" 
	d="
M275.817566,178.410522 
	C275.813141,182.528259 275.598480,186.205658 275.871552,189.846466 
	C276.152588,193.593216 273.837646,193.308899 271.430573,193.247620 
	C269.169434,193.190048 266.656494,193.904556 266.878967,189.987793 
	C267.152252,185.177032 266.982697,180.338486 266.931396,175.512741 
	C266.890625,171.677383 266.531158,167.913116 261.466614,167.599899 
	C257.699677,167.366928 255.007187,170.283661 254.697479,175.297256 
	C254.400406,180.106064 254.314529,184.955505 254.577332,189.762955 
	C254.806091,193.947800 252.114731,193.100388 249.702576,193.271591 
	C246.981033,193.464737 245.409256,193.084488 245.510101,189.633804 
	C245.757935,181.153397 245.551971,172.660522 245.631699,164.173630 
	C245.645401,162.713486 244.774063,160.326584 247.356857,160.299011 
	C249.475235,160.276382 252.551849,158.733765 253.603363,161.484131 
	C254.612564,164.123840 255.190231,162.977020 256.516632,162.071808 
	C262.595032,157.923553 266.774200,158.023300 272.705933,162.804413 
	C274.297119,164.086945 275.130920,163.913254 276.412598,162.736862 
	C280.828888,158.683380 286.001526,158.028046 291.233002,160.458771 
	C296.465149,162.889771 297.411499,167.872620 297.377136,173.130478 
	C297.342346,178.455795 297.111847,183.799026 297.464691,189.101303 
	C297.721619,192.962540 295.974182,193.264069 292.821472,193.350067 
	C289.288940,193.446426 288.163727,192.334396 288.391693,188.831940 
	C288.682953,184.357498 288.494812,179.849289 288.449158,175.356293 
	C288.412262,171.724930 288.194244,167.937653 283.394226,167.649628 
	C278.828735,167.375687 277.064545,170.598648 276.238495,174.492203 
	C275.998230,175.624695 275.955017,176.798981 275.817566,178.410522 
z"/>
<path fill="#3B3B3B" opacity="1.000000" stroke="none" 
	d="
M399.075012,207.183044 
	C398.030884,207.667816 397.209625,207.753860 396.398071,207.895599 
	C391.807281,208.697403 390.074249,207.249054 390.243042,202.166031 
	C390.656921,189.702103 390.347900,177.215027 390.419647,164.737778 
	C390.428314,163.225357 389.507690,160.844406 391.630463,160.424622 
	C393.886017,159.978577 396.853485,158.972733 398.554901,161.293045 
	C399.812073,163.007523 400.433167,162.320374 401.647125,161.653549 
	C410.980896,156.526428 420.857666,160.456985 424.384308,170.652802 
	C428.517975,182.603470 419.923096,195.018036 408.022339,194.211670 
	C406.562469,194.112747 404.910461,193.906799 403.731689,193.151093 
	C400.115082,190.832474 399.050934,191.639389 399.387512,195.846817 
	C399.677826,199.475708 399.354401,203.153717 399.075012,207.183044 
z"/>
<path fill="#373737" opacity="1.000000" stroke="none" 
	d="
M429.611755,173.019379 
	C429.611359,170.191986 429.451874,167.846252 429.661224,165.533905 
	C429.824432,163.731430 428.468079,160.870483 431.125610,160.430695 
	C433.385834,160.056656 436.481476,158.611115 438.262268,161.685379 
	C439.355591,163.572815 440.126617,162.108490 440.984100,161.634949 
	C448.202423,157.648865 455.895111,158.971161 460.596863,165.030380 
	C466.226746,172.285690 465.899506,182.911957 459.846771,189.382568 
	C454.458954,195.142365 446.916992,195.832458 440.057159,191.214035 
	C439.825256,191.057892 439.457031,191.104233 438.496094,190.952713 
	C438.496094,195.412506 438.225403,199.814926 438.576233,204.167236 
	C438.893524,208.103668 436.667297,207.867905 433.994904,207.934372 
	C431.094360,208.006516 429.429321,207.661453 429.521027,203.987320 
	C429.774414,193.835587 429.610504,183.673447 429.611755,173.019379 
z"/>
<path fill="#3A3A3A" opacity="1.000000" stroke="none" 
	d="
M354.460327,166.472443 
	C356.052582,161.226028 360.500031,160.136993 364.857452,159.481476 
	C374.912811,157.968811 384.761047,161.898392 383.904358,175.302673 
	C383.639923,179.440155 383.865540,183.608871 383.863739,187.763275 
	C383.861420,193.066116 380.426300,195.550995 375.843201,192.703781 
	C373.434204,191.207214 372.510010,192.155518 370.862610,192.990952 
	C365.419434,195.751297 357.899323,194.042908 354.719269,189.385849 
	C350.248291,182.838303 353.754852,174.376190 361.850220,172.270767 
	C364.959747,171.462067 368.102020,171.643417 371.253937,172.149048 
	C372.295563,172.316147 373.754669,173.204834 374.342926,171.751907 
	C374.876709,170.433472 374.021729,169.164185 372.921356,168.294174 
	C370.122009,166.080933 366.238922,165.747833 364.059113,167.568726 
	C360.112213,170.865738 357.614197,168.874893 354.460327,166.472443 
z"/>
<path fill="#393939" opacity="1.000000" stroke="none" 
	d="
M184.738800,162.676544 
	C192.828598,157.821030 201.148529,158.105118 207.336273,163.244247 
	C212.642685,167.651398 214.840683,176.505692 212.133408,183.329346 
	C209.505188,189.953720 204.583817,193.663483 197.410629,194.232681 
	C189.929688,194.826340 183.766068,192.230057 180.277725,185.544312 
	C176.919037,179.107025 177.293289,172.366028 181.386490,166.137222 
	C182.192596,164.910583 183.406799,163.952118 184.738800,162.676544 
z"/>
<path fill="#3A3A3A" opacity="1.000000" stroke="none" 
	d="
M325.326599,174.666290 
	C329.790955,176.920258 331.984558,180.179977 331.237488,184.904282 
	C330.505432,189.533722 327.340027,192.037613 323.124847,193.421188 
	C316.224487,195.686111 308.197083,193.792084 304.426392,188.868546 
	C303.442566,187.583893 301.149445,185.663605 303.537018,184.362350 
	C305.637238,183.217697 308.298309,180.111649 310.974548,183.160660 
	C313.091125,185.572083 315.422241,186.446350 318.421875,186.174438 
	C319.953949,186.035553 321.555908,185.831512 321.910187,184.001419 
	C322.324982,181.859116 320.642944,181.043320 319.073944,180.547592 
	C316.550995,179.750504 313.922546,179.294281 311.373840,178.570343 
	C306.620026,177.220062 303.381592,174.397278 303.363037,169.128311 
	C303.346649,164.469772 306.694000,161.113495 312.209778,159.779022 
	C317.281952,158.551895 322.181976,158.972229 326.546478,161.923004 
	C328.283478,163.097366 331.548798,164.825439 329.560425,167.064026 
	C328.083099,168.727264 324.897491,171.366364 321.767090,168.493530 
	C319.842041,166.726852 317.571869,166.704880 315.222656,166.910980 
	C313.851288,167.031296 312.464081,167.359146 312.314087,169.019974 
	C312.183929,170.460602 313.425964,170.945847 314.529114,171.300354 
	C318.000366,172.415848 321.492798,173.465439 325.326599,174.666290 
z"/>
<path fill="#393939" opacity="1.000000" stroke="none" 
	d="
M173.458099,160.156921 
	C178.158844,160.770660 175.897949,164.069885 176.100403,166.096069 
	C176.363449,168.728561 173.876450,168.124390 172.444427,167.958130 
	C168.744064,167.528549 167.994293,169.225967 168.129959,172.543488 
	C168.367661,178.356430 167.995468,184.195663 168.270798,190.005295 
	C168.456284,193.919128 165.992798,193.282593 163.739212,193.231064 
	C161.583817,193.181778 158.940186,194.123581 159.096756,190.116272 
	C159.336884,183.970291 159.108383,177.807343 159.189606,171.653076 
	C159.219620,169.379425 158.983643,167.643539 156.049103,168.009552 
	C152.994995,168.390488 152.977997,166.357788 153.073853,164.205093 
	C153.161484,162.236877 152.701050,159.821716 155.882126,160.183563 
	C159.176041,160.558273 159.115204,158.618164 159.216003,156.230957 
	C159.556778,148.160645 166.534225,142.863281 174.295639,144.743713 
	C175.653870,145.072769 178.402496,144.664627 177.601151,147.245224 
	C176.923950,149.426086 177.727722,153.004990 173.732941,153.144211 
	C173.566956,153.149994 173.399948,153.143631 173.234100,153.132645 
	C169.949768,152.914841 168.159943,154.356720 168.218964,157.741302 
	C168.285156,161.537552 171.260696,159.656403 173.458099,160.156921 
z"/>
<path fill="#4E4E4F" opacity="1.000000" stroke="none" 
	d="
M104.020576,192.873520 
	C95.849251,194.228531 87.862633,193.755096 79.898926,193.528519 
	C75.842293,193.413086 73.451057,190.688461 73.402756,186.664703 
	C73.258858,174.678345 73.222694,162.687134 73.416504,150.702209 
	C73.484894,146.472931 76.008530,143.921616 80.450684,143.904343 
	C92.105804,143.859009 103.761765,143.818634 115.416214,143.916412 
	C120.248192,143.956940 122.639114,146.417969 122.816223,151.406769 
	C122.981529,156.063232 122.863518,160.729752 122.914398,165.881378 
	C122.989044,169.284348 121.617691,170.224167 118.610870,168.908798 
	C116.780579,164.180954 117.715965,159.644089 117.500877,155.183014 
	C117.232224,149.611206 116.487976,148.634506 111.126488,148.554764 
	C102.301392,148.423492 93.472267,148.408035 84.647591,148.563004 
	C79.545830,148.652603 78.618027,149.631973 78.550682,154.893631 
	C78.431335,164.218719 78.579933,173.546707 78.486748,182.871689 
	C78.446716,186.877930 80.037437,188.627533 84.108910,188.524933 
	C88.765556,188.407578 93.433968,188.364136 98.532722,188.636276 
	C101.453339,188.936020 103.595825,189.679932 104.020576,192.873520 
z"/>
<path fill="#3C3C3C" opacity="1.000000" stroke="none" 
	d="
M217.927216,179.978882 
	C217.926422,174.321671 217.887741,169.159943 217.949417,163.999420 
	C217.965942,162.616806 217.350021,160.471771 219.434448,160.348282 
	C221.699585,160.214050 224.978943,158.729416 226.121307,161.446411 
	C227.452377,164.612228 228.333633,162.728683 229.448502,161.787231 
	C231.169266,160.334137 233.172974,159.425034 235.333389,159.299225 
	C237.489258,159.173676 240.362595,158.407593 241.102997,161.526505 
	C241.843979,164.647827 238.908020,168.000244 235.776016,167.884003 
	C230.957657,167.705215 228.361908,170.005096 227.478333,174.648300 
	C226.533325,179.614410 226.906570,184.623367 227.093155,189.585083 
	C227.242935,193.567703 225.007217,193.269394 222.372498,193.298874 
	C219.629089,193.329575 217.397690,193.355453 217.853943,189.457443 
	C218.199966,186.500885 217.925400,183.471695 217.927216,179.978882 
z"/>
<path fill="#58C3DC" opacity="1.000000" stroke="none" 
	d="
M104.120789,193.469910 
	C103.672791,191.533401 102.415604,190.843399 100.785706,190.151855 
	C97.580826,189.051392 95.433563,186.995239 93.529823,184.667496 
	C88.525719,178.548828 91.814316,169.525864 99.575363,168.045898 
	C101.811119,167.619583 103.792458,168.195847 105.648811,169.543503 
	C112.653435,174.628738 112.669121,174.607132 119.137207,169.027527 
	C121.520203,169.710815 122.049019,168.236420 122.808701,166.626556 
	C125.942650,166.495255 126.737320,167.599655 124.493057,169.935608 
	C122.646431,171.857666 120.735023,173.717667 118.845772,175.598587 
	C113.471840,180.948807 111.101311,181.026291 105.548546,175.581650 
	C102.900940,172.985596 100.641129,171.038727 97.356987,174.785385 
	C95.312149,177.118210 95.132561,179.320633 97.152550,181.410599 
	C101.544380,185.954514 106.158127,190.283005 110.620872,194.759659 
	C112.917839,197.063766 115.018158,196.640503 117.102341,194.561615 
	C124.296951,187.385208 131.443100,180.159698 138.686340,173.032822 
	C141.949005,169.822571 140.110352,167.511597 137.739578,165.000351 
	C136.746353,163.948288 134.265503,162.874878 136.031372,161.072723 
	C137.834488,159.232544 138.917953,161.770081 139.951965,162.730164 
	C145.512024,167.892593 145.530960,170.701492 140.252686,175.996719 
	C133.900436,182.369354 127.549911,188.743881 121.167061,195.085800 
	C114.717865,201.493637 112.505249,201.461365 105.935455,195.000809 
	C105.461494,194.534683 104.936195,194.120773 104.120789,193.469910 
z"/>
<path fill="#4AC1DC" opacity="1.000000" stroke="none" 
	d="
M347.213104,184.986801 
	C348.561890,188.911865 347.546417,191.691391 343.974701,192.948364 
	C340.761292,194.079239 338.188385,192.910950 336.479584,189.806870 
	C334.814728,186.782623 336.188751,184.444641 338.446106,182.955246 
	C341.577606,180.889114 344.762421,181.198639 347.213104,184.986801 
z"/>
<path fill="#F5F5F5" opacity="1.000000" stroke="none" 
	d="
M399.559753,172.948303 
	C403.044189,167.810303 407.361053,166.305328 411.498932,168.454376 
	C415.220825,170.387390 417.042908,175.199585 415.751556,179.685684 
	C414.521790,183.957840 410.620605,186.558044 406.275238,186.001816 
	C400.835876,185.305573 398.140717,180.320908 399.559753,172.948303 
z"/>
<path fill="#F4F4F4" opacity="1.000000" stroke="none" 
	d="
M455.419495,178.449615 
	C453.311737,184.571686 449.379089,187.158600 444.644714,185.878891 
	C440.257721,184.693054 437.507965,179.930786 438.285950,174.866119 
	C438.953217,170.522079 443.169952,167.130112 447.475494,167.473923 
	C452.510956,167.876053 455.361969,171.652832 455.419495,178.449615 
z"/>
<path fill="#EEEEEE" opacity="1.000000" stroke="none" 
	d="
M374.079803,179.698120 
	C374.174805,185.412445 369.608215,188.771988 364.823975,186.910263 
	C363.200897,186.278656 362.001404,185.178848 361.923706,183.258087 
	C361.849121,181.415451 362.657593,180.088135 364.271576,179.221451 
	C367.489716,177.493378 370.648407,178.028793 374.079803,179.698120 
z"/>
<path fill="#F4F4F4" opacity="1.000000" stroke="none" 
	d="
M202.379272,170.882141 
	C203.034027,172.078659 203.574234,172.942642 203.807236,173.882767 
	C205.099869,179.097885 203.024170,183.843292 198.771347,185.572296 
	C195.137238,187.049789 190.486649,185.414032 188.374100,181.915283 
	C185.992172,177.970383 187.005783,171.977661 190.524719,169.200577 
	C194.019653,166.442429 197.928864,166.908981 202.379272,170.882141 
z"/>
<path fill="#FDFEFE" opacity="1.000000" stroke="none" 
	d="
M119.548874,168.529053 
	C119.199104,170.528961 118.218727,171.618164 117.178009,172.717133 
	C113.062622,177.062881 111.735741,177.118469 107.470001,172.984161 
	C101.792976,167.482056 99.682655,167.596664 94.461540,173.150040 
	C91.189842,176.629959 91.497604,179.937393 94.352318,183.284866 
	C96.176323,185.423737 98.219795,187.375443 100.345383,189.728714 
	C94.048904,190.111755 87.570839,190.126526 81.095375,190.263901 
	C77.854042,190.332642 76.672798,188.733704 76.684059,185.684967 
	C76.725815,174.383682 76.719963,163.082077 76.688431,151.780731 
	C76.679169,148.460541 78.118401,147.035110 81.541573,147.072098 
	C92.509377,147.190628 103.480400,147.205399 114.447716,147.065857 
	C118.132362,147.018997 119.598450,148.634964 119.583458,152.105209 
	C119.560471,157.423431 119.578918,162.741852 119.548874,168.529053 
z"/>
</svg>