<svg version="1.1" id="Layer_1" xmlns="http://www.w3.org/2000/svg" xmlns:xlink="http://www.w3.org/1999/xlink" x="0px" y="0px"
	 width="100%" viewBox="0 0 493 360" enable-background="new 0 0 493 360" xml:space="preserve">
<path fill="#0E202E" opacity="1.000000" stroke="none" 
	d="
M270.000000,361.000000 
	C180.000015,361.000000 90.500023,361.000000 1.000024,361.000000 
	C1.000016,241.000031 1.000016,121.000053 1.000008,1.000056 
	C165.333298,1.000037 329.666595,1.000037 493.999908,1.000019 
	C493.999939,120.999939 493.999939,240.999878 493.999969,360.999908 
	C419.500000,361.000000 345.000000,361.000000 270.000000,361.000000 
M202.499008,164.316193 
	C202.327072,164.331268 202.155136,164.346329 201.065796,164.170959 
	C191.509155,163.885818 181.953094,163.506348 172.395065,163.447174 
	C171.323715,163.440536 170.241135,165.248871 169.163773,166.215546 
	C170.338669,167.073517 171.441147,168.499084 172.704926,168.660309 
	C174.747238,168.920837 176.895630,168.349777 179.013199,168.983688 
	C179.082748,170.119705 179.152313,171.255737 179.296341,172.673126 
	C179.296341,172.673126 179.154236,172.927139 178.765915,173.467651 
	C178.911209,174.677994 179.056519,175.888321 179.394836,178.004547 
	C179.526596,182.999344 179.658356,187.994156 179.445099,192.974487 
	C179.445099,192.974487 179.100159,192.990402 178.684204,193.659729 
	C178.834641,196.466751 178.985062,199.273758 179.318787,202.899979 
	C179.261871,204.571198 179.204941,206.242401 178.735962,208.505386 
	C178.491425,209.667130 178.246887,210.828857 177.745667,212.608459 
	C177.055740,216.242249 176.019104,220.715485 180.568100,221.863037 
	C184.492889,222.853088 185.021683,224.589920 185.098938,227.909073 
	C185.190521,231.844437 187.573303,232.941574 191.166489,231.047409 
	C193.785751,229.666672 196.386612,228.251083 199.660446,226.726227 
	C200.108444,226.760086 200.556458,226.793945 201.667404,227.268387 
	C204.421326,227.738724 207.175247,228.209061 209.929169,228.679398 
	C209.922516,229.114151 209.915878,229.548920 209.909225,229.983688 
	C207.622543,230.486649 205.335876,230.989594 203.049194,231.492554 
	C206.684692,231.999390 210.302643,231.975723 213.920181,232.004013 
	C223.171280,232.076340 232.819611,230.056870 239.989212,238.871597 
	C242.525665,241.990051 245.681152,241.335556 246.610199,236.838226 
	C247.061752,234.652466 247.005722,232.361832 247.176575,230.156006 
	C251.329956,232.280655 274.020233,232.919662 280.271515,230.773544 
	C277.536346,230.202728 275.417175,229.760468 273.297974,229.318207 
	C273.365509,228.824493 273.433014,228.330780 273.500519,227.837067 
	C279.107880,227.837067 284.715210,227.837067 290.804779,227.715134 
	C291.720398,226.433640 292.635986,225.152130 293.551605,223.870621 
	C292.507263,223.268204 291.456482,222.132675 290.419556,222.145218 
	C279.197327,222.281036 267.973907,222.505249 256.758484,222.915237 
	C252.939636,223.054825 251.300598,221.761612 251.530441,217.825455 
	C251.702759,214.874786 251.348083,211.893326 251.336227,208.099426 
	C251.267136,206.715454 251.198044,205.331482 251.307434,203.226379 
	C251.284149,202.239166 251.260849,201.251953 251.491623,199.909668 
	C251.594803,199.638931 251.681152,199.362930 252.455643,198.859589 
	C253.894623,198.292358 255.333603,197.725128 257.075134,197.038635 
	C257.377991,198.627136 257.609528,199.841583 257.663116,201.918945 
	C257.734222,204.260635 257.805328,206.602310 257.724609,209.607391 
	C257.800385,211.587738 257.876129,213.568085 258.800568,215.991669 
	C265.793121,215.991669 272.785675,215.991669 281.114136,215.991669 
	C274.805725,210.176147 267.245453,214.659424 260.889465,211.797852 
	C260.889465,207.930679 260.889465,203.975143 261.023621,199.216660 
	C261.265472,193.682327 268.694336,185.437271 274.867981,184.931870 
	C276.886749,184.885864 278.905518,184.839844 281.811096,184.966843 
	C283.747467,185.067902 285.683807,185.168961 288.387573,185.310074 
	C288.096069,190.964020 287.756714,196.191040 287.610321,201.423462 
	C287.577484,202.597839 287.904816,204.098251 288.658630,204.870117 
	C289.180664,205.404663 291.196503,205.377563 291.690460,204.830261 
	C292.415863,204.026489 292.629333,202.530289 292.611816,201.335678 
	C292.578278,199.048615 292.185577,196.769333 292.019440,194.481186 
	C291.712189,190.250000 291.460876,186.014740 290.263214,181.526413 
	C289.319916,181.639938 288.376617,181.753479 287.056061,181.457413 
	C286.560303,181.585876 286.064575,181.714340 284.627075,181.511810 
	C281.799561,181.550919 278.972076,181.590012 275.496368,181.384140 
	C274.811005,180.657547 273.478882,179.866531 273.543823,179.214661 
	C274.012512,174.508362 277.832672,175.235367 281.901398,175.102066 
	C286.930389,175.044830 291.959381,174.987595 297.720490,175.445435 
	C298.010864,178.209473 298.564819,180.975525 298.543671,183.737183 
	C298.471558,193.160370 298.197021,202.582001 297.669952,212.562943 
	C298.378876,214.122574 299.087799,215.682205 299.796753,217.241821 
	C300.518738,216.635712 301.240753,216.029587 302.574005,215.188950 
	C302.787323,215.143066 303.000671,215.097168 303.481018,214.931427 
	C303.594177,214.832413 303.815247,214.661926 303.804169,214.645187 
	C303.656677,214.422455 303.476593,214.221268 302.878845,213.276855 
	C302.609894,211.346848 302.120300,209.418152 302.108826,207.486618 
	C302.048065,197.247543 302.166992,187.007156 302.063507,176.768845 
	C302.047241,175.158463 301.211945,173.556351 300.261963,171.822296 
	C299.235748,171.856979 298.209534,171.891663 297.063202,171.853165 
	C297.063202,171.853165 296.988708,171.972427 296.066254,171.836197 
	C291.373749,171.877029 286.681244,171.917877 281.509064,171.849838 
	C281.509064,171.849838 281.026550,171.945251 280.370087,171.790894 
	C279.926575,171.841095 279.483093,171.891296 278.316345,171.751572 
	C277.602722,170.932251 276.889099,170.112946 276.175476,169.293640 
	C277.775391,168.782974 279.375275,168.272324 281.897949,167.937988 
	C290.949585,168.229279 300.000305,168.563889 309.054108,168.749298 
	C310.032074,168.769318 311.299561,168.152237 311.925690,167.405502 
	C312.392822,166.848450 312.429169,165.169434 311.970947,164.762039 
	C311.122559,164.007751 309.767120,163.451721 308.630920,163.465698 
	C305.696167,163.501770 302.769531,164.037491 299.832886,164.113983 
	C293.226501,164.286057 286.615967,164.300919 279.111603,164.272629 
	C278.212677,164.204926 277.313751,164.137222 276.364380,163.682785 
	C276.310638,163.425369 276.209747,163.188019 276.167145,162.213928 
	C279.096313,161.548630 282.025513,160.883316 285.739685,160.444489 
	C291.011322,160.444489 296.282959,160.444489 301.841736,160.444489 
	C301.841736,145.027817 301.841736,130.142792 301.841736,115.264656 
	C300.650238,114.871689 299.486420,114.487869 298.371490,114.120155 
	C298.051025,114.718361 297.756836,115.009239 297.762665,115.293983 
	C298.017548,127.718071 298.215454,140.144394 298.629028,152.563492 
	C298.750305,156.204376 297.202454,157.156586 293.886566,156.953339 
	C290.914459,156.771164 287.914581,157.042068 284.053589,157.003891 
	C280.755615,156.010864 276.149963,159.208633 274.081177,153.089508 
	C274.482849,152.046082 274.884491,151.002640 275.911102,150.102844 
	C277.946136,150.053452 279.981140,150.004044 282.921997,150.047165 
	C284.910034,150.051926 286.981079,150.396210 288.855988,149.937988 
	C290.039185,149.648819 291.783112,148.187973 291.815094,147.205093 
	C292.061646,139.635651 291.950775,132.054565 291.950775,124.311729 
	C287.942627,123.737740 286.952362,124.206535 287.591125,128.669647 
	C288.426697,134.508087 287.323425,140.624023 286.202423,146.408524 
	C282.837921,146.485138 279.473419,146.561752 275.355530,146.543015 
	C274.851257,146.574722 274.347015,146.606430 273.188019,146.398895 
	C272.496033,146.386353 271.804077,146.373825 270.622101,145.847778 
	C268.610870,143.512466 266.570099,141.201752 264.597687,138.834137 
	C263.004517,136.921753 261.493713,134.940720 260.090820,132.253922 
	C260.040192,131.508942 259.989563,130.763977 260.046906,129.504547 
	C260.009705,129.333328 259.972473,129.162094 260.082764,128.115265 
	C260.038269,125.748917 259.993805,123.382576 260.110535,120.217964 
	C259.946625,116.764343 262.492188,117.366928 264.569366,117.212952 
	C269.709473,116.831932 274.847321,116.419975 280.638214,115.995667 
	C281.602081,115.659447 282.565948,115.323227 283.529816,114.987015 
	C283.349945,114.641098 283.170105,114.295189 282.990265,113.949280 
	C281.986206,114.637482 280.982178,115.325684 279.340851,115.573654 
	C278.569427,115.048325 277.797974,114.522987 276.659180,113.908401 
	C275.713684,113.929031 274.768158,113.949661 272.789642,113.873611 
	C267.534210,113.934875 262.278778,113.996140 256.670990,114.113503 
	C256.806763,114.078522 256.942535,114.043541 256.917664,114.546295 
	C256.948059,114.730881 256.978455,114.915466 256.900177,115.517227 
	C256.900177,115.517227 256.985199,115.939850 256.817352,116.653297 
	C256.872620,117.135956 256.927887,117.618607 256.881683,118.509789 
	C256.881683,118.509789 256.978027,118.919556 256.860168,119.458633 
	C256.898224,119.638596 256.936249,119.818550 256.817017,120.886681 
	C256.860107,123.590874 256.903168,126.295074 256.773407,129.688568 
	C256.562958,130.707428 256.352509,131.726288 256.105652,132.921463 
	C253.548218,132.029053 251.421677,131.287003 248.833206,130.383759 
	C248.833206,126.940750 248.833206,123.512718 248.954681,119.151520 
	C248.952896,115.400543 248.951096,111.649567 249.542999,107.461044 
	C262.973999,107.614296 276.404846,107.796906 289.836273,107.869064 
	C291.000427,107.875320 292.373199,107.399628 293.253357,106.670258 
	C293.734741,106.271362 293.783081,104.426491 293.325989,104.018303 
	C292.477570,103.260612 291.115875,102.728867 289.967377,102.727837 
	C287.500885,102.725616 285.037415,103.269417 282.566681,103.326149 
	C273.427216,103.535995 264.285339,103.638687 254.268982,103.682007 
	C252.517120,103.715912 250.765244,103.749817 248.467178,103.535126 
	C247.741486,104.381935 247.015793,105.228745 246.207321,106.988693 
	C246.260056,111.665405 246.312790,116.342110 246.222778,121.793213 
	C246.222778,124.345161 246.222778,126.897110 246.222778,129.449051 
	C245.744370,129.667496 245.265961,129.885941 244.787537,130.104385 
	C243.969238,129.149948 242.841339,128.318253 242.403107,127.213089 
	C241.694946,125.427277 241.440475,123.461571 241.767914,120.811378 
	C241.872742,115.343086 241.977585,109.874786 242.042542,104.486710 
	C242.042542,104.486710 242.072800,104.510826 242.202560,103.669182 
	C242.495468,100.907875 242.788391,98.146568 243.113800,95.078835 
	C241.610474,94.937965 240.111649,94.797516 238.963837,94.689957 
	C238.963837,103.555557 238.945511,112.072105 239.013412,120.587959 
	C239.017120,121.054924 239.738831,121.516167 240.542572,122.734856 
	C239.465988,125.439003 239.942627,129.341339 234.863297,129.975815 
	C234.863297,126.620789 234.863297,123.853981 235.016785,120.144630 
	C235.016785,114.842606 235.016785,109.540573 235.016785,103.393944 
	C219.728470,103.393944 204.861343,103.393944 189.994217,103.393944 
	C189.825378,103.908401 189.656540,104.422867 189.487701,104.937325 
	C191.268677,105.675674 193.034790,107.005600 194.833191,107.050819 
	C202.977356,107.255608 211.130600,107.079025 219.280609,107.074654 
	C230.586319,107.068596 230.584656,107.082092 231.430527,118.033554 
	C231.455597,118.358124 231.600296,118.673454 231.539032,119.799706 
	C231.499786,121.921303 231.260696,124.062119 231.462509,126.160530 
	C231.894135,130.648392 229.860016,132.347000 225.491333,132.054306 
	C225.309464,130.245972 225.147263,128.633301 225.144028,126.168953 
	C225.100876,124.441887 225.057724,122.714813 225.185776,120.157097 
	C225.120071,118.750702 225.054352,117.344299 225.074890,115.520859 
	C225.074890,115.520859 224.978104,115.106133 224.894958,114.413628 
	C217.434601,113.991531 209.974243,113.569443 202.354691,113.138344 
	C202.264496,114.706375 202.177460,116.219727 202.045349,118.516373 
	C203.697083,117.956398 204.941666,117.534462 206.514709,117.115395 
	C206.514709,117.115395 206.809204,116.969994 207.701385,117.079300 
	C208.000488,117.062134 208.299606,117.044960 208.512741,117.012421 
	C208.512741,117.012421 208.461197,117.020264 209.460098,117.155113 
	C212.478180,117.114716 215.496246,117.074310 218.428833,117.090820 
	C218.428833,117.090820 218.515060,117.040321 219.464737,117.216507 
	C220.106110,117.269775 220.747498,117.323051 221.435333,117.387817 
	C221.435333,117.387817 221.428528,117.476105 221.703156,118.332970 
	C221.807922,119.225510 221.912689,120.118050 221.886276,121.906067 
	C221.937531,124.627441 221.988785,127.348816 221.880524,130.789383 
	C221.446091,132.478439 221.515930,134.616776 220.484726,135.774109 
	C217.096268,139.577118 213.308426,143.024246 209.000504,146.384201 
	C208.049210,146.488800 207.097916,146.593399 205.497665,146.555252 
	C205.058304,146.592758 204.618942,146.630264 203.267929,146.444000 
	C200.011444,146.444000 196.754974,146.444000 192.943390,146.444000 
	C193.309006,139.444168 193.697067,133.357742 193.884171,127.265152 
	C193.920258,126.090179 193.396835,124.715881 192.678375,123.782288 
	C192.354202,123.361046 190.456055,123.438782 190.086014,123.918282 
	C189.386246,124.825081 188.974915,126.188568 188.985977,127.357155 
	C189.004425,129.305847 189.641037,131.246826 189.678711,133.197571 
	C189.783829,138.641861 189.715256,144.089508 189.715256,149.861832 
	C195.149216,149.861832 200.076584,149.861832 205.725357,149.980026 
	C206.328506,150.784180 207.517624,151.647919 207.442856,152.383133 
	C206.797073,158.733856 201.712143,156.542694 197.256195,156.899857 
	C192.792831,156.899857 188.329483,156.899857 183.398132,156.899857 
	C183.398132,142.615875 183.398132,128.878311 183.398132,115.229546 
	C181.614700,114.811287 180.306900,114.504585 178.842209,114.161079 
	C179.027893,118.268608 179.310959,121.873802 179.331146,125.480461 
	C179.388916,135.799500 179.408020,146.119888 179.289368,156.438004 
	C179.256104,159.329315 180.039490,160.764404 183.209167,160.602707 
	C188.183014,160.348969 193.170486,160.362045 199.016418,160.382492 
	C200.872940,161.515320 206.591843,157.739395 203.560013,164.275787 
	C203.377304,164.312958 203.194595,164.350128 202.499008,164.316193 
M196.592697,258.681885 
	C196.092545,258.759186 195.592407,258.836456 194.525513,258.902130 
	C194.336655,258.895874 194.147812,258.889648 193.557312,258.475311 
	C192.749237,257.665924 191.941162,256.856567 191.063507,255.496674 
	C191.040588,255.313141 191.017654,255.129608 190.567444,254.433441 
	C189.249115,254.166183 187.930786,253.898926 186.612457,253.631683 
	C186.605682,254.788055 186.543335,255.947617 186.609329,257.099823 
	C186.664551,258.064362 186.869751,259.020294 186.185822,259.964844 
	C185.614532,262.543640 185.043228,265.122467 184.412582,267.969147 
	C181.744965,267.969147 179.020432,267.969147 176.051010,267.969147 
	C175.774429,265.574432 175.513596,263.316010 175.252747,261.057556 
	C174.906860,261.134705 174.560974,261.211884 174.215088,261.289062 
	C174.979538,265.391296 175.743988,269.493530 176.593048,274.049835 
	C176.875183,274.049835 178.020752,274.029968 179.165421,274.053467 
	C183.179199,274.135803 187.558273,274.774414 187.311722,268.516510 
	C187.309494,268.459503 188.660995,268.349121 189.468521,268.979736 
	C192.548355,272.677856 197.093048,273.677277 201.121765,271.696442 
	C202.175400,271.178406 203.435089,270.969238 204.622940,270.854706 
	C208.452271,270.485535 212.292236,270.226715 216.552826,270.307770 
	C220.014221,272.506683 219.924835,269.411438 220.273392,267.609741 
	C220.916122,264.287323 222.612518,262.483246 226.027847,263.335846 
	C230.079254,264.347229 226.962006,267.078979 227.239212,269.341034 
	C227.239212,269.341034 227.201248,269.665436 227.104034,270.331177 
	C227.066284,270.552246 227.028534,270.773315 226.940247,271.046875 
	C226.940247,271.046875 227.005478,271.008911 227.708038,271.238281 
	C239.515289,271.238281 251.322556,271.238281 263.110413,271.238281 
	C263.591125,264.577301 264.941833,263.485229 269.776764,265.203796 
	C269.291443,266.971588 268.378357,268.738342 268.559448,270.384705 
	C268.634644,271.068481 271.021576,271.875305 272.400574,271.965790 
	C276.135193,272.210754 279.913666,271.870300 283.635590,272.201721 
	C287.021301,272.503204 288.030182,271.416229 286.966522,267.371277 
	C286.981506,265.911102 286.996460,264.450897 287.677826,263.039185 
	C290.461121,264.729126 295.265930,261.963562 296.484467,267.217072 
	C297.581909,271.948486 301.064087,272.306305 305.153168,271.707489 
	C306.622864,271.492279 308.863647,271.595764 309.651245,272.506348 
	C313.529633,276.990326 318.399841,274.953217 322.590637,274.215088 
	C324.376251,273.900604 326.061890,270.213959 326.838593,267.757935 
	C327.627899,265.261993 327.241943,262.394379 327.407532,258.915497 
	C322.625916,255.850967 321.289185,261.969147 317.960480,265.379761 
	C317.031860,263.240326 316.571930,261.710968 315.741364,260.420135 
	C315.108582,259.436676 313.874786,257.946777 313.132019,258.066803 
	C306.472534,259.142731 299.991364,250.587006 293.266693,257.668427 
	C293.122070,257.820709 292.624115,257.595917 292.297150,257.622681 
	C287.265656,258.034210 282.027954,258.139984 281.252258,264.977295 
	C281.231476,265.160492 280.712708,265.287201 280.195038,265.563660 
	C275.762299,262.846863 279.259674,260.559753 281.109619,258.178619 
	C275.313049,258.178619 269.937988,258.180756 264.562897,258.178101 
	C256.645447,258.174194 248.189850,259.961578 242.947800,251.180939 
	C240.374374,257.681854 237.612930,258.585114 233.599258,256.100311 
	C228.839874,256.812805 225.487259,257.460541 222.103653,257.787842 
	C216.746811,258.306030 211.369202,258.609680 205.556534,258.601044 
	C203.382233,258.703613 201.207932,258.806183 198.330673,258.917664 
	C197.862274,258.919922 197.393890,258.922180 196.592697,258.681885 
M189.521912,107.504425 
	C189.521912,107.504425 189.521973,107.479683 189.521912,107.504425 
z"/>
<path fill="#252F39" opacity="1.000000" stroke="none" 
	d="
M226.990784,270.994385 
	C227.028534,270.773315 227.066284,270.552246 227.593002,270.102570 
	C232.860031,269.350189 237.638092,268.826385 242.340027,268.305298 
	C242.263901,268.307953 242.375641,268.125427 242.375641,268.125427 
	C242.375641,268.125427 242.360214,268.369141 241.937103,268.109009 
	C236.725372,268.241638 231.936737,268.634430 227.148117,269.027191 
	C226.962006,267.078979 230.079254,264.347229 226.027847,263.335846 
	C222.612518,262.483246 220.916122,264.287323 220.273392,267.609741 
	C219.924835,269.411438 220.014221,272.506683 216.315216,269.742310 
	C215.126282,267.347137 214.472153,265.260132 213.159195,263.743469 
	C210.733902,260.941895 208.014160,261.501892 205.738113,264.937622 
	C205.281906,265.343597 205.116119,265.682587 204.764496,266.174438 
	C204.065460,266.026886 203.077148,265.529572 203.108200,265.454651 
	C204.009827,263.278595 205.013290,261.144775 206.000381,259.004150 
	C211.369202,258.609680 216.746811,258.306030 222.103653,257.787842 
	C225.487259,257.460541 228.839874,256.812805 233.599258,256.100311 
	C237.612930,258.585114 240.374374,257.681854 242.947800,251.180939 
	C248.189850,259.961578 256.645447,258.174194 264.562897,258.178101 
	C269.937988,258.180756 275.313049,258.178619 281.109619,258.178619 
	C279.259674,260.559753 275.762299,262.846863 280.195038,265.563660 
	C280.712708,265.287201 281.231476,265.160492 281.252258,264.977295 
	C282.027954,258.139984 287.265656,258.034210 292.297150,257.622681 
	C292.624115,257.595917 293.122070,257.820709 293.266693,257.668427 
	C299.991364,250.587006 306.472534,259.142731 313.132019,258.066803 
	C313.874786,257.946777 315.108582,259.436676 315.741364,260.420135 
	C316.571930,261.710968 317.031860,263.240326 317.960480,265.379761 
	C321.289185,261.969147 322.625916,255.850967 327.407532,258.915497 
	C327.241943,262.394379 327.627899,265.261993 326.838593,267.757935 
	C326.061890,270.213959 324.376251,273.900604 322.590637,274.215088 
	C318.399841,274.953217 313.529633,276.990326 309.651245,272.506348 
	C308.863647,271.595764 306.622864,271.492279 305.153168,271.707489 
	C301.064087,272.306305 297.581909,271.948486 296.484467,267.217072 
	C295.265930,261.963562 290.461121,264.729126 287.131348,263.287598 
	C286.695251,265.110809 286.805634,266.685669 286.915985,268.260498 
	C288.030182,271.416229 287.021301,272.503204 283.635590,272.201721 
	C279.913666,271.870300 276.135193,272.210754 272.400574,271.965790 
	C271.021576,271.875305 268.634644,271.068481 268.559448,270.384705 
	C268.378357,268.738342 269.291443,266.971588 269.776764,265.203796 
	C264.941833,263.485229 263.591125,264.577301 263.110413,271.238281 
	C251.322556,271.238281 239.515289,271.238281 227.353867,271.119141 
	C226.999695,271.000000 226.990784,270.994385 226.990784,270.994385 
M245.148987,268.196350 
	C251.728867,270.055786 255.287659,264.152557 260.281403,262.714447 
	C258.830902,262.057495 257.456818,261.435181 256.109772,260.825073 
	C255.366119,264.373962 250.604874,265.375580 245.085144,262.866791 
	C245.085144,264.460693 245.085144,265.919647 245.148987,268.196350 
M236.596069,261.319489 
	C235.910507,260.700256 235.224960,260.081024 234.539413,259.461792 
	C234.222092,260.229858 233.904770,260.997925 233.587433,261.765930 
	C234.509567,261.817444 235.431717,261.868958 236.596069,261.319489 
M234.859344,265.779938 
	C233.987839,265.628204 233.116348,265.476471 232.244843,265.324768 
	C232.238358,265.771942 232.231873,266.219086 232.225388,266.666260 
	C233.095901,266.539459 233.966415,266.412659 234.859344,265.779938 
M273.237122,267.158386 
	C273.082001,267.045105 272.926910,266.931793 272.771820,266.818481 
	C272.869537,266.984131 272.967285,267.149750 273.237122,267.158386 
M282.155273,268.519104 
	C282.229004,268.905609 282.302734,269.292114 282.376495,269.678619 
	C282.504578,269.635406 282.747345,269.570007 282.743896,269.552277 
	C282.667450,269.157898 282.563873,268.768768 282.155273,268.519104 
M243.499435,262.478363 
	C243.499435,262.478363 243.515152,262.521240 243.499435,262.478363 
z"/>
<path fill="#20B3BB" opacity="1.000000" stroke="none" 
	d="
M281.026550,171.945251 
	C281.026550,171.945251 281.509064,171.849838 281.917358,172.067505 
	C285.411377,174.968521 280.683838,173.664932 280.978943,174.924286 
	C277.832672,175.235367 274.012512,174.508362 273.543823,179.214661 
	C273.478882,179.866531 274.811005,180.657547 275.627502,181.764206 
	C275.175873,183.030563 274.593079,183.916855 274.010315,184.803162 
	C268.694336,185.437271 261.265472,193.682327 260.659668,199.746033 
	C259.477478,200.535614 258.659271,200.795822 257.841064,201.056030 
	C257.609528,199.841583 257.377991,198.627136 257.075134,197.038635 
	C255.333603,197.725128 253.894623,198.292358 251.940430,199.124176 
	C251.254654,199.657547 251.192093,199.949524 251.237564,200.264740 
	C251.260849,201.251953 251.284149,202.239166 250.924744,203.715759 
	C249.733521,204.469070 248.924973,204.732986 248.047546,204.616577 
	C247.376709,202.984909 246.774734,201.733566 246.172760,200.482224 
	C245.461227,201.683685 244.441269,202.808365 244.118149,204.106506 
	C243.735336,205.644394 243.953171,207.331787 243.589935,209.047943 
	C242.422913,209.419296 241.576630,209.697083 240.678955,209.539612 
	C240.561752,206.942200 240.644760,204.758759 240.340469,202.630692 
	C240.247955,201.983597 239.155716,201.253433 238.385269,201.029495 
	C238.027634,200.925552 237.060349,201.854691 236.871094,202.469818 
	C236.536102,203.558609 236.584442,204.765350 236.152130,205.937210 
	C234.976990,205.959244 234.122055,205.966797 233.199005,205.563263 
	C233.043274,203.768707 232.955688,202.385223 232.776581,200.654755 
	C230.742722,199.580048 228.800415,198.852325 225.987396,197.798386 
	C225.987396,202.046143 225.987396,205.468475 225.781601,208.635849 
	C224.694305,206.579315 223.812790,204.777740 222.871674,202.561844 
	C222.059723,199.601807 221.916092,196.592300 220.412582,194.618896 
	C218.148605,191.647400 214.933655,189.400467 212.095306,186.892273 
	C212.067657,186.939041 212.168167,186.980362 212.080307,186.695709 
	C211.675934,186.195557 211.359421,185.980072 211.070694,185.858734 
	C211.098495,185.952866 211.281601,185.882080 211.163773,185.630051 
	C210.704483,185.289429 210.363007,185.200821 209.651077,185.051453 
	C208.533386,184.928680 207.786179,184.866653 206.987061,184.659546 
	C206.615860,184.609375 206.296524,184.704315 205.608551,184.849823 
	C204.497986,184.869186 203.756104,184.837982 203.074677,184.522537 
	C203.443604,183.323318 203.752029,182.408325 204.525360,181.437286 
	C206.221985,181.218719 207.453735,181.056213 208.725983,180.831726 
	C208.766495,180.769745 208.745300,180.373581 208.500061,180.053085 
	C206.365555,177.506683 204.476257,175.280777 202.700897,173.189072 
	C203.520401,171.960403 204.498108,170.494537 205.764496,169.197784 
	C207.018387,169.909073 207.983612,170.451248 209.096634,171.327118 
	C213.486526,189.809875 230.219025,199.810150 247.154816,196.600540 
	C262.664825,193.661118 277.808075,176.408997 271.396423,154.929428 
	C272.542969,154.547791 273.366699,154.237015 274.190399,153.926239 
	C276.149963,159.208633 280.755615,156.010864 284.512085,157.446335 
	C284.965271,158.665192 284.959961,159.441589 284.954681,160.218002 
	C282.025513,160.883316 279.096313,161.548630 276.100037,162.792847 
	C276.073303,163.651886 276.200623,163.884476 276.414825,164.069534 
	C277.313751,164.137222 278.212677,164.204926 279.571960,164.620880 
	C280.346588,165.899994 280.660889,166.830841 280.975189,167.761673 
	C279.375275,168.272324 277.775391,168.782974 276.175476,169.293640 
	C276.889099,170.112946 277.602722,170.932251 278.853394,171.988770 
	C279.935822,172.132416 280.481171,172.038834 281.026550,171.945251 
z"/>
<path fill="#27B5C0" opacity="1.000000" stroke="none" 
	d="
M208.948853,170.993439 
	C207.983612,170.451248 207.018387,169.909073 205.781418,168.965744 
	C205.509674,168.564590 205.975067,168.576569 205.750214,168.325409 
	C204.728821,167.715988 203.932266,167.357727 203.100006,166.751740 
	C203.056610,166.337357 203.048920,166.170700 203.239639,165.853226 
	C203.661316,165.264496 203.884598,164.826569 204.107880,164.388626 
	C206.591843,157.739395 200.872940,161.515320 198.536194,160.006927 
	C198.051666,158.782608 198.047363,157.933838 198.043060,157.085068 
	C201.712143,156.542694 206.797073,158.733856 207.442856,152.383133 
	C207.517624,151.647919 206.328506,150.784180 205.297012,149.652863 
	C204.638977,148.439743 204.409271,147.553757 204.179565,146.667770 
	C204.618942,146.630264 205.058304,146.592758 206.073639,146.721283 
	C207.657730,146.794250 208.665878,146.701172 209.674011,146.608109 
	C213.308426,143.024246 217.096268,139.577118 220.484726,135.774109 
	C221.515930,134.616776 221.446091,132.478439 222.162659,130.569183 
	C223.291565,129.239517 224.138321,128.130081 224.985077,127.020630 
	C225.147263,128.633301 225.309464,130.245972 225.491333,132.054306 
	C229.860016,132.347000 231.894135,130.648392 231.462509,126.160530 
	C231.260696,124.062119 231.499786,121.921303 231.928619,119.469131 
	C233.166565,119.788101 234.014923,120.437637 234.863297,121.087173 
	C234.863297,123.853981 234.863297,126.620789 234.863297,129.975815 
	C239.942627,129.341339 239.465988,125.439003 240.453781,122.334167 
	C240.602356,121.859589 240.812149,121.739044 240.994400,121.571831 
	C241.440475,123.461571 241.694946,125.427277 242.403107,127.213089 
	C242.841339,128.318253 243.969238,129.149948 244.787537,130.104385 
	C245.265961,129.885941 245.744370,129.667496 246.222778,129.449051 
	C246.222778,126.897110 246.222778,124.345161 246.612579,121.315727 
	C247.612671,120.587059 248.222931,120.335869 248.833206,120.084686 
	C248.833206,123.512718 248.833206,126.940750 248.833206,130.383759 
	C251.421677,131.287003 253.548218,132.029053 256.105652,132.921463 
	C256.352509,131.726288 256.562958,130.707428 257.233459,129.345123 
	C258.440765,128.998093 259.188019,128.994476 259.935242,128.990875 
	C259.972473,129.162094 260.009705,129.333328 259.839935,129.988876 
	C259.737457,131.312195 259.841919,132.151169 259.946381,132.990158 
	C261.493713,134.940720 263.004517,136.921753 264.597687,138.834137 
	C266.570099,141.201752 268.610870,143.512466 271.054749,146.253555 
	C272.272522,146.652267 273.057648,146.645218 273.842743,146.638153 
	C274.347015,146.606430 274.851257,146.574722 275.881836,146.726837 
	C276.034149,147.926849 275.660156,148.943024 275.286133,149.959198 
	C274.884491,151.002640 274.482849,152.046082 274.135803,153.507874 
	C273.366699,154.237015 272.542969,154.547791 271.261047,154.601242 
	C261.029297,131.895935 234.622559,125.819992 218.198151,142.712708 
	C210.794846,150.327118 205.916092,159.574127 208.948853,170.993439 
z"/>
<path fill="#0E2230" opacity="1.000000" stroke="none" 
	d="
M236.472382,205.922729 
	C236.584442,204.765350 236.536102,203.558609 236.871094,202.469818 
	C237.060349,201.854691 238.027634,200.925552 238.385269,201.029495 
	C239.155716,201.253433 240.247955,201.983597 240.340469,202.630692 
	C240.644760,204.758759 240.561752,206.942200 240.556442,209.929810 
	C240.194870,218.369873 239.786835,225.983932 239.749100,233.599808 
	C239.743851,234.660416 241.561752,235.730042 242.535675,236.795471 
	C243.335968,235.564743 244.777649,234.353821 244.816391,233.099594 
	C244.932739,229.332672 244.501740,225.548843 244.707565,221.814468 
	C245.977890,221.904510 246.824921,221.951721 247.734955,222.413239 
	C247.440002,226.024155 249.216461,226.666077 251.978485,226.642746 
	C262.710114,226.552109 273.443573,226.530396 284.174622,226.644867 
	C286.227936,226.666763 288.273468,227.420807 290.322571,227.837067 
	C284.715210,227.837067 279.107880,227.837067 273.500519,227.837067 
	C273.433014,228.330780 273.365509,228.824493 273.297974,229.318207 
	C275.417175,229.760468 277.536346,230.202728 280.271515,230.773544 
	C274.020233,232.919662 251.329956,232.280655 247.176575,230.156006 
	C247.005722,232.361832 247.061752,234.652466 246.610199,236.838226 
	C245.681152,241.335556 242.525665,241.990051 239.989212,238.871597 
	C232.819611,230.056870 223.171280,232.076340 213.920181,232.004013 
	C210.302643,231.975723 206.684692,231.999390 203.049194,231.492554 
	C205.335876,230.989594 207.622543,230.486649 209.909225,229.983688 
	C209.915878,229.548920 209.922516,229.114151 209.929169,228.679398 
	C207.175247,228.209061 204.421326,227.738724 201.799194,226.971558 
	C211.752380,226.654007 221.576767,226.483292 231.393753,226.680847 
	C235.782013,226.769150 237.693649,225.386658 236.577423,220.440765 
	C236.576706,215.296707 236.524536,210.609711 236.472382,205.922729 
M263.016388,228.012466 
	C261.252380,228.267120 259.488403,228.521774 257.724396,228.776428 
	C257.791565,229.417831 257.858704,230.059235 257.925842,230.700638 
	C260.555542,230.543564 263.185242,230.386490 265.814941,230.229416 
	C265.832977,229.728043 265.851044,229.226685 265.869080,228.725311 
	C265.162933,228.496933 264.456757,228.268555 263.016388,228.012466 
M237.081223,230.502579 
	C237.002136,229.986099 236.923035,229.469620 236.843948,228.953156 
	C236.450653,229.367722 236.057343,229.782272 235.664017,230.196808 
	C236.044739,230.412857 236.425461,230.628906 237.081223,230.502579 
M238.008194,220.761230 
	C238.067398,221.529633 238.126617,222.298035 238.185822,223.066422 
	C238.404938,223.060013 238.624069,223.053589 238.843185,223.047165 
	C238.843185,221.810944 238.843185,220.574707 238.843185,219.338486 
	C238.568741,219.637466 238.294296,219.936447 238.008194,220.761230 
z"/>
<path fill="#0E2230" opacity="1.000000" stroke="none" 
	d="
M225.987396,208.890808 
	C225.987396,205.468475 225.987396,202.046143 225.987396,197.798386 
	C228.800415,198.852325 230.742722,199.580048 232.418945,200.732666 
	C231.434097,202.470413 230.417633,203.705734 230.051910,205.110504 
	C228.915436,209.475586 228.025940,213.904984 226.886597,218.997864 
	C228.432297,218.997864 230.630875,218.997864 232.882111,219.335876 
	C232.901154,220.127502 232.867538,220.581116 232.774017,221.142426 
	C232.633041,221.494125 232.658539,221.729202 232.533203,222.271942 
	C219.201538,222.463104 206.127335,222.308578 193.052750,222.262451 
	C191.898117,222.258362 190.547195,222.723099 189.665726,223.437103 
	C189.216293,223.801102 189.237885,225.674896 189.697937,226.035690 
	C190.591446,226.736420 191.933533,227.100021 193.109863,227.152328 
	C195.063461,227.239197 197.032913,226.970154 198.995682,226.851013 
	C196.386612,228.251083 193.785751,229.666672 191.166489,231.047409 
	C187.573303,232.941574 185.190521,231.844437 185.098938,227.909073 
	C185.021683,224.589920 184.492889,222.853088 180.568100,221.863037 
	C176.019104,220.715485 177.055740,216.242249 178.066025,212.030518 
	C178.662842,210.850204 178.939316,210.247833 179.320679,210.003174 
	C179.655518,211.898804 179.885437,213.436707 180.188187,215.461746 
	C181.691330,214.621597 182.528778,214.153534 183.643356,213.937439 
	C185.925095,217.218826 189.742096,216.667786 192.000107,217.977509 
	C196.973114,220.862015 198.004959,218.636566 199.611694,215.318329 
	C200.179352,216.139832 200.568939,216.679016 200.884979,217.495560 
	C201.959122,220.803070 201.959122,220.803070 205.011963,219.909393 
	C204.334274,219.030685 203.671204,218.170944 203.391449,217.136124 
	C209.046463,216.713348 214.315842,216.352036 219.590378,216.246078 
	C226.548904,216.106277 226.550629,216.192413 225.987396,208.890808 
M196.478958,221.507950 
	C196.478958,221.507950 196.500443,221.553833 196.478958,221.507950 
M209.502899,221.523773 
	C209.502899,221.523773 209.490402,221.486771 209.502899,221.523773 
M216.524185,221.496918 
	C216.524185,221.496918 216.487091,221.509262 216.524185,221.496918 
z"/>
<path fill="#0C1926" opacity="1.000000" stroke="none" 
	d="
M206.028519,264.870636 
	C208.014160,261.501892 210.733902,260.941895 213.159195,263.743469 
	C214.472153,265.260132 215.126282,267.347137 216.102875,269.551086 
	C212.292236,270.226715 208.452271,270.485535 204.622940,270.854706 
	C203.435089,270.969238 202.175400,271.178406 201.121765,271.696442 
	C197.093048,273.677277 192.548355,272.677856 189.593338,268.585999 
	C189.875229,268.239990 190.033630,268.323853 190.188705,268.318085 
	C190.252823,268.315704 190.348862,268.126648 190.364166,268.013580 
	C190.572632,266.473358 190.769516,264.931549 190.780914,264.843506 
	C189.087555,262.660370 188.048050,261.320221 187.008545,259.980042 
	C186.869751,259.020294 186.664551,258.064362 186.609329,257.099823 
	C186.543335,255.947617 186.605682,254.788055 186.612457,253.631683 
	C187.930786,253.898926 189.249115,254.166183 190.546509,254.752884 
	C190.232529,255.377686 189.939499,255.683029 189.646469,255.988388 
	C190.142014,256.007996 190.637558,256.027588 191.133102,256.047180 
	C191.941162,256.856567 192.749237,257.665924 193.508148,258.813019 
	C194.074005,259.776855 194.882736,261.033417 195.268936,260.914734 
	C196.603317,260.504791 197.790451,259.615540 199.033630,258.908752 
	C201.207932,258.806183 203.382233,258.703613 205.778458,258.802612 
	C205.013290,261.144775 204.009827,263.278595 203.108200,265.454651 
	C203.077148,265.529572 204.065460,266.026886 205.055511,266.204102 
	C206.210678,265.928711 206.888992,265.776550 207.727036,265.588562 
	C207.057236,265.305450 206.542877,265.088043 206.028519,264.870636 
z"/>
<path fill="#0E2230" opacity="1.000000" stroke="none" 
	d="
M205.975067,168.576569 
	C205.975067,168.576569 205.509674,168.564590 205.492737,168.796631 
	C204.498108,170.494537 203.520401,171.960403 202.700897,173.189072 
	C204.476257,175.280777 206.365555,177.506683 208.441895,180.176315 
	C208.628967,180.620041 208.685471,180.893723 208.685471,180.893707 
	C207.453735,181.056213 206.221985,181.218719 204.067322,181.337082 
	C199.704254,181.282974 196.244659,181.067047 192.835861,181.389008 
	C191.817795,181.485153 190.941925,183.086655 189.934631,184.445404 
	C189.769669,187.595978 189.670990,190.299622 189.303375,192.781921 
	C188.301224,189.994476 187.567993,187.428345 186.483765,183.633759 
	C185.080612,188.105667 184.156647,191.050369 183.169281,193.548340 
	C183.012817,190.395966 182.919739,187.690369 182.885925,184.534637 
	C182.945206,181.302795 182.945206,178.521088 182.945206,174.849945 
	C188.331909,174.849945 193.083817,174.849945 197.835709,174.849945 
	C197.832260,174.336578 197.828812,173.823212 197.825348,173.309860 
	C191.812866,170.759949 185.520035,171.544037 179.221863,172.391754 
	C179.152313,171.255737 179.082748,170.119705 179.339233,168.502594 
	C180.112274,168.057770 180.559250,168.094040 181.215881,168.444672 
	C187.697708,169.141510 193.967239,169.600189 200.245117,169.821960 
	C201.156769,169.854172 202.108475,168.752380 203.037445,168.069366 
	C203.033234,167.963379 202.951279,167.767700 203.344421,167.818604 
	C204.483398,168.105209 205.229233,168.340881 205.975067,168.576569 
z"/>
<path fill="#059D95" opacity="1.000000" stroke="none" 
	d="
M197.649628,156.992462 
	C198.047363,157.933838 198.051666,158.782608 198.104065,159.946747 
	C193.170486,160.362045 188.183014,160.348969 183.209167,160.602707 
	C180.039490,160.764404 179.256104,159.329315 179.289368,156.438004 
	C179.408020,146.119888 179.388916,135.799500 179.331146,125.480461 
	C179.310959,121.873802 179.027893,118.268608 178.842209,114.161079 
	C180.306900,114.504585 181.614700,114.811287 183.398132,115.229546 
	C183.398132,128.878311 183.398132,142.615875 183.398132,156.899857 
	C188.329483,156.899857 192.792831,156.899857 197.649628,156.992462 
z"/>
<path fill="#04A89E" opacity="1.000000" stroke="none" 
	d="
M285.347168,160.331238 
	C284.959961,159.441589 284.965271,158.665192 284.948761,157.500931 
	C287.914581,157.042068 290.914459,156.771164 293.886566,156.953339 
	C297.202454,157.156586 298.750305,156.204376 298.629028,152.563492 
	C298.215454,140.144394 298.017548,127.718071 297.762665,115.293983 
	C297.756836,115.009239 298.051025,114.718361 298.371490,114.120155 
	C299.486420,114.487869 300.650238,114.871689 301.841736,115.264656 
	C301.841736,130.142792 301.841736,145.027817 301.841736,160.444489 
	C296.282959,160.444489 291.011322,160.444489 285.347168,160.331238 
z"/>
<path fill="#05A59C" opacity="1.000000" stroke="none" 
	d="
M234.940033,120.615906 
	C234.014923,120.437637 233.166565,119.788101 232.003708,119.065826 
	C231.600296,118.673454 231.455597,118.358124 231.430527,118.033554 
	C230.584656,107.082092 230.586319,107.068596 219.280609,107.074654 
	C211.130600,107.079025 202.977356,107.255608 194.833191,107.050819 
	C193.034790,107.005600 191.268677,105.675674 189.487701,104.937325 
	C189.656540,104.422867 189.825378,103.908401 189.994217,103.393944 
	C204.861343,103.393944 219.728470,103.393944 235.016785,103.393944 
	C235.016785,109.540573 235.016785,114.842606 234.940033,120.615906 
z"/>
<path fill="#059A91" opacity="1.000000" stroke="none" 
	d="
M290.563660,227.776108 
	C288.273468,227.420807 286.227936,226.666763 284.174622,226.644867 
	C273.443573,226.530396 262.710114,226.552109 251.978485,226.642746 
	C249.216461,226.666077 247.440002,226.024155 247.793213,222.036758 
	C247.882339,220.491959 247.976181,219.737961 248.395203,218.799805 
	C249.556259,215.385651 250.392136,212.155609 251.228027,208.925583 
	C251.348083,211.893326 251.702759,214.874786 251.530441,217.825455 
	C251.300598,221.761612 252.939636,223.054825 256.758484,222.915237 
	C267.973907,222.505249 279.197327,222.281036 290.419556,222.145218 
	C291.456482,222.132675 292.507263,223.268204 293.551605,223.870621 
	C292.635986,225.152130 291.720398,226.433640 290.563660,227.776108 
z"/>
<path fill="#059A91" opacity="1.000000" stroke="none" 
	d="
M232.833939,221.034744 
	C232.867538,220.581116 232.901154,220.127502 232.945740,218.993439 
	C233.047836,217.858688 233.138947,217.404388 233.485809,217.101013 
	C234.669678,218.467224 235.597839,219.682541 236.525986,220.897842 
	C237.693649,225.386658 235.782013,226.769150 231.393753,226.680847 
	C221.576767,226.483292 211.752380,226.654007 201.467728,226.751282 
	C200.556458,226.793945 200.108444,226.760086 199.328064,226.788620 
	C197.032913,226.970154 195.063461,227.239197 193.109863,227.152328 
	C191.933533,227.100021 190.591446,226.736420 189.697937,226.035690 
	C189.237885,225.674896 189.216293,223.801102 189.665726,223.437103 
	C190.547195,222.723099 191.898117,222.258362 193.052750,222.262451 
	C206.127335,222.308578 219.201538,222.463104 232.583221,222.043671 
	C232.890594,221.498718 232.833939,221.034744 232.833939,221.034744 
z"/>
<path fill="#08A5A1" opacity="1.000000" stroke="none" 
	d="
M203.723755,146.555878 
	C204.409271,147.553757 204.638977,148.439743 204.936310,149.593781 
	C200.076584,149.861832 195.149216,149.861832 189.715256,149.861832 
	C189.715256,144.089508 189.783829,138.641861 189.678711,133.197571 
	C189.641037,131.246826 189.004425,129.305847 188.985977,127.357155 
	C188.974915,126.188568 189.386246,124.825081 190.086014,123.918282 
	C190.456055,123.438782 192.354202,123.361046 192.678375,123.782288 
	C193.396835,124.715881 193.920258,126.090179 193.884171,127.265152 
	C193.697067,133.357742 193.309006,139.444168 192.943390,146.444000 
	C196.754974,146.444000 200.011444,146.444000 203.723755,146.555878 
z"/>
<path fill="#06958C" opacity="1.000000" stroke="none" 
	d="
M246.290100,106.075554 
	C247.015793,105.228745 247.741486,104.381935 248.969498,103.931030 
	C251.538315,105.972481 253.544601,106.991730 255.144348,103.781662 
	C264.285339,103.638687 273.427216,103.535995 282.566681,103.326149 
	C285.037415,103.269417 287.500885,102.725616 289.967377,102.727837 
	C291.115875,102.728867 292.477570,103.260612 293.325989,104.018303 
	C293.783081,104.426491 293.734741,106.271362 293.253357,106.670258 
	C292.373199,107.399628 291.000427,107.875320 289.836273,107.869064 
	C276.404846,107.796906 262.973999,107.614296 249.126404,107.411819 
	C247.903244,106.933571 247.096664,106.504562 246.290100,106.075554 
z"/>
<path fill="#04A89E" opacity="1.000000" stroke="none" 
	d="
M303.214050,215.051285 
	C303.000671,215.097168 302.787323,215.143066 301.996765,215.088562 
	C300.279602,213.993515 299.139679,212.998871 297.999756,212.004227 
	C298.197021,202.582001 298.471558,193.160370 298.543671,183.737183 
	C298.564819,180.975525 298.010864,178.209473 297.354889,174.818146 
	C296.989105,173.451385 296.988892,172.711914 296.988708,171.972427 
	C296.988708,171.972427 297.063202,171.853165 297.468933,171.824234 
	C298.834900,171.847015 299.795135,171.898712 300.755371,171.950424 
	C301.211945,173.556351 302.047241,175.158463 302.063507,176.768845 
	C302.166992,187.007156 302.048065,197.247543 302.108826,207.486618 
	C302.120300,209.418152 302.609894,211.346848 303.047913,213.903107 
	C303.216034,214.703323 303.215057,214.877304 303.214050,215.051285 
z"/>
<path fill="#099A96" opacity="1.000000" stroke="none" 
	d="
M181.006241,168.130310 
	C180.559250,168.094040 180.112274,168.057770 179.332245,168.075714 
	C176.895630,168.349777 174.747238,168.920837 172.704926,168.660309 
	C171.441147,168.499084 170.338669,167.073517 169.163773,166.215546 
	C170.241135,165.248871 171.323715,163.440536 172.395065,163.447174 
	C181.953094,163.506348 191.509155,163.885818 201.643555,164.446350 
	C202.443420,165.070648 202.665543,165.419556 202.924774,165.828186 
	C202.961899,165.887909 203.041229,166.004028 203.041229,166.004028 
	C203.048920,166.170700 203.056610,166.337357 203.053894,166.943848 
	C203.043472,167.383682 202.951279,167.767700 202.951279,167.767700 
	C202.951279,167.767700 203.033234,167.963379 202.569977,168.010559 
	C195.073242,168.081924 188.039734,168.106125 181.006241,168.130310 
z"/>
<path fill="#A5AEB4" opacity="1.000000" stroke="none" 
	d="
M186.597183,259.972443 
	C188.048050,261.320221 189.087555,262.660370 190.780914,264.843506 
	C190.769516,264.931549 190.572632,266.473358 190.364166,268.013580 
	C190.348862,268.126648 190.252823,268.315704 190.188705,268.318085 
	C190.033630,268.323853 189.875229,268.239990 189.549316,268.227966 
	C188.660995,268.349121 187.309494,268.459503 187.311722,268.516510 
	C187.558273,274.774414 183.179199,274.135803 179.165421,274.053467 
	C178.020752,274.029968 176.875183,274.049835 176.593048,274.049835 
	C175.743988,269.493530 174.979538,265.391296 174.215088,261.289062 
	C174.560974,261.211884 174.906860,261.134705 175.252747,261.057556 
	C175.513596,263.316010 175.774429,265.574432 176.051010,267.969147 
	C179.020432,267.969147 181.744965,267.969147 184.412582,267.969147 
	C185.043228,265.122467 185.614532,262.543640 186.597183,259.972443 
z"/>
<path fill="#099A96" opacity="1.000000" stroke="none" 
	d="
M281.436584,167.849823 
	C280.660889,166.830841 280.346588,165.899994 280.019714,164.674454 
	C286.615967,164.300919 293.226501,164.286057 299.832886,164.113983 
	C302.769531,164.037491 305.696167,163.501770 308.630920,163.465698 
	C309.767120,163.451721 311.122559,164.007751 311.970947,164.762039 
	C312.429169,165.169434 312.392822,166.848450 311.925690,167.405502 
	C311.299561,168.152237 310.032074,168.769318 309.054108,168.749298 
	C300.000305,168.563889 290.949585,168.229279 281.436584,167.849823 
z"/>
<path fill="#05A59C" opacity="1.000000" stroke="none" 
	d="
M287.054199,146.620575 
	C287.323425,140.624023 288.426697,134.508087 287.591125,128.669647 
	C286.952362,124.206535 287.942627,123.737740 291.950775,124.311729 
	C291.950775,132.054565 292.061646,139.635651 291.815094,147.205093 
	C291.783112,148.187973 290.039185,149.648819 288.855988,149.937988 
	C286.981079,150.396210 284.910034,150.051926 282.678680,149.795380 
	C283.974976,148.569260 285.514587,147.594910 287.054199,146.620575 
z"/>
<path fill="#059A91" opacity="1.000000" stroke="none" 
	d="
M291.186249,181.781189 
	C291.460876,186.014740 291.712189,190.250000 292.019440,194.481186 
	C292.185577,196.769333 292.578278,199.048615 292.611816,201.335678 
	C292.629333,202.530289 292.415863,204.026489 291.690460,204.830261 
	C291.196503,205.377563 289.180664,205.404663 288.658630,204.870117 
	C287.904816,204.098251 287.577484,202.597839 287.610321,201.423462 
	C287.756714,196.191040 288.096069,190.964020 288.387573,185.310074 
	C285.683807,185.168961 283.747467,185.067902 281.559326,184.603394 
	C282.727936,183.440887 284.148376,182.641846 285.568817,181.842804 
	C286.064575,181.714340 286.560303,181.585876 287.558594,181.809418 
	C289.102814,182.034683 290.144531,181.907944 291.186249,181.781189 
z"/>
<path fill="#04B3AA" opacity="1.000000" stroke="none" 
	d="
M179.259094,172.532440 
	C185.520035,171.544037 191.812866,170.759949 197.825348,173.309860 
	C197.828812,173.823212 197.832260,174.336578 197.835709,174.849945 
	C193.083817,174.849945 188.331909,174.849945 182.945206,174.849945 
	C182.945206,178.521088 182.945206,181.302795 182.593048,184.723480 
	C181.423965,187.904617 180.607040,190.446777 179.790115,192.988953 
	C179.658356,187.994156 179.526596,182.999344 179.384125,177.138550 
	C179.300354,175.157410 179.227295,174.042267 179.154236,172.927139 
	C179.154236,172.927139 179.296341,172.673126 179.259094,172.532440 
M181.526215,173.499496 
	C181.526215,173.499496 181.486908,173.513855 181.526215,173.499496 
z"/>
<path fill="#04B3AA" opacity="1.000000" stroke="none" 
	d="
M257.752075,201.487488 
	C258.659271,200.795822 259.477478,200.535614 260.592590,200.147522 
	C260.889465,203.975143 260.889465,207.930679 260.889465,211.797852 
	C267.245453,214.659424 274.805725,210.176147 281.114136,215.991669 
	C272.785675,215.991669 265.793121,215.991669 258.469391,215.523712 
	C258.050934,213.018509 257.963684,210.981247 257.876404,208.944000 
	C257.805328,206.602310 257.734222,204.260635 257.752075,201.487488 
z"/>
<path fill="#05A59C" opacity="1.000000" stroke="none" 
	d="
M179.617615,192.981720 
	C180.607040,190.446777 181.423965,187.904617 182.533783,185.173599 
	C182.919739,187.690369 183.012817,190.395966 183.104950,193.983002 
	C183.149048,196.910706 183.194092,198.956985 183.171814,201.448654 
	C183.193008,205.359528 183.281494,208.825027 183.374237,212.299530 
	C183.378494,212.308533 183.404984,212.305176 183.377487,212.521606 
	C183.349991,212.738052 183.460800,213.160080 183.395416,213.283905 
	C183.330032,213.407745 183.366211,213.685471 183.366211,213.685471 
	C182.528778,214.153534 181.691330,214.621597 180.188187,215.461746 
	C179.885437,213.436707 179.655518,211.898804 179.375031,209.715439 
	C179.265640,208.684525 179.206833,208.299072 179.148041,207.913620 
	C179.204941,206.242401 179.261871,204.571198 179.302399,202.038422 
	C179.224060,198.448044 179.162109,195.719223 179.100159,192.990402 
	C179.100159,192.990402 179.445099,192.974487 179.617615,192.981720 
z"/>
<path fill="#04B3AA" opacity="1.000000" stroke="none" 
	d="
M224.988647,115.937904 
	C225.054352,117.344299 225.120071,118.750702 224.725525,120.573418 
	C223.515991,120.996689 222.766739,121.003639 222.017471,121.010590 
	C221.912689,120.118050 221.807922,119.225510 221.550934,117.912361 
	C221.398727,117.491753 221.388870,117.376320 221.388870,117.376328 
	C220.747498,117.323051 220.106110,117.269775 218.991547,117.142639 
	C218.518341,117.068764 218.514328,117.033905 218.514328,117.033905 
	C215.496246,117.074310 212.478180,117.114716 208.995728,117.080139 
	C208.531372,117.005173 208.598740,117.027779 208.598740,117.027779 
	C208.299606,117.044960 208.000488,117.062134 207.174225,116.998474 
	C206.467590,116.907974 206.313995,116.972931 206.186264,117.112518 
	C204.941666,117.534462 203.697083,117.956398 202.045349,118.516373 
	C202.177460,116.219727 202.264496,114.706375 202.354691,113.138344 
	C209.974243,113.569443 217.434601,113.991531 224.886658,114.859055 
	C224.813889,115.527786 224.850647,115.738930 224.988647,115.937904 
z"/>
<path fill="#04B3AA" opacity="1.000000" stroke="none" 
	d="
M241.381165,121.191605 
	C240.812149,121.739044 240.602356,121.859589 240.245667,121.956772 
	C239.738831,121.516167 239.017120,121.054924 239.013412,120.587959 
	C238.945511,112.072105 238.963837,103.555557 238.963837,94.689957 
	C240.111649,94.797516 241.610474,94.937965 243.113800,95.078835 
	C242.788391,98.146568 242.495468,100.907875 242.137711,104.062637 
	C242.072861,104.456100 242.082397,104.406494 242.082397,104.406494 
	C241.977585,109.874786 241.872742,115.343086 241.381165,121.191605 
z"/>
<path fill="#04B3AA" opacity="1.000000" stroke="none" 
	d="
M257.023346,114.057404 
	C262.278778,113.996140 267.534210,113.934875 273.544403,113.840065 
	C275.208282,113.870224 276.117432,113.933937 277.026550,113.997650 
	C277.797974,114.522987 278.569427,115.048325 279.670166,115.786957 
	C279.999451,116.000252 279.986053,116.020470 279.986053,116.020462 
	C274.847321,116.419975 269.709473,116.831932 264.569366,117.212952 
	C262.492188,117.366928 259.946625,116.764343 259.722351,120.547852 
	C258.547546,120.584663 257.760925,120.291580 256.974304,119.998497 
	C256.936249,119.818550 256.898224,119.638596 257.063110,119.154747 
	C257.386688,118.762566 257.507324,118.674271 257.627930,118.585976 
	C257.412994,118.424408 257.198090,118.262833 256.983154,118.101265 
	C256.927887,117.618607 256.872620,117.135956 256.955444,116.196625 
	C257.174561,115.517441 257.146362,115.304138 257.008881,115.100060 
	C256.978455,114.915466 256.948059,114.730881 256.995422,114.302200 
	C257.073212,114.058113 257.023346,114.057404 257.023346,114.057404 
z"/>
<path fill="#099A96" opacity="1.000000" stroke="none" 
	d="
M286.628296,146.514557 
	C285.514587,147.594910 283.974976,148.569260 282.225769,149.749130 
	C279.981140,150.004044 277.946136,150.053452 275.598633,150.031021 
	C275.660156,148.943024 276.034149,147.926849 276.258545,146.774506 
	C279.473419,146.561752 282.837921,146.485138 286.628296,146.514557 
z"/>
<path fill="#04B7B0" opacity="1.000000" stroke="none" 
	d="
M296.527466,171.904312 
	C296.988892,172.711914 296.989105,173.451385 296.988831,174.560608 
	C291.959381,174.987595 286.930389,175.044830 281.440186,175.013184 
	C280.683838,173.664932 285.411377,174.968521 282.157166,172.121948 
	C286.681244,171.917877 291.373749,171.877029 296.527466,171.904312 
z"/>
<path fill="#04B7B0" opacity="1.000000" stroke="none" 
	d="
M246.248718,106.532120 
	C247.096664,106.504562 247.903244,106.933571 248.829559,107.630585 
	C248.951096,111.649567 248.952896,115.400543 248.893951,119.618103 
	C248.222931,120.335869 247.612671,120.587059 246.683960,120.928528 
	C246.312790,116.342110 246.260056,111.665405 246.248718,106.532120 
z"/>
<path fill="#04B7B0" opacity="1.000000" stroke="none" 
	d="
M251.282135,208.512512 
	C250.392136,212.155609 249.556259,215.385651 248.342606,218.468643 
	C247.892365,217.881485 247.819901,217.441360 247.824615,216.546112 
	C247.973328,212.392944 248.044876,208.694916 248.116425,204.996887 
	C248.924973,204.732986 249.733521,204.469070 250.835510,204.076324 
	C251.198044,205.331482 251.267136,206.715454 251.282135,208.512512 
z"/>
<path fill="#A5AEB4" opacity="1.000000" stroke="none" 
	d="
M242.416153,268.302612 
	C237.638092,268.826385 232.860031,269.350189 227.641602,269.769714 
	C227.201248,269.665436 227.239212,269.341034 227.193665,269.184113 
	C231.936737,268.634430 236.725372,268.241638 241.935654,268.080322 
	C242.357315,268.311768 242.416153,268.302612 242.416153,268.302612 
z"/>
<path fill="#13B9BE" opacity="1.000000" stroke="none" 
	d="
M221.951874,121.458328 
	C222.766739,121.003639 223.515991,120.996689 224.639923,120.988739 
	C225.057724,122.714813 225.100876,124.441887 225.064545,126.594788 
	C224.138321,128.130081 223.291565,129.239517 222.242432,130.209579 
	C221.988785,127.348816 221.937531,124.627441 221.951874,121.458328 
z"/>
<path fill="#13B9BE" opacity="1.000000" stroke="none" 
	d="
M256.895660,120.442589 
	C257.760925,120.291580 258.547546,120.584663 259.641754,120.946991 
	C259.993805,123.382576 260.038269,125.748917 260.009003,128.553070 
	C259.188019,128.994476 258.440765,128.998093 257.319885,129.000488 
	C256.903168,126.295074 256.860107,123.590874 256.895660,120.442589 
z"/>
<path fill="#13B9BE" opacity="1.000000" stroke="none" 
	d="
M285.097961,181.677307 
	C284.148376,182.641846 282.727936,183.440887 281.115906,184.516876 
	C278.905518,184.839844 276.886749,184.885864 274.439148,184.867508 
	C274.593079,183.916855 275.175873,183.030563 275.951599,181.886688 
	C278.972076,181.590012 281.799561,181.550919 285.097961,181.677307 
z"/>
<path fill="#0C1926" opacity="1.000000" stroke="none" 
	d="
M297.834839,212.283585 
	C299.139679,212.998871 300.279602,213.993515 301.691162,215.205811 
	C301.240753,216.029587 300.518738,216.635712 299.796753,217.241821 
	C299.087799,215.682205 298.378876,214.122574 297.834839,212.283585 
z"/>
<path fill="#252F39" opacity="1.000000" stroke="none" 
	d="
M198.682159,258.913208 
	C197.790451,259.615540 196.603317,260.504791 195.268936,260.914734 
	C194.882736,261.033417 194.074005,259.776855 193.708984,259.017090 
	C194.147812,258.889648 194.336655,258.895874 195.113541,258.922882 
	C196.109543,258.937256 196.517517,258.930878 196.925491,258.924469 
	C197.393890,258.922180 197.862274,258.919922 198.682159,258.913208 
z"/>
<path fill="#04B7B0" opacity="1.000000" stroke="none" 
	d="
M254.706665,103.731834 
	C253.544601,106.991730 251.538315,105.972481 249.242599,104.055336 
	C250.765244,103.749817 252.517120,103.715912 254.706665,103.731834 
z"/>
<path fill="#20B3BB" opacity="1.000000" stroke="none" 
	d="
M257.800507,209.275696 
	C257.963684,210.981247 258.050934,213.018509 258.045044,215.302094 
	C257.876129,213.568085 257.800385,211.587738 257.800507,209.275696 
z"/>
<path fill="#0C1926" opacity="1.000000" stroke="none" 
	d="
M178.892181,193.325073 
	C179.162109,195.719223 179.224060,198.448044 179.210739,201.628815 
	C178.985062,199.273758 178.834641,196.466751 178.892181,193.325073 
z"/>
<path fill="#0E2230" opacity="1.000000" stroke="none" 
	d="
M279.988770,116.007065 
	C280.982178,115.325684 281.986206,114.637482 282.990265,113.949280 
	C283.170105,114.295189 283.349945,114.641098 283.529816,114.987015 
	C282.565948,115.323227 281.602081,115.659447 280.312134,116.008072 
	C279.986053,116.020470 279.999451,116.000252 279.988770,116.007065 
z"/>
<path fill="#0C1926" opacity="1.000000" stroke="none" 
	d="
M286.941254,267.815887 
	C286.805634,266.685669 286.695251,265.110809 286.798157,263.263367 
	C286.996460,264.450897 286.981506,265.911102 286.941254,267.815887 
z"/>
<path fill="#27B5C0" opacity="1.000000" stroke="none" 
	d="
M276.842865,113.953026 
	C276.117432,113.933937 275.208282,113.870224 274.060913,113.888412 
	C274.768158,113.949661 275.713684,113.929031 276.842865,113.953026 
z"/>
<path fill="#0C1926" opacity="1.000000" stroke="none" 
	d="
M178.942001,208.209503 
	C179.206833,208.299072 179.265640,208.684525 179.270111,209.357727 
	C178.939316,210.247833 178.662842,210.850204 178.194366,211.721588 
	C178.246887,210.828857 178.491425,209.667130 178.942001,208.209503 
z"/>
<path fill="#252F39" opacity="1.000000" stroke="none" 
	d="
M191.098297,255.771927 
	C190.637558,256.027588 190.142014,256.007996 189.646469,255.988388 
	C189.939499,255.683029 190.232529,255.377686 190.760132,255.009201 
	C191.017654,255.129608 191.040588,255.313141 191.098297,255.771927 
z"/>
<path fill="#08A5A1" opacity="1.000000" stroke="none" 
	d="
M209.337250,146.496155 
	C208.665878,146.701172 207.657730,146.794250 206.398102,146.792664 
	C207.097916,146.593399 208.049210,146.488800 209.337250,146.496155 
z"/>
<path fill="#0C1926" opacity="1.000000" stroke="none" 
	d="
M178.960083,173.197388 
	C179.227295,174.042267 179.300354,175.157410 179.287628,176.685608 
	C179.056519,175.888321 178.911209,174.677994 178.960083,173.197388 
z"/>
<path fill="#20B3BB" opacity="1.000000" stroke="none" 
	d="
M300.508667,171.886353 
	C299.795135,171.898712 298.834900,171.847015 297.528992,171.860825 
	C298.209534,171.891663 299.235748,171.856979 300.508667,171.886353 
z"/>
<path fill="#099A96" opacity="1.000000" stroke="none" 
	d="
M273.515381,146.518524 
	C273.057648,146.645218 272.272522,146.652267 271.299744,146.510315 
	C271.804077,146.373825 272.496033,146.386353 273.515381,146.518524 
z"/>
<path fill="#13B9BE" opacity="1.000000" stroke="none" 
	d="
M260.018616,132.622040 
	C259.841919,132.151169 259.737457,131.312195 259.785950,130.246094 
	C259.989563,130.763977 260.040192,131.508942 260.018616,132.622040 
z"/>
<path fill="#13B9BE" opacity="1.000000" stroke="none" 
	d="
M290.724731,181.653809 
	C290.144531,181.907944 289.102814,182.034683 287.747192,182.014221 
	C288.376617,181.753479 289.319916,181.639938 290.724731,181.653809 
z"/>
<path fill="#0C1926" opacity="1.000000" stroke="none" 
	d="
M196.759094,258.803162 
	C196.517517,258.930878 196.109543,258.937256 195.396912,258.928711 
	C195.592407,258.836456 196.092545,258.759186 196.759094,258.803162 
z"/>
<path fill="#04B7B0" opacity="1.000000" stroke="none" 
	d="
M280.698303,171.868073 
	C280.481171,172.038834 279.935822,172.132416 279.215027,172.083740 
	C279.483093,171.891296 279.926575,171.841095 280.698303,171.868073 
z"/>
<path fill="#27B5C0" opacity="1.000000" stroke="none" 
	d="
M256.932434,118.305527 
	C257.198090,118.262833 257.412994,118.424408 257.627930,118.585976 
	C257.507324,118.674271 257.386688,118.762566 257.122070,118.885208 
	C256.978027,118.919556 256.881683,118.509789 256.932434,118.305527 
z"/>
<path fill="#0C1926" opacity="1.000000" stroke="none" 
	d="
M303.347534,214.991364 
	C303.215057,214.877304 303.216034,214.703323 303.260803,214.272034 
	C303.476593,214.221268 303.656677,214.422455 303.804169,214.645187 
	C303.815247,214.661926 303.594177,214.832413 303.347534,214.991364 
z"/>
<path fill="#099A96" opacity="1.000000" stroke="none" 
	d="
M203.833954,164.332214 
	C203.884598,164.826569 203.661316,165.264496 203.239639,165.853226 
	C203.041229,166.004028 202.961899,165.887909 202.911774,165.602020 
	C202.857162,164.997742 202.907242,164.688141 203.011871,164.387314 
	C203.194595,164.350128 203.377304,164.312958 203.833954,164.332214 
z"/>
<path fill="#20B3BB" opacity="1.000000" stroke="none" 
	d="
M202.755432,164.351746 
	C202.907242,164.688141 202.857162,164.997742 202.874649,165.542297 
	C202.665543,165.419556 202.443420,165.070648 202.102264,164.541565 
	C202.155136,164.346329 202.327072,164.331268 202.755432,164.351746 
z"/>
<path fill="#27B5C0" opacity="1.000000" stroke="none" 
	d="
M242.062469,104.446602 
	C242.082397,104.406494 242.072861,104.456100 242.072830,104.483459 
	C242.072800,104.510826 242.042542,104.486710 242.062469,104.446602 
z"/>
<path fill="#27B5C0" opacity="1.000000" stroke="none" 
	d="
M221.412109,117.382065 
	C221.388870,117.376320 221.398727,117.491753 221.413635,117.483932 
	C221.428528,117.476105 221.435333,117.387817 221.412109,117.382065 
z"/>
<path fill="#252F39" opacity="1.000000" stroke="none" 
	d="
M227.002594,271.004456 
	C227.005478,271.008911 226.940247,271.046875 226.965515,271.020630 
	C226.990784,270.994385 226.999695,271.000000 227.002594,271.004456 
z"/>
<path fill="#27B5C0" opacity="1.000000" stroke="none" 
	d="
M218.471588,117.062363 
	C218.514328,117.033905 218.518341,117.068764 218.516693,117.054543 
	C218.515060,117.040321 218.428833,117.090820 218.471588,117.062363 
z"/>
<path fill="#099A96" opacity="1.000000" stroke="none" 
	d="
M276.389587,163.876160 
	C276.200623,163.884476 276.073303,163.651886 276.047302,163.171234 
	C276.209747,163.188019 276.310638,163.425369 276.389587,163.876160 
z"/>
<path fill="#27B5C0" opacity="1.000000" stroke="none" 
	d="
M208.555740,117.020096 
	C208.598740,117.027779 208.531372,117.005173 208.496277,117.012718 
	C208.461197,117.020264 208.512741,117.012421 208.555740,117.020096 
z"/>
<path fill="#27B5C0" opacity="1.000000" stroke="none" 
	d="
M225.031769,115.729385 
	C224.850647,115.738930 224.813889,115.527786 224.928238,115.205307 
	C224.978104,115.106133 225.074890,115.520859 225.031769,115.729385 
z"/>
<path fill="#27B5C0" opacity="1.000000" stroke="none" 
	d="
M256.954529,115.308640 
	C257.146362,115.304138 257.174561,115.517441 257.039368,115.839905 
	C256.985199,115.939850 256.900177,115.517227 256.954529,115.308640 
z"/>
<path fill="#27B5C0" opacity="1.000000" stroke="none" 
	d="
M206.350494,117.113960 
	C206.313995,116.972931 206.467590,116.907974 206.728134,116.943825 
	C206.809204,116.969994 206.514709,117.115395 206.350494,117.113960 
z"/>
<path fill="#27B5C0" opacity="1.000000" stroke="none" 
	d="
M257.075745,114.033340 
	C256.942535,114.043541 256.806763,114.078522 256.847168,114.085449 
	C257.023346,114.057404 257.073212,114.058113 257.075745,114.033340 
z"/>
<path fill="#05A59C" opacity="1.000000" stroke="none" 
	d="
M189.521942,107.492050 
	C189.521973,107.479683 189.521912,107.504425 189.521942,107.492050 
z"/>
<path fill="#059A91" opacity="1.000000" stroke="none" 
	d="
M251.364594,200.087204 
	C251.192093,199.949524 251.254654,199.657547 251.587952,199.235229 
	C251.681152,199.362930 251.594803,199.638931 251.364594,200.087204 
z"/>
<path fill="#C5C8D0" opacity="1.000000" stroke="none" 
	d="
M245.117065,267.787476 
	C245.085144,265.919647 245.085144,264.460693 245.085144,262.866791 
	C250.604874,265.375580 255.366119,264.373962 256.109772,260.825073 
	C257.456818,261.435181 258.830902,262.057495 260.281403,262.714447 
	C255.287659,264.152557 251.728867,270.055786 245.117065,267.787476 
z"/>
<path fill="#0E202E" opacity="1.000000" stroke="none" 
	d="
M236.474960,261.619995 
	C235.431717,261.868958 234.509567,261.817444 233.587433,261.765930 
	C233.904770,260.997925 234.222092,260.229858 234.539398,259.461792 
	C235.224960,260.081024 235.910507,260.700256 236.474960,261.619995 
z"/>
<path fill="#0E202E" opacity="1.000000" stroke="none" 
	d="
M234.848145,266.032898 
	C233.966415,266.412659 233.095901,266.539459 232.225388,266.666260 
	C232.231873,266.219086 232.238358,265.771942 232.244843,265.324768 
	C233.116348,265.476471 233.987839,265.628204 234.848145,266.032898 
z"/>
<path fill="#A5AEB4" opacity="1.000000" stroke="none" 
	d="
M205.738113,264.937622 
	C206.542877,265.088043 207.057236,265.305450 207.727036,265.588562 
	C206.888992,265.776550 206.210678,265.928711 205.241364,266.051208 
	C205.116119,265.682587 205.281906,265.343597 205.738113,264.937622 
z"/>
<path fill="#0E202E" opacity="1.000000" stroke="none" 
	d="
M273.151062,267.236877 
	C272.967285,267.149750 272.869537,266.984131 272.771820,266.818481 
	C272.926910,266.931793 273.082001,267.045105 273.151062,267.236877 
z"/>
<path fill="#0C1926" opacity="1.000000" stroke="none" 
	d="
M282.310364,268.448883 
	C282.563873,268.768768 282.667450,269.157898 282.743896,269.552277 
	C282.747345,269.570007 282.504578,269.635406 282.376495,269.678619 
	C282.302734,269.292114 282.229004,268.905609 282.310364,268.448883 
z"/>
<path fill="#A5AEB4" opacity="1.000000" stroke="none" 
	d="
M242.358765,268.340454 
	C242.360214,268.369141 242.375641,268.125427 242.375641,268.125427 
	C242.375641,268.125427 242.263901,268.307953 242.340027,268.305298 
	C242.416153,268.302612 242.357315,268.311768 242.358765,268.340454 
z"/>
<path fill="#0E202E" opacity="1.000000" stroke="none" 
	d="
M243.507294,262.499817 
	C243.515152,262.521240 243.499435,262.478363 243.507294,262.499817 
z"/>
<path fill="#0E2230" opacity="1.000000" stroke="none" 
	d="
M209.096634,171.327103 
	C205.916092,159.574127 210.794846,150.327118 218.198151,142.712708 
	C234.622559,125.819992 261.029297,131.895935 270.938232,154.672104 
	C277.808075,176.408997 262.664825,193.661118 247.154816,196.600540 
	C230.219025,199.810150 213.486526,189.809875 209.096634,171.327103 
M231.219116,149.932266 
	C227.829132,157.224777 228.711517,160.378296 236.099396,167.009964 
	C235.198364,169.908615 234.274429,172.880997 233.046051,176.456955 
	C232.073120,179.393860 231.100189,182.330750 230.033447,185.550812 
	C237.379669,185.550812 244.087509,185.550812 251.472687,185.550812 
	C250.581238,183.259674 249.885803,181.472305 248.769913,179.061050 
	C247.630493,174.867172 246.491058,170.673309 245.388107,166.613693 
	C252.430481,161.209457 253.659851,156.570358 249.828659,149.308777 
	C243.757263,142.956894 236.960602,143.005478 231.219116,149.932266 
z"/>
<path fill="#0E202E" opacity="1.000000" stroke="none" 
	d="
M203.014206,184.806763 
	C203.756104,184.837982 204.497986,184.869186 205.873642,184.904129 
	C206.684586,184.873459 206.861771,184.839035 207.038956,184.804626 
	C207.786179,184.866653 208.533386,184.928680 209.847198,185.200394 
	C210.687546,185.595947 210.976807,185.753281 211.281601,185.882080 
	C211.281601,185.882080 211.098495,185.952866 211.242905,186.075470 
	C211.647598,186.458832 211.907883,186.719589 212.168167,186.980362 
	C212.168167,186.980362 212.067657,186.939041 212.033081,187.237671 
	C211.359375,189.117584 210.720230,190.698868 210.013153,192.448242 
	C215.609482,192.477753 215.590546,192.483627 217.187347,197.630936 
	C217.425262,198.397888 218.074554,199.039810 218.298416,199.808090 
	C219.056915,202.411499 221.069336,206.487656 220.127426,207.375702 
	C217.996689,209.384583 214.299652,210.907166 211.400253,210.669403 
	C206.140015,210.238022 200.996841,208.379135 195.349747,207.005386 
	C197.363586,205.305862 198.869141,204.035294 200.374695,202.764709 
	C199.763077,202.685898 199.151459,202.607071 198.539856,202.528244 
	C197.693451,199.736130 196.507401,196.993103 196.094879,194.138290 
	C195.670761,191.203339 196.001602,188.159271 196.437592,185.099686 
	C198.920135,184.959869 200.967178,184.883316 203.014206,184.806763 
z"/>
<path fill="#0E2230" opacity="1.000000" stroke="none" 
	d="
M196.002060,185.162964 
	C196.001602,188.159271 195.670761,191.203339 196.094879,194.138290 
	C196.507401,196.993103 197.693451,199.736130 198.539856,202.528244 
	C199.151459,202.607071 199.763077,202.685898 200.374695,202.764709 
	C198.869141,204.035294 197.363586,205.305862 195.349747,207.005386 
	C200.996841,208.379135 206.140015,210.238022 211.400253,210.669403 
	C214.299652,210.907166 217.996689,209.384583 220.127426,207.375702 
	C221.069336,206.487656 219.056915,202.411499 218.298416,199.808090 
	C218.074554,199.039810 217.425262,198.397888 217.187347,197.630936 
	C215.590546,192.483627 215.609482,192.477753 210.013153,192.448242 
	C210.720230,190.698868 211.359375,189.117584 212.060730,187.190903 
	C214.933655,189.400467 218.148605,191.647400 220.412582,194.618896 
	C221.916092,196.592300 222.059723,199.601807 222.784912,203.006699 
	C222.559341,212.737091 222.559341,212.741348 213.716232,212.756317 
	C211.236588,212.760513 208.756668,212.706512 206.277252,212.725479 
	C204.083008,212.742264 201.889252,212.823334 199.381378,212.746780 
	C197.107452,212.067368 194.560104,212.110764 193.294632,210.858658 
	C189.055313,206.664062 186.594666,206.842239 183.369980,212.290512 
	C183.281494,208.825027 183.193008,205.359528 183.474304,201.517761 
	C185.749695,200.759827 187.655289,200.378174 189.664520,200.386353 
	C190.270660,201.455460 190.773132,202.134750 191.275604,202.814026 
	C191.905731,201.805710 193.034058,200.820023 193.081116,199.785202 
	C193.303635,194.890930 193.230606,189.983231 193.606781,185.063492 
	C194.634445,185.085434 195.318253,185.124207 196.002060,185.162964 
M220.476318,210.503204 
	C220.476318,210.503204 220.513123,210.490952 220.476318,210.503204 
z"/>
<path fill="#059A91" opacity="1.000000" stroke="none" 
	d="
M244.284286,221.771622 
	C244.501740,225.548843 244.932739,229.332672 244.816391,233.099594 
	C244.777649,234.353821 243.335968,235.564743 242.535675,236.795471 
	C241.561752,235.730042 239.743851,234.660416 239.749100,233.599808 
	C239.786835,225.983932 240.194870,218.369873 240.607849,210.365051 
	C241.576630,209.697083 242.422913,209.419296 243.700455,209.332214 
	C244.199600,209.714294 244.267456,209.905670 244.280243,210.377747 
	C244.306885,211.236588 244.388565,211.814743 244.358566,212.775864 
	C244.267471,214.484573 244.288055,215.810318 244.255066,217.517517 
	C244.229080,219.189850 244.256683,220.480743 244.284286,221.771622 
z"/>
<path fill="#04A89E" opacity="1.000000" stroke="none" 
	d="
M199.695282,212.876007 
	C201.889252,212.823334 204.083008,212.742264 206.277252,212.725479 
	C208.756668,212.706512 211.236588,212.760513 213.716232,212.756317 
	C222.559341,212.741348 222.559341,212.737091 222.844513,203.421021 
	C223.812790,204.777740 224.694305,206.579315 225.781601,208.635849 
	C226.550629,216.192413 226.548904,216.106277 219.590378,216.246078 
	C214.315842,216.352036 209.046463,216.713348 203.051605,217.093628 
	C201.871780,217.223526 201.415161,217.220856 200.958527,217.218201 
	C200.568939,216.679016 200.179352,216.139832 199.676743,214.961182 
	C199.607574,213.839798 199.651428,213.357910 199.695282,212.876007 
z"/>
<path fill="#0E202E" opacity="1.000000" stroke="none" 
	d="
M233.230087,216.950104 
	C233.138947,217.404388 233.047836,217.858688 232.893097,218.655426 
	C230.630875,218.997864 228.432297,218.997864 226.886597,218.997864 
	C228.025940,213.904984 228.915436,209.475586 230.051910,205.110504 
	C230.417633,203.705734 231.434097,202.470413 232.510483,201.079651 
	C232.955688,202.385223 233.043274,203.768707 233.127762,206.018005 
	C233.159805,210.239258 233.194946,213.594681 233.230087,216.950104 
z"/>
<path fill="#08A5A1" opacity="1.000000" stroke="none" 
	d="
M196.437592,185.099701 
	C195.318253,185.124207 194.634445,185.085434 193.270950,184.986969 
	C191.727814,184.617645 190.864365,184.308060 190.000916,183.998459 
	C190.941925,183.086655 191.817795,181.485153 192.835861,181.389008 
	C196.244659,181.067047 199.704254,181.282974 203.602432,181.393143 
	C203.752029,182.408325 203.443604,183.323318 203.074677,184.522537 
	C200.967178,184.883316 198.920135,184.959869 196.437592,185.099701 
z"/>
<path fill="#0E2230" opacity="1.000000" stroke="none" 
	d="
M244.308624,217.136063 
	C244.288055,215.810318 244.267471,214.484573 244.590942,212.507263 
	C245.123917,210.888229 245.312820,209.920792 245.501724,208.953339 
	C245.112915,209.334579 244.724106,209.715805 244.335297,210.097046 
	C244.267456,209.905670 244.199600,209.714294 244.021210,209.238647 
	C243.953171,207.331787 243.735336,205.644394 244.118149,204.106506 
	C244.441269,202.808365 245.461227,201.683685 246.172760,200.482224 
	C246.774734,201.733566 247.376709,202.984909 248.047546,204.616562 
	C248.044876,208.694916 247.973328,212.392944 247.396454,216.550079 
	C246.030304,217.051498 245.169479,217.093781 244.308624,217.136063 
z"/>
<path fill="#04B7B0" opacity="1.000000" stroke="none" 
	d="
M233.485809,217.101013 
	C233.194946,213.594681 233.159805,210.239258 233.195892,206.429077 
	C234.122055,205.966797 234.976990,205.959244 236.152145,205.937210 
	C236.524536,210.609711 236.576706,215.296707 236.577423,220.440765 
	C235.597839,219.682541 234.669678,218.467224 233.485809,217.101013 
z"/>
<path fill="#08A5A1" opacity="1.000000" stroke="none" 
	d="
M206.987061,184.659546 
	C206.861771,184.839035 206.684586,184.873459 206.242310,184.853561 
	C206.296524,184.704315 206.615860,184.609375 206.987061,184.659546 
z"/>
<path fill="#0E2230" opacity="1.000000" stroke="none" 
	d="
M212.080307,186.695709 
	C211.907883,186.719589 211.647598,186.458832 211.215103,185.981323 
	C211.359421,185.980072 211.675934,186.195557 212.080307,186.695709 
z"/>
<path fill="#0E2230" opacity="1.000000" stroke="none" 
	d="
M211.163773,185.630051 
	C210.976807,185.753281 210.687546,185.595947 210.217682,185.261139 
	C210.363007,185.200821 210.704483,185.289429 211.163773,185.630051 
z"/>
<path fill="#08A5A1" opacity="1.000000" stroke="none" 
	d="
M208.725983,180.831726 
	C208.685471,180.893723 208.628967,180.620041 208.687134,180.496811 
	C208.745300,180.373581 208.766495,180.769745 208.725983,180.831726 
z"/>
<path fill="#20B3BB" opacity="1.000000" stroke="none" 
	d="
M203.344421,167.818604 
	C202.951279,167.767700 203.043472,167.383682 203.089600,167.191574 
	C203.932266,167.357727 204.728821,167.715988 205.750214,168.325409 
	C205.229233,168.340881 204.483398,168.105209 203.344421,167.818604 
z"/>
<path fill="#0E202E" opacity="1.000000" stroke="none" 
	d="
M263.383484,228.026337 
	C264.456757,228.268555 265.162933,228.496933 265.869080,228.725311 
	C265.851044,229.226685 265.832977,229.728043 265.814941,230.229416 
	C263.185242,230.386490 260.555542,230.543564 257.925842,230.700638 
	C257.858704,230.059235 257.791565,229.417831 257.724396,228.776428 
	C259.488403,228.521774 261.252380,228.267120 263.383484,228.026337 
z"/>
<path fill="#0E202E" opacity="1.000000" stroke="none" 
	d="
M244.255066,217.517517 
	C245.169479,217.093781 246.030304,217.051498 247.319305,217.005219 
	C247.819901,217.441360 247.892365,217.881485 248.017426,218.652771 
	C247.976181,219.737961 247.882339,220.491959 247.730225,221.622437 
	C246.824921,221.951721 245.977890,221.904510 244.707565,221.814468 
	C244.256683,220.480743 244.229080,219.189850 244.255066,217.517517 
z"/>
<path fill="#0E202E" opacity="1.000000" stroke="none" 
	d="
M236.943695,230.673767 
	C236.425461,230.628906 236.044739,230.412857 235.664032,230.196808 
	C236.057343,229.782272 236.450653,229.367722 236.843933,228.953156 
	C236.923035,229.469620 237.002136,229.986099 236.943695,230.673767 
z"/>
<path fill="#0E202E" opacity="1.000000" stroke="none" 
	d="
M238.014008,220.498322 
	C238.294296,219.936447 238.568741,219.637466 238.843185,219.338486 
	C238.843185,220.574707 238.843185,221.810944 238.843185,223.047165 
	C238.624069,223.053589 238.404938,223.060013 238.185822,223.066422 
	C238.126617,222.298035 238.067398,221.529633 238.014008,220.498322 
z"/>
<path fill="#0E202E" opacity="1.000000" stroke="none" 
	d="
M199.381378,212.746765 
	C199.651428,213.357910 199.607574,213.839798 199.498688,214.678864 
	C198.004959,218.636566 196.973114,220.862015 192.000107,217.977509 
	C189.742096,216.667786 185.925095,217.218826 183.643356,213.937439 
	C183.366211,213.685471 183.330032,213.407745 183.512360,213.180359 
	C183.694672,212.952957 183.749023,212.554733 183.749023,212.554733 
	C183.749023,212.554733 183.404984,212.305176 183.404984,212.305176 
	C183.404984,212.305176 183.378494,212.308533 183.374237,212.299530 
	C186.594666,206.842239 189.055313,206.664062 193.294632,210.858658 
	C194.560104,212.110764 197.107452,212.067368 199.381378,212.746765 
z"/>
<path fill="#0E202E" opacity="1.000000" stroke="none" 
	d="
M200.884979,217.495544 
	C201.415161,217.220856 201.871780,217.223526 202.668274,217.268707 
	C203.671204,218.170944 204.334274,219.030685 205.011963,219.909393 
	C201.959122,220.803070 201.959122,220.803070 200.884979,217.495544 
z"/>
<path fill="#059A91" opacity="1.000000" stroke="none" 
	d="
M196.489700,221.530884 
	C196.500443,221.553833 196.478958,221.507950 196.489700,221.530884 
z"/>
<path fill="#0E202E" opacity="1.000000" stroke="none" 
	d="
M209.496643,221.505280 
	C209.490402,221.486771 209.502899,221.523773 209.496643,221.505280 
z"/>
<path fill="#0E202E" opacity="1.000000" stroke="none" 
	d="
M216.505646,221.503082 
	C216.487091,221.509262 216.524185,221.496918 216.505646,221.503082 
z"/>
<path fill="#0E202E" opacity="1.000000" stroke="none" 
	d="
M232.774017,221.142426 
	C232.833939,221.034744 232.890594,221.498718 232.840591,221.727005 
	C232.658539,221.729202 232.633041,221.494125 232.774017,221.142426 
z"/>
<path fill="#0E202E" opacity="1.000000" stroke="none" 
	d="
M189.560883,199.996521 
	C187.655289,200.378174 185.749695,200.759827 183.541611,201.072388 
	C183.194092,198.956985 183.149048,196.910706 183.168335,194.429749 
	C184.156647,191.050369 185.080612,188.105667 186.483765,183.633759 
	C187.567993,187.428345 188.301224,189.994476 189.387833,193.213257 
	C189.681107,195.909454 189.620987,197.952988 189.560883,199.996521 
z"/>
<path fill="#04B3AA" opacity="1.000000" stroke="none" 
	d="
M189.664520,200.386337 
	C189.620987,197.952988 189.681107,195.909454 189.656769,193.434601 
	C189.670990,190.299622 189.769669,187.595978 189.934631,184.445404 
	C190.864365,184.308060 191.727814,184.617645 192.927094,185.003784 
	C193.230606,189.983231 193.303635,194.890930 193.081116,199.785202 
	C193.034058,200.820023 191.905731,201.805710 191.275604,202.814026 
	C190.773132,202.134750 190.270660,201.455460 189.664520,200.386337 
z"/>
<path fill="#0E202E" opacity="1.000000" stroke="none" 
	d="
M181.215881,168.444672 
	C188.039734,168.106125 195.073242,168.081924 202.574188,168.116531 
	C202.108475,168.752380 201.156769,169.854172 200.245117,169.821960 
	C193.967239,169.600189 187.697708,169.141510 181.215881,168.444672 
z"/>
<path fill="#05A59C" opacity="1.000000" stroke="none" 
	d="
M181.506561,173.506683 
	C181.486908,173.513855 181.526215,173.499496 181.506561,173.506683 
z"/>
<path fill="#0E2230" opacity="1.000000" stroke="none" 
	d="
M183.377487,212.521606 
	C183.404984,212.305176 183.749023,212.554733 183.749023,212.554733 
	C183.749023,212.554733 183.694672,212.952957 183.577728,213.056519 
	C183.460800,213.160080 183.349991,212.738052 183.377487,212.521606 
z"/>
<path fill="#5BC2E3" opacity="1.000000" stroke="none" 
	d="
M233.350479,175.853394 
	C234.274429,172.880997 235.198364,169.908615 236.099396,167.009964 
	C228.711517,160.378296 227.829132,157.224777 231.624847,149.996613 
	C233.172089,150.298859 234.316025,150.729919 235.454376,150.715576 
	C236.423676,150.703384 237.409439,149.868591 238.347977,149.937988 
	C241.242981,150.151993 244.118851,150.624588 247.024292,151.036469 
	C247.046432,151.076233 246.996735,151.002151 247.260651,150.813782 
	C248.354965,150.408005 249.185379,150.190598 250.015778,149.973175 
	C253.659851,156.570358 252.430481,161.209457 245.388107,166.613693 
	C246.491058,170.673309 247.630493,174.867172 248.681686,179.511261 
	C243.512466,178.592117 238.431473,177.222763 233.350479,175.853394 
M244.502151,176.529526 
	C244.502151,176.529526 244.489334,176.488510 244.502151,176.529526 
z"/>
<path fill="#48BAD3" opacity="1.000000" stroke="none" 
	d="
M233.198273,176.155182 
	C238.431473,177.222763 243.512466,178.592117 248.891907,179.823212 
	C249.885803,181.472305 250.581238,183.259674 251.472687,185.550812 
	C244.087509,185.550812 237.379669,185.550812 230.033447,185.550812 
	C231.100189,182.330750 232.073120,179.393860 233.198273,176.155182 
z"/>
<path fill="#50BCD7" opacity="1.000000" stroke="none" 
	d="
M247.002167,150.996719 
	C244.118851,150.624588 241.242981,150.151993 238.347977,149.937988 
	C237.409439,149.868591 236.423676,150.703384 235.454376,150.715576 
	C234.316025,150.729919 233.172089,150.298859 231.907532,149.749374 
	C236.960602,143.005478 243.757263,142.956894 249.922211,149.640976 
	C249.185379,150.190598 248.354965,150.408005 247.262283,150.812714 
	C247.000000,151.000000 247.002167,150.996719 247.002167,150.996719 
z"/>
<path fill="#0E202E" opacity="1.000000" stroke="none" 
	d="
M220.494720,210.497070 
	C220.513123,210.490952 220.476318,210.503204 220.494720,210.497070 
z"/>
<path fill="#0E202E" opacity="1.000000" stroke="none" 
	d="
M244.280243,210.377747 
	C244.724106,209.715805 245.112915,209.334579 245.501724,208.953339 
	C245.312820,209.920792 245.123917,210.888229 244.702637,212.124298 
	C244.388565,211.814743 244.306885,211.236588 244.280243,210.377747 
z"/>
<path fill="#50BCD7" opacity="1.000000" stroke="none" 
	d="
M246.998367,151.001068 
	C246.996735,151.002151 247.046432,151.076233 247.024292,151.036469 
	C247.002167,150.996719 247.000000,151.000000 246.998367,151.001068 
z"/>
<path fill="#48BAD3" opacity="1.000000" stroke="none" 
	d="
M244.495743,176.509018 
	C244.489334,176.488510 244.502151,176.529526 244.495743,176.509018 
z"/>
</svg>