<svg version="1.1" id="Layer_1" xmlns="http://www.w3.org/2000/svg" xmlns:xlink="http://www.w3.org/1999/xlink" x="0px" y="0px"
	 width="100%" viewBox="0 0 216 233" enable-background="new 0 0 216 233" xml:space="preserve">
<path fill="#FEFEFE" opacity="1.000000" stroke="none" 
	d="
M1.400656,217.299667 
	C1.000000,146.547623 1.051809,76.095116 0.872663,5.643192 
	C0.861790,1.367469 2.014521,0.893953 5.850908,0.901488 
	C74.804031,1.036922 143.757538,1.030556 212.710739,0.910816 
	C216.201126,0.904754 217.115341,1.484846 217.107605,5.205368 
	C216.961548,75.490913 217.000000,145.776840 217.000000,216.531342 
	C215.208481,218.619598 212.981613,218.398865 210.836823,218.399567 
	C142.946533,218.421478 75.056244,218.421005 7.165953,218.400513 
	C5.347111,218.399963 3.486533,218.551666 1.400656,217.299667 
z"/>
<path fill="#111224" opacity="1.000000" stroke="none" 
	d="
M216.550201,217.785187 
	C217.000000,222.658325 216.912094,227.319199 217.047180,231.973602 
	C217.095184,233.627487 216.850647,234.406998 215.027634,234.021500 
	C214.390640,233.886780 213.701233,234.000000 213.035751,234.000000 
	C143.659973,234.000000 74.284126,233.962769 4.908646,234.106323 
	C1.317591,234.113754 0.627994,233.183472 0.924575,229.915878 
	C1.254069,226.285675 1.000000,222.602509 1.000000,218.471191 
	C2.053033,217.283554 3.251511,217.524094 4.396553,217.524521 
	C74.964508,217.550690 145.532486,217.442154 216.550201,217.785187 
z"/>
<path fill="#000000" opacity="1.000000" stroke="none" 
	d="
M217.000000,217.750000 
	C145.312439,218.000137 73.624878,218.000290 1.468657,218.000214 
	C1.000000,218.000000 1.000000,217.500000 1.000000,217.250000 
	C72.688454,216.974731 144.376907,216.949463 216.532684,216.962097 
	C217.000000,217.000000 217.000000,217.500000 217.000000,217.750000 
z"/>
<path fill="#FED880" opacity="1.000000" stroke="none" 
	d="
M98.638031,101.451035 
	C96.257744,100.972527 96.184715,99.528641 95.987122,97.943680 
	C94.975960,89.832741 93.071724,82.033966 89.318169,74.625122 
	C81.362770,58.922554 94.196236,41.570904 110.471375,42.886635 
	C125.867897,48.110493 131.762650,62.331070 124.625008,76.535172 
	C122.039177,81.681030 120.693382,87.109077 119.541100,92.663025 
	C118.937698,95.571365 118.853050,98.645447 116.792397,101.509232 
	C110.616989,103.010590 104.808365,102.839226 98.638031,101.451035 
z"/>
<path fill="#F4B88B" opacity="1.000000" stroke="none" 
	d="
M162.090790,100.210045 
	C163.876450,97.151733 164.415237,91.650749 167.727234,92.742798 
	C170.455750,93.642448 167.777542,98.519424 166.941818,101.454277 
	C164.852676,108.790848 162.240891,115.977776 160.113693,123.304558 
	C158.517288,128.803116 154.912857,131.995087 149.686600,133.720444 
	C147.480057,134.448914 145.302551,135.267380 143.087158,135.966690 
	C136.881729,137.925522 132.781311,141.351730 133.999115,148.637482 
	C134.105988,149.276840 134.069992,149.996460 133.890030,150.617874 
	C133.004547,153.675156 127.006569,155.735168 121.553764,154.900864 
	C115.398331,153.959045 112.032387,151.350601 111.948463,147.457214 
	C111.634705,132.900024 115.582329,127.269447 129.492340,123.033173 
	C135.661133,121.154472 140.992294,117.947044 145.988586,114.001350 
	C147.622971,112.710632 149.773544,110.447701 151.521133,112.616768 
	C152.816513,114.224556 149.844467,115.375305 148.814636,116.748657 
	C147.662445,118.285141 145.505661,119.032898 145.178848,121.300186 
	C151.489914,120.065109 158.161606,111.811882 162.090790,100.210045 
z"/>
<path fill="#F4B88B" opacity="1.000000" stroke="none" 
	d="
M70.721161,113.020493 
	C76.964104,118.203102 83.676071,121.573570 91.079094,123.960182 
	C102.789314,127.735359 107.844635,136.539780 106.083717,148.711746 
	C105.840294,150.394363 105.000244,151.403549 103.641426,152.208282 
	C99.791687,154.488205 95.646027,155.532715 91.214142,154.864120 
	C85.341103,153.978088 83.861107,152.379120 84.075523,146.384918 
	C84.237015,141.870392 82.093803,139.199417 78.368156,137.363052 
	C77.329178,136.850952 76.252098,136.263672 75.133461,136.089050 
	C62.772709,134.159256 57.434120,125.893272 54.902672,114.564476 
	C53.498276,108.279495 50.769100,102.310081 49.748871,95.886780 
	C49.559155,94.692337 48.194893,93.088715 49.924046,92.417809 
	C51.508900,91.802902 52.544891,93.372955 53.333370,94.686157 
	C55.493797,98.284317 56.725021,102.275993 57.895004,106.243011 
	C60.147755,113.881348 66.673065,117.342743 72.369896,121.699738 
	C72.301254,118.688751 69.603806,117.633728 68.099289,115.714211 
	C67.328468,114.730774 65.411758,113.904495 66.407158,112.550453 
	C67.388626,111.215393 69.121277,111.818352 70.721161,113.020493 
z"/>
<path fill="#E1BE75" opacity="1.000000" stroke="none" 
	d="
M117.270859,101.167084 
	C118.039543,92.322754 119.216583,83.860397 123.392624,76.089523 
	C130.147690,63.519489 125.600723,51.478233 111.108978,43.212307 
	C126.441597,43.492046 137.122528,58.772362 130.925064,72.659828 
	C127.216347,80.970413 124.758179,89.422890 123.233292,98.273628 
	C123.045181,99.365479 123.244698,100.711739 121.249634,101.064682 
	C119.841583,102.021637 118.735710,101.996277 117.270859,101.167084 
z"/>
<path fill="#566776" opacity="1.000000" stroke="none" 
	d="
M98.550354,108.180153 
	C98.318939,107.202682 98.295509,106.502808 98.307678,105.454147 
	C99.505447,103.813538 100.963814,103.964859 102.461700,104.239395 
	C108.428490,105.332970 114.501770,105.835037 120.731438,107.715439 
	C119.847534,110.821396 120.698433,113.784187 120.551041,117.127045 
	C113.112091,117.761894 106.069092,115.847969 98.634422,114.200905 
	C98.306648,112.879547 98.288788,111.869751 98.307114,110.482635 
	C103.658615,108.920654 108.560677,111.494255 113.144562,111.523331 
	C108.819168,110.273682 103.420486,111.015739 98.550354,108.180153 
z"/>
<path fill="#5A6A79" opacity="1.000000" stroke="none" 
	d="
M120.029167,117.565781 
	C118.734985,123.483772 116.691544,124.734627 108.901741,124.649292 
	C102.135017,124.575165 100.011421,122.986984 98.342339,116.368103 
	C98.922310,114.173477 100.259796,114.697243 101.582520,114.836586 
	C107.630928,115.473747 113.551926,116.939774 120.029167,117.565781 
z"/>
<path fill="#576674" opacity="1.000000" stroke="none" 
	d="
M116.502609,100.917572 
	C118.000099,100.930946 119.035820,101.009010 120.460373,101.108795 
	C120.850601,102.461586 120.852013,103.792656 120.810333,105.522980 
	C119.618767,107.181381 118.023628,107.237083 116.650848,106.896851 
	C110.810829,105.449409 104.672615,105.585632 98.653206,103.200699 
	C98.317413,102.508476 98.290413,102.122284 98.269478,101.446556 
	C104.197311,101.098763 110.119080,101.040512 116.502609,100.917572 
z"/>
<path fill="#475A64" opacity="1.000000" stroke="none" 
	d="
M67.610535,187.452927 
	C66.161659,189.546326 63.561459,189.930389 60.614273,189.919647 
	C55.983681,189.902756 57.479580,186.539780 57.378761,184.216873 
	C57.278664,181.910431 56.456329,178.741852 60.653290,179.162201 
	C62.129032,179.309998 63.989323,178.291870 65.061501,180.282486 
	C63.787819,182.289719 60.361324,179.826614 60.170605,182.044296 
	C59.941967,184.702835 63.818066,182.084930 64.661522,184.370743 
	C64.509850,184.564713 64.385452,184.843399 64.170731,184.978806 
	C62.871994,185.797714 60.064404,184.086014 60.085339,186.411667 
	C60.110291,189.183823 62.973282,187.181458 64.392181,187.894409 
	C65.330238,188.365768 66.265442,188.536804 67.610535,187.452927 
z"/>
<path fill="#213744" opacity="1.000000" stroke="none" 
	d="
M55.148880,187.130585 
	C53.036083,190.249298 49.542000,190.844528 47.719715,189.053925 
	C45.572269,186.943787 46.679398,183.105423 47.249775,180.116058 
	C47.499123,178.809189 49.556114,179.245331 50.834373,179.294724 
	C52.727242,179.367844 54.419453,179.903076 55.173836,181.935120 
	C55.768940,183.538116 55.954792,185.135712 55.148880,187.130585 
z"/>
<path fill="#495C65" opacity="1.000000" stroke="none" 
	d="
M94.269638,179.168182 
	C96.476654,179.443161 98.559158,178.370438 100.247849,180.131271 
	C98.793335,182.237579 96.271744,180.082123 94.904655,181.882385 
	C95.447609,184.660843 98.661484,182.209412 99.649788,184.404724 
	C98.801399,186.519089 94.668221,183.635254 95.050896,186.706360 
	C95.360512,189.191132 98.600723,186.827408 100.681808,189.005829 
	C97.897560,190.317566 94.290398,190.871109 93.252335,189.100250 
	C91.590324,186.264969 91.015114,182.331665 94.269638,179.168182 
z"/>
<path fill="#7B91A1" opacity="1.000000" stroke="none" 
	d="
M98.213623,103.255417 
	C105.539581,103.921936 112.734756,104.949219 120.348587,105.949371 
	C120.958511,106.372581 121.149788,106.822922 121.216019,107.619164 
	C113.601799,108.293480 106.488647,105.766243 98.738602,105.089539 
	C98.256470,104.608971 98.169655,104.112579 98.213623,103.255417 
z"/>
<path fill="#4E5E67" opacity="1.000000" stroke="none" 
	d="
M149.632523,180.168533 
	C147.707428,181.066223 146.353607,181.914185 146.631393,184.478317 
	C146.829971,186.311340 147.263123,188.418686 145.607483,190.006439 
	C141.717422,187.692719 147.876984,181.155029 140.627441,180.295609 
	C143.942337,178.788544 146.699188,178.667435 149.632523,180.168533 
z"/>
<path fill="#213241" opacity="1.000000" stroke="none" 
	d="
M68.414963,187.069427 
	C68.018585,187.010391 67.820915,186.886017 67.723824,186.949677 
	C67.250618,183.977127 69.483856,180.862762 71.313820,181.180893 
	C75.241035,181.863571 74.359314,186.407364 75.678261,189.461548 
	C73.430656,188.001633 71.461739,186.567200 68.414963,187.069427 
z"/>
<path fill="#3F525C" opacity="1.000000" stroke="none" 
	d="
M170.802307,182.755325 
	C175.117325,186.762680 173.221863,180.204147 175.769836,180.784149 
	C176.220062,180.938202 175.822449,181.773788 175.752014,182.274124 
	C175.397476,184.792694 177.167831,188.739655 174.618851,189.491989 
	C172.239365,190.194305 171.501022,185.877640 169.356400,184.032776 
	C168.864731,182.909988 169.532928,182.612885 170.802307,182.755325 
z"/>
<path fill="#3D4D58" opacity="1.000000" stroke="none" 
	d="
M105.825424,182.880615 
	C109.492531,185.390182 108.620346,180.418289 110.854706,180.325851 
	C110.854706,181.233841 110.954231,182.146561 110.835129,183.029816 
	C110.536484,185.244644 112.023155,188.745667 109.920403,189.404510 
	C107.247742,190.241928 106.954506,186.218536 105.074310,184.357239 
	C104.989517,183.634583 105.204720,183.280090 105.825424,182.880615 
z"/>
<path fill="#0F2232" opacity="1.000000" stroke="none" 
	d="
M139.893280,188.600098 
	C136.942581,185.786255 134.934784,186.831100 133.028961,190.160446 
	C132.202042,186.794373 133.278793,184.669006 135.422714,183.042114 
	C136.574677,182.167999 138.279617,182.139526 138.957031,183.398392 
	C139.818237,184.998810 142.728470,186.404984 139.893280,188.600098 
z"/>
<path fill="#F0F1F2" opacity="1.000000" stroke="none" 
	d="
M160.567657,180.244278 
	C161.623566,179.934738 162.426605,178.775223 162.995026,180.487823 
	C163.851944,182.666443 164.514420,184.606445 163.494080,187.059753 
	C162.347046,188.545609 161.158768,189.023834 159.290268,188.600922 
	C156.431290,187.592941 155.865250,185.687073 156.326950,183.382782 
	C156.736679,181.337784 158.128525,180.386917 160.567657,180.244278 
z"/>
<path fill="#7B91A1" opacity="1.000000" stroke="none" 
	d="
M98.212318,108.262138 
	C104.937386,109.709213 111.754097,110.386810 118.422958,112.048943 
	C111.851959,112.719543 105.504181,111.189491 98.730087,110.100563 
	C98.256287,109.610786 98.169273,109.116249 98.212318,108.262138 
z"/>
<path fill="#7B91A1" opacity="1.000000" stroke="none" 
	d="
M120.422501,117.568108 
	C113.843979,118.990456 107.682953,116.021233 101.260956,115.553925 
	C100.459213,115.495583 99.715591,115.143738 98.672104,115.840248 
	C98.272331,115.533546 98.167915,115.057358 98.194000,114.235260 
	C105.570068,114.057434 112.647507,115.322029 120.046310,117.355042 
	C120.455147,117.552971 120.388084,117.560204 120.422501,117.568108 
z"/>
<path fill="#071C2D" opacity="1.000000" stroke="none" 
	d="
M42.529610,183.329895 
	C42.661728,181.680191 42.090164,180.240158 43.701542,179.198273 
	C45.072166,182.791702 44.248962,186.259445 44.110149,190.446014 
	C41.694611,187.984650 42.880108,185.726654 42.529610,183.329895 
z"/>
<path fill="#17313E" opacity="1.000000" stroke="none" 
	d="
M171.055603,182.637390 
	C170.518814,183.097000 169.876160,183.239014 169.118896,183.694305 
	C169.003876,185.435425 169.146561,186.881714 168.965546,188.286285 
	C168.756165,189.911087 168.014069,190.263992 166.912659,188.344238 
	C165.822586,186.000183 165.314484,183.975571 166.643280,181.432892 
	C169.795074,176.404388 169.535278,182.001984 171.055603,182.637390 
z"/>
<path fill="#253B47" opacity="1.000000" stroke="none" 
	d="
M106.036766,182.443497 
	C105.897484,183.107803 105.668732,183.441147 105.168434,183.917603 
	C102.758278,185.101318 105.454491,187.991455 102.599968,189.174454 
	C101.453835,186.309570 102.160027,183.416656 102.112312,180.630981 
	C102.105103,180.209671 102.939720,179.384415 103.334137,179.414383 
	C104.891403,179.532730 105.084656,181.183960 106.036766,182.443497 
z"/>
<path fill="#213744" opacity="1.000000" stroke="none" 
	d="
M160.518951,180.008667 
	C157.918396,181.842590 155.364136,183.802963 158.713165,187.828430 
	C159.105240,188.317276 159.220322,188.587418 159.123398,189.243622 
	C155.516663,188.756409 154.753220,186.263641 155.207611,183.244598 
	C155.621002,180.498093 157.398666,179.447647 160.518951,180.008667 
z"/>
<path fill="#213241" opacity="1.000000" stroke="none" 
	d="
M151.093811,184.078110 
	C151.292007,182.171265 150.523178,180.400955 152.581497,178.986771 
	C153.676773,182.817078 152.995911,186.219101 153.080414,190.228897 
	C150.189072,188.423569 151.474716,186.238052 151.093811,184.078110 
z"/>
<path fill="#3D4D58" opacity="1.000000" stroke="none" 
	d="
M82.067406,181.283417 
	C84.896584,177.878922 87.360931,178.692261 90.852753,182.469604 
	C87.618912,181.854218 85.681007,179.806763 83.432404,182.025940 
	C82.724998,182.110962 82.402527,181.894333 82.067406,181.283417 
z"/>
<path fill="#475A64" opacity="1.000000" stroke="none" 
	d="
M114.749741,182.963440 
	C116.552071,183.890915 118.672119,182.528244 120.082687,184.225235 
	C119.279243,186.702988 115.098549,183.226105 115.203873,187.449539 
	C114.850716,188.314590 114.377197,188.506821 113.435410,188.225952 
	C113.018768,186.940033 112.958893,185.852478 112.995979,184.366104 
	C113.479256,183.540131 113.882713,183.136719 114.749741,182.963440 
z"/>
<path fill="#0F2232" opacity="1.000000" stroke="none" 
	d="
M123.762962,180.072418 
	C126.155846,179.034485 128.423157,178.851486 130.257523,180.552032 
	C131.564407,181.763611 131.241394,183.161987 129.517700,184.459351 
	C129.003586,184.557770 128.808151,184.453522 128.394043,184.101959 
	C127.513565,182.559311 126.244446,182.216446 124.693398,181.677521 
	C124.016472,181.222153 123.765717,180.840622 123.762962,180.072418 
z"/>
<path fill="#213241" opacity="1.000000" stroke="none" 
	d="
M81.730568,181.195343 
	C82.288139,181.221436 82.589478,181.448715 83.008575,181.940857 
	C83.093239,183.478973 83.060150,184.752243 83.075806,186.407654 
	C83.388931,187.326553 83.269310,187.756454 82.383530,188.039444 
	C80.101303,185.936050 80.545738,183.685608 81.730568,181.195343 
z"/>
<path fill="#3D4D58" opacity="1.000000" stroke="none" 
	d="
M128.563843,182.822311 
	C128.978607,183.172516 129.036072,183.468323 129.146271,184.213074 
	C129.025665,186.554459 132.144852,187.576080 130.613083,189.895294 
	C128.442078,189.487686 128.212143,187.366577 126.999985,185.770157 
	C126.804062,185.239532 126.681557,185.032013 126.575623,184.462631 
	C126.918922,183.400452 127.476860,182.980194 128.563843,182.822311 
z"/>
<path fill="#071C2D" opacity="1.000000" stroke="none" 
	d="
M162.744110,187.131317 
	C163.319473,184.808716 162.874023,182.923538 162.676575,180.896301 
	C163.504288,181.045731 163.994904,181.344955 164.710327,181.828156 
	C166.128723,183.292435 166.106171,184.742661 165.250885,186.632538 
	C164.690338,187.156830 164.458694,187.372177 164.093231,187.793655 
	C163.390778,188.066559 162.975769,187.901184 162.744110,187.131317 
z"/>
<path fill="#001424" opacity="1.000000" stroke="none" 
	d="
M126.891754,183.744934 
	C126.969841,184.284134 126.957527,184.516556 126.935883,185.098022 
	C126.497902,185.347504 126.069244,185.247971 125.318939,185.074493 
	C124.833321,185.162079 124.669357,185.323608 124.225739,185.687592 
	C123.946098,186.796265 123.946098,187.702499 123.946098,188.608719 
	C123.661659,188.626495 123.377228,188.644287 123.092789,188.662064 
	C123.092789,185.808640 123.092789,182.955231 123.503128,179.927048 
	C124.071396,180.064606 124.229317,180.376938 124.615593,180.825912 
	C125.703392,181.624130 126.382317,182.428406 126.891754,183.744934 
z"/>
<path fill="#072433" opacity="1.000000" stroke="none" 
	d="
M115.041107,182.539429 
	C114.591225,183.318024 114.145973,183.687424 113.396835,184.012054 
	C112.011841,177.080734 117.282196,181.182556 119.965759,179.569458 
	C118.698448,182.279938 115.739380,179.526825 115.041107,182.539429 
z"/>
<path fill="#072433" opacity="1.000000" stroke="none" 
	d="
M113.121597,188.409332 
	C113.550972,187.925812 114.023293,187.824036 114.854172,187.784973 
	C116.684151,187.931641 118.155579,188.015594 120.472092,188.147766 
	C117.625496,190.552704 115.476723,190.733185 113.121597,188.409332 
z"/>
<path fill="#F0F1F2" opacity="1.000000" stroke="none" 
	d="
M165.221725,187.079910 
	C164.957047,185.611191 164.942474,184.227524 164.931534,182.427979 
	C165.403366,181.758728 165.871567,181.505325 166.579559,181.130936 
	C166.874298,183.051636 166.929260,185.093338 166.901642,187.565918 
	C166.369965,187.719528 165.920914,187.442245 165.221725,187.079910 
z"/>
<path fill="#3D4D58" opacity="1.000000" stroke="none" 
	d="
M162.523315,186.931244 
	C163.031631,187.081833 163.225967,187.389145 163.665024,187.821411 
	C162.963455,189.785141 161.294342,190.026627 159.196411,189.790070 
	C158.925751,189.365997 158.940125,189.102295 158.972321,188.442856 
	C160.153931,188.031906 161.360535,188.160400 162.523315,186.931244 
z"/>
<path fill="#3D4D58" opacity="1.000000" stroke="none" 
	d="
M82.156555,188.336456 
	C82.297150,187.770386 82.592941,187.541412 83.006638,187.051117 
	C84.507950,187.481415 85.891357,188.173035 87.886200,189.170334 
	C85.391144,190.630722 83.861496,189.538010 82.156555,188.336456 
z"/>
<path fill="#3D4D58" opacity="1.000000" stroke="none" 
	d="
M88.753342,186.748367 
	C88.818794,185.716919 89.336121,185.411301 89.996407,185.753876 
	C90.243843,185.882248 90.424751,186.665421 90.268127,186.940887 
	C89.894562,187.597885 89.298683,187.599976 88.753342,186.748367 
z"/>
<path fill="#3D4D58" opacity="1.000000" stroke="none" 
	d="
M124.095245,185.712982 
	C124.101646,185.563843 124.257187,185.237640 124.705002,184.955994 
	C124.723534,185.147003 124.472565,185.325455 124.095245,185.712982 
z"/>
<path fill="#7B91A1" opacity="1.000000" stroke="none" 
	d="
M121.481331,117.692230 
	C121.221619,117.712051 121.131378,117.601906 121.041145,117.491760 
	C121.244362,117.515259 121.447586,117.538765 121.481331,117.692230 
z"/>
<path fill="#6C6E77" opacity="1.000000" stroke="none" 
	d="
M20.763382,225.310516 
	C22.740244,223.897446 24.975248,223.148224 26.356325,224.723877 
	C27.611322,226.155655 26.884659,228.127441 24.394335,228.949570 
	C22.312012,228.416183 20.586613,227.909073 20.763382,225.310516 
z"/>
<path fill="#001424" opacity="1.000000" stroke="none" 
	d="
M20.623257,225.036713 
	C20.416149,227.315567 23.107098,226.967300 23.869955,228.633438 
	C22.275578,230.686127 20.091129,228.944382 18.167671,229.641174 
	C17.537464,229.869461 17.018669,229.083160 17.139978,228.378494 
	C17.444090,226.612061 18.620232,225.599380 20.623257,225.036713 
z"/>
<path fill="#777A81" opacity="1.000000" stroke="none" 
	d="
M8.905176,226.247925 
	C9.544518,225.785904 10.124269,225.555130 10.266071,225.165115 
	C10.912833,223.386215 12.046549,223.341751 13.581244,223.932449 
	C14.470805,224.274841 15.128636,224.688431 14.640795,225.651337 
	C13.972409,226.970612 13.085435,227.646057 11.281196,227.603668 
	C9.979603,227.573090 9.127205,227.759186 8.905176,226.247925 
z"/>
<path fill="#A2A7AB" opacity="1.000000" stroke="none" 
	d="
M34.847385,224.335938 
	C36.252644,224.374527 35.655933,229.228134 38.653687,225.205368 
	C39.735504,223.753647 39.848854,227.456085 41.664459,227.796936 
	C41.524723,228.239822 41.203514,228.316666 40.421532,228.211548 
	C38.497467,227.092560 37.134487,229.650681 35.358559,228.011673 
	C34.694916,227.540176 34.425449,227.142334 34.189743,226.323288 
	C34.180710,225.467529 34.326443,225.008240 34.847385,224.335938 
z"/>
<path fill="#6C6E77" opacity="1.000000" stroke="none" 
	d="
M176.671097,228.048004 
	C174.934280,227.881775 173.317657,228.705093 172.102676,226.762894 
	C174.020218,225.369690 176.287247,225.585098 177.923523,226.351425 
	C179.475510,227.078232 177.890152,227.691208 176.671097,228.048004 
z"/>
<path fill="#777A81" opacity="1.000000" stroke="none" 
	d="
M34.761909,225.716293 
	C34.982899,226.358566 35.021408,226.789429 35.060959,227.545258 
	C33.682571,227.634430 31.859238,227.666763 31.755493,225.910522 
	C31.700901,224.986374 31.670776,222.888229 34.127777,223.592529 
	C34.491982,224.390259 34.465897,224.957535 34.761909,225.716293 
z"/>
<path fill="#6C6E77" opacity="1.000000" stroke="none" 
	d="
M181.353271,227.057281 
	C182.866898,225.541672 184.300552,225.917297 186.345505,226.671295 
	C184.475037,228.555252 182.944168,228.322113 181.353271,227.057281 
z"/>
<path fill="#D2D5D7" opacity="1.000000" stroke="none" 
	d="
M43.607018,227.713852 
	C42.684624,226.354767 42.779415,224.912292 43.227726,223.099106 
	C44.223808,224.706253 46.065926,225.793091 43.607018,227.713852 
z"/>
<path fill="#4E5E67" opacity="1.000000" stroke="none" 
	d="
M205.836395,226.245544 
	C206.830750,225.619568 207.856125,224.533295 208.294159,226.176956 
	C208.702698,227.709900 207.949173,228.343063 206.158112,227.495972 
	C205.836716,226.999084 205.744858,226.777283 205.836395,226.245544 
z"/>
<path fill="#3B3C49" opacity="1.000000" stroke="none" 
	d="
M34.947769,225.618652 
	C34.165039,225.671921 34.279774,225.061417 34.353207,224.155609 
	C34.343025,223.847946 34.741676,223.931274 34.929382,224.010345 
	C35.061771,224.496140 35.006458,224.902893 34.947769,225.618652 
z"/>
<path fill="#777A81" opacity="1.000000" stroke="none" 
	d="
M40.074646,228.244675 
	C40.275890,228.030670 40.591022,228.031738 41.376045,228.097900 
	C41.534492,229.607986 40.822788,228.817581 40.074646,228.244675 
z"/>
<path fill="#576674" opacity="1.000000" stroke="none" 
	d="
M205.780411,225.994781 
	C206.007263,226.149673 205.994720,226.363724 205.955383,226.899323 
	C205.599060,226.898438 205.037491,226.653061 205.780411,225.994781 
z"/>
<path fill="#4E5E67" opacity="1.000000" stroke="none" 
	d="
M209.468414,228.387207 
	C209.525742,228.338730 209.411072,228.435669 209.468414,228.387207 
z"/>
<path fill="#FF214D" opacity="1.000000" stroke="none" 
	d="
M109.773895,78.774689 
	C108.349304,80.676880 107.990562,82.983192 105.158516,84.480392 
	C106.660400,79.979095 107.678413,76.204933 109.180496,72.634407 
	C110.613426,69.228294 109.315826,68.612190 106.248375,68.777283 
	C104.683815,68.861481 102.992889,69.287239 101.158119,68.148354 
	C102.799866,64.210014 104.446350,60.278000 106.078392,56.339993 
	C107.540131,52.812912 110.491043,54.465412 113.164604,54.188385 
	C113.233139,57.381912 110.716034,59.632839 110.513649,62.548981 
	C118.568962,63.458145 118.557442,63.451447 114.355316,70.679382 
	C112.857620,73.255501 111.430725,75.872787 109.773895,78.774689 
z"/>
<path fill="#F0F1F2" opacity="1.000000" stroke="none" 
	d="
M49.308983,187.510010 
	C49.045391,186.485016 48.870255,185.790848 49.031891,185.186798 
	C49.401600,183.805145 47.822430,181.698135 50.256245,181.112305 
	C51.954323,180.703598 53.123257,181.754684 53.420612,183.417877 
	C53.787121,185.467880 53.634571,187.408661 51.016506,187.912170 
	C50.547104,188.002441 50.040043,187.896896 49.308983,187.510010 
z"/>
<path fill="#F0F1F2" opacity="1.000000" stroke="none" 
	d="
M127.234917,183.922424 
	C125.480637,184.003738 124.389336,183.541702 124.740417,181.345398 
	C126.219109,181.223663 127.960297,180.218384 128.890732,182.500061 
	C128.443329,183.182190 127.965500,183.487656 127.234917,183.922424 
z"/>
</svg>