<svg version="1.1" id="Layer_1" xmlns="http://www.w3.org/2000/svg" xmlns:xlink="http://www.w3.org/1999/xlink" x="0px" y="0px"
	 width="100%" viewBox="0 0 1220 1220" enable-background="new 0 0 1220 1220" xml:space="preserve">
<path fill="#000000" opacity="1.000000" stroke="none" 
	d="
M707.000000,1221.000000 
	C471.333344,1221.000000 236.166672,1221.000000 1.000000,1221.000000 
	C1.000000,814.333313 1.000000,407.666656 1.000000,1.000000 
	C407.666656,1.000000 814.333313,1.000000 1221.000000,1.000000 
	C1221.000000,407.666656 1221.000000,814.333313 1221.000000,1221.000000 
	C1049.833374,1221.000000 878.666687,1221.000000 707.000000,1221.000000 
M447.164520,550.020752 
	C426.330353,562.043762 405.323486,573.784668 384.813141,586.336731 
	C380.883759,588.741455 377.530609,593.978027 376.335419,598.542725 
	C374.236633,606.558167 373.193665,615.058594 373.137726,623.365479 
	C372.844757,666.863220 372.993317,710.363953 373.027893,753.863647 
	C373.029297,755.652161 373.312958,757.462402 373.656189,759.225342 
	C376.235229,772.472778 382.541534,784.247864 389.407837,795.518127 
	C401.666016,815.638672 414.452789,835.460876 427.669342,854.966858 
	C439.883667,872.993713 452.728088,890.607849 465.698761,908.104492 
	C481.999359,930.092896 498.625854,951.841919 515.293945,973.554443 
	C520.612915,980.483154 527.666016,984.967346 536.738831,984.972717 
	C616.904968,985.019958 697.071106,985.033142 777.237122,984.952026 
	C785.808838,984.943359 792.937378,981.100586 797.864685,974.197205 
	C805.562073,963.412903 813.199097,952.541565 820.098267,941.240906 
	C832.892944,920.283508 845.736084,899.313416 857.398132,877.721558 
	C865.153931,863.362000 871.449524,848.130920 877.400574,832.899963 
	C885.260803,812.782349 889.985779,791.849243 889.993286,770.075195 
	C890.011536,716.908875 890.062012,663.742493 889.961121,610.576355 
	C889.930725,594.536865 883.797363,581.319336 869.671448,573.021423 
	C854.272705,563.975830 838.726440,555.100891 822.732849,547.185120 
	C815.662354,543.685669 812.201660,545.110718 812.052002,553.822876 
	C811.848694,565.652649 811.790649,577.494263 812.113831,589.318665 
	C812.227783,593.488159 810.324036,595.932800 807.301697,597.823914 
	C801.058472,601.730347 794.074036,596.757629 794.024353,588.333801 
	C793.939880,574.001038 794.324951,559.655212 793.786499,545.342224 
	C793.640259,541.455627 791.768005,536.829346 789.111755,534.047607 
	C785.872986,530.655823 781.222107,528.199646 776.744202,526.476501 
	C759.057739,519.670837 741.229980,513.226746 723.390076,506.828491 
	C716.796570,504.463776 710.543091,505.909180 710.864624,515.488586 
	C711.373047,530.638123 711.023743,545.817261 710.987915,560.983765 
	C710.973267,567.195740 708.300110,571.942200 704.388550,572.986206 
	C697.448547,574.838501 692.042664,570.160400 692.017517,562.098083 
	C691.962402,544.431763 692.001343,526.765076 691.999573,509.098541 
	C691.998657,499.939758 688.166870,495.058685 679.291199,493.015930 
	C660.034607,488.584045 640.766846,484.200256 621.512817,479.757202 
	C612.590698,477.698364 609.002258,480.443085 609.001404,489.476746 
	C608.997925,527.309814 609.041931,565.143005 608.914246,602.975647 
	C608.904724,605.798828 608.288757,608.977966 606.882019,611.357422 
	C604.578430,615.253784 600.355469,615.924683 596.319580,614.616699 
	C591.929626,613.193970 590.941284,609.514404 590.944580,605.103699 
	C591.016541,509.104431 591.025513,413.105042 590.955933,317.105774 
	C590.949463,308.168884 590.527527,299.220276 589.960022,290.298615 
	C589.083679,276.520264 582.802490,264.936951 573.035645,255.793457 
	C558.923828,242.582352 541.892151,237.650757 522.554321,240.923904 
	C494.336517,245.700165 475.050262,269.783936 475.033936,297.819977 
	C474.957520,428.985657 475.000000,560.151428 474.999817,691.317200 
	C474.999817,692.650513 475.479462,694.259155 474.905060,695.265442 
	C473.191162,698.267944 471.618835,702.379883 468.930817,703.489441 
	C466.554199,704.470398 462.629944,702.280090 459.642212,700.929688 
	C458.373108,700.356018 457.750031,698.353210 456.965881,696.070801 
	C456.965881,646.024536 456.965881,595.978271 456.965881,544.518860 
	C453.456146,546.621094 450.670807,548.289368 447.164520,550.020752 
M401.448822,194.065094 
	C402.775848,191.074036 403.917633,187.983627 405.459747,185.107925 
	C415.926392,165.590149 429.296539,148.504745 447.241638,135.214157 
	C482.039307,109.442070 520.754517,100.044456 563.103394,109.164856 
	C605.536804,118.303474 637.777893,142.428452 658.905334,180.314789 
	C674.359619,208.027771 680.056702,237.888428 675.130554,269.659912 
	C671.859802,290.754395 664.550232,310.074768 652.744263,327.761108 
	C642.199890,343.557526 629.105347,356.830750 613.247925,367.330017 
	C610.929749,368.864929 609.771667,370.606934 609.889648,373.721771 
	C610.210938,382.208679 610.000000,390.715759 610.000000,399.214844 
	C610.000000,411.007446 610.000000,422.800049 610.000000,434.743347 
	C683.065918,407.130157 750.284851,322.041656 731.802979,213.803452 
	C723.202820,163.437180 698.059143,121.970535 657.765747,90.464241 
	C614.751526,56.830479 565.478760,43.471443 511.283325,49.083946 
	C466.609009,53.710438 427.558197,71.756813 395.162506,102.617210 
	C355.213196,140.673203 333.851685,188.072266 332.282074,243.165436 
	C330.740753,297.266449 348.699982,345.086792 385.198883,385.308197 
	C405.069336,407.205200 428.966522,423.755798 456.991455,435.246552 
	C456.991455,413.429199 457.036896,392.290588 456.871124,371.153656 
	C456.861816,369.970337 455.327667,368.480743 454.137238,367.673462 
	C440.232574,358.244415 427.980774,346.992126 418.222595,333.357391 
	C406.206207,316.567322 397.479950,298.150360 393.359924,277.744171 
	C389.778259,260.004028 388.912750,242.190231 392.895569,224.454163 
	C395.142792,214.446762 398.327698,204.649902 401.448822,194.065094 
M132.521805,1144.017456 
	C134.170898,1145.664673 135.792618,1147.340332 137.474472,1148.953369 
	C141.600357,1152.910522 143.432480,1152.913452 147.460373,1149.038574 
	C151.820084,1144.844482 152.188873,1141.945068 148.521469,1138.061157 
	C145.555450,1134.920044 142.338150,1132.016113 139.271927,1129.045288 
	C163.428085,1095.682373 152.806091,1058.225098 131.667252,1040.242798 
	C108.837929,1020.822449 70.565018,1020.916931 48.041229,1040.428833 
	C24.265535,1061.025269 20.668911,1097.672852 36.394020,1123.688843 
	C44.459320,1137.032227 56.328354,1145.802246 71.343613,1150.091431 
	C91.968132,1155.983032 111.054245,1152.316528 129.005630,1139.856445 
	C130.117111,1141.210205 131.068726,1142.369263 132.521805,1144.017456 
M614.000000,1169.477905 
	C614.000000,1171.808350 613.989136,1174.139038 614.003906,1176.469360 
	C614.013428,1177.965820 613.667297,1179.612305 614.169800,1180.928467 
	C615.357849,1184.040039 617.829651,1184.981934 621.225647,1185.096558 
	C630.536316,1185.410522 632.346680,1183.878174 632.075439,1174.516113 
	C631.754333,1163.429688 632.000000,1152.326904 632.000000,1140.305786 
	C639.359375,1148.869751 648.196899,1153.138550 658.347168,1152.833740 
	C673.634705,1152.374268 685.925659,1145.794556 692.733521,1131.482056 
	C699.928162,1116.356201 699.950439,1100.666016 694.471069,1085.033691 
	C688.658447,1068.450439 676.260864,1060.402954 659.504822,1060.123413 
	C648.391113,1059.938110 638.806396,1064.313477 632.440430,1072.008911 
	C630.637695,1068.897217 629.536316,1064.202637 626.726501,1062.697388 
	C619.746582,1058.958130 614.004028,1063.197021 614.002563,1071.103027 
	C613.996704,1103.563477 614.000000,1136.023926 614.000000,1169.477905 
M756.052063,1026.014404 
	C745.306396,1025.750000 734.850098,1025.961914 724.865662,1031.408813 
	C709.864807,1039.592407 703.784668,1058.965088 711.283752,1073.800049 
	C715.160767,1081.469727 721.648987,1086.070312 728.783508,1089.869629 
	C738.752625,1095.178223 749.139526,1099.710571 759.039062,1105.138062 
	C764.613647,1108.194336 767.315430,1113.887939 766.832275,1120.125854 
	C766.334290,1126.555664 762.595703,1131.390625 756.377747,1133.789551 
	C749.923523,1136.279541 743.250488,1137.009033 736.756775,1134.251099 
	C731.235352,1131.906006 725.908020,1129.071411 720.617126,1126.226074 
	C716.241150,1123.872681 712.522339,1124.796021 709.233398,1129.467407 
	C705.749878,1134.415283 705.861084,1137.494263 710.280762,1140.747314 
	C722.748413,1149.924316 736.523499,1153.993164 752.188538,1152.120605 
	C767.006165,1150.349243 777.707825,1143.794434 783.180481,1129.466675 
	C786.792419,1120.010376 785.155090,1103.570435 776.795532,1095.954834 
	C769.882874,1089.657471 761.796692,1086.010620 753.716064,1082.039917 
	C747.417603,1078.944824 740.813171,1076.384766 734.802307,1072.816162 
	C728.619202,1069.145264 725.801636,1063.167236 727.065674,1055.876953 
	C728.168701,1049.515503 732.672180,1046.026367 738.489685,1044.291748 
	C748.473389,1041.314819 757.975403,1042.924194 766.960449,1048.000244 
	C775.132263,1052.616943 776.642090,1052.250488 780.941589,1044.100708 
	C782.878296,1040.429810 782.666138,1036.798340 778.569031,1034.941284 
	C771.481079,1031.728394 764.172485,1029.002075 756.052063,1026.014404 
M381.000732,1076.500000 
	C381.000793,1098.164307 380.986633,1119.828491 381.008301,1141.492798 
	C381.016418,1149.624634 388.025909,1153.945190 395.361115,1150.015015 
	C397.080505,1149.093750 398.768036,1146.364258 398.838104,1144.408325 
	C399.189850,1134.588623 398.999969,1124.749634 399.000305,1114.917358 
	C399.000366,1113.341553 399.000305,1111.765869 399.000305,1109.999878 
	C400.997650,1109.999878 402.178314,1110.135986 403.317719,1109.976929 
	C408.798157,1109.211060 412.320465,1111.047119 415.225983,1116.194458 
	C420.687439,1125.869629 427.067688,1135.027710 433.105835,1144.375000 
	C436.942902,1150.314941 442.224274,1152.421021 449.132294,1150.876465 
	C454.395874,1149.699585 455.612213,1146.631104 452.498901,1141.955933 
	C443.465668,1128.391235 434.368103,1114.869263 425.334137,1101.387817 
	C428.106628,1097.849609 430.769714,1094.512573 433.366272,1091.124512 
	C438.751953,1084.097290 444.162109,1077.087158 449.434326,1069.975220 
	C451.241028,1067.538086 451.915344,1064.909790 448.628510,1062.892212 
	C444.528320,1060.375488 434.570709,1062.030396 431.699432,1065.866943 
	C427.285767,1071.764160 423.066376,1077.806763 418.653809,1083.704834 
	C413.873444,1090.094604 409.632446,1097.716431 399.000061,1092.963989 
	C399.000061,1091.586670 399.000092,1089.787598 399.000092,1087.988403 
	C399.000031,1070.490356 399.063049,1052.991943 398.918365,1035.495117 
	C398.900696,1033.357910 398.154114,1029.639771 397.084229,1029.380249 
	C393.018860,1028.394287 388.475830,1027.679199 384.542023,1028.635132 
	C382.825592,1029.052124 381.233063,1033.725464 381.157440,1036.508667 
	C380.804535,1049.497559 381.000793,1062.501465 381.000732,1076.500000 
M1027.976562,1100.348755 
	C1027.983521,1104.886963 1027.616211,1109.463013 1028.072510,1113.955566 
	C1029.138062,1124.445435 1033.499268,1133.613403 1041.295532,1140.681030 
	C1057.668335,1155.523560 1084.024780,1156.615234 1102.415894,1144.250244 
	C1107.820801,1140.616333 1108.401001,1138.621460 1105.332397,1133.862183 
	C1101.704712,1128.235840 1099.750610,1127.938599 1094.187134,1131.231079 
	C1083.220337,1137.720947 1071.919678,1139.720337 1060.171753,1133.046021 
	C1051.285278,1127.997314 1045.215698,1117.586792 1046.603027,1108.999268 
	C1062.494019,1108.999268 1078.458984,1108.999268 1094.423950,1108.999268 
	C1109.183472,1108.999268 1109.703125,1108.943115 1108.848389,1094.008423 
	C1108.125977,1081.384521 1102.198120,1071.271240 1090.771118,1064.951172 
	C1082.241943,1060.233765 1073.321167,1059.503174 1063.660889,1060.846558 
	C1043.498413,1063.650635 1029.591919,1079.900757 1027.976562,1100.348755 
M558.745789,1076.017090 
	C559.744690,1075.992310 560.762207,1076.083130 561.739624,1075.925171 
	C576.730103,1073.505005 585.688843,1084.179321 582.319641,1096.000000 
	C578.341431,1096.000000 574.192688,1095.733154 570.089661,1096.052612 
	C559.782288,1096.855347 549.612183,1098.231079 540.267822,1103.277100 
	C529.715027,1108.975708 524.682129,1122.099609 527.738892,1133.718750 
	C531.553833,1148.219727 550.827881,1156.165283 566.416260,1151.275879 
	C573.636719,1149.011108 578.811340,1144.364258 584.035645,1137.523315 
	C584.035645,1140.682617 583.825378,1142.618164 584.076111,1144.492065 
	C584.754395,1149.562500 588.140808,1151.639648 594.653442,1150.967896 
	C599.094666,1150.509888 601.152405,1148.274048 601.089905,1143.423584 
	C600.862488,1125.768555 601.163391,1108.106689 600.939636,1090.451538 
	C600.801819,1079.579102 593.714905,1066.421753 581.438538,1062.605103 
	C566.123718,1057.843872 552.094482,1060.628662 538.216187,1067.304077 
	C533.587341,1069.530518 534.579102,1072.893921 535.850464,1076.421631 
	C537.272461,1080.367432 539.385620,1083.254761 544.290161,1081.330322 
	C548.815735,1079.554688 553.361633,1077.830811 558.745789,1076.017090 
M1173.470581,1122.039795 
	C1180.526245,1104.632690 1187.651001,1087.253174 1194.567139,1069.790771 
	C1195.681763,1066.976807 1195.802612,1063.910400 1191.941040,1062.430298 
	C1184.780640,1059.685791 1177.937866,1062.392578 1175.308594,1069.396729 
	C1170.776367,1081.470093 1166.427734,1093.612305 1161.964844,1105.711792 
	C1159.359619,1112.774780 1156.682007,1119.810791 1153.661865,1127.858398 
	C1153.286743,1125.909668 1153.244263,1124.954102 1152.918823,1124.107300 
	C1145.477905,1104.749756 1138.067627,1085.379883 1130.489380,1066.075928 
	C1128.931152,1062.106689 1120.013184,1060.324097 1114.849976,1062.634644 
	C1109.457886,1065.047729 1112.022217,1069.265747 1113.306885,1072.349243 
	C1121.981445,1093.172363 1131.150269,1113.790039 1139.779053,1134.631592 
	C1142.601074,1141.447754 1147.746582,1147.768799 1143.060791,1156.398560 
	C1136.764893,1167.994141 1133.071411,1174.251953 1120.187744,1170.445068 
	C1114.493286,1168.762573 1113.649902,1172.439941 1112.121338,1175.795288 
	C1110.389893,1179.596069 1111.763184,1182.278564 1115.428711,1184.128174 
	C1127.524414,1190.232056 1144.686401,1186.565796 1150.845459,1174.403564 
	C1159.301758,1157.705078 1165.773315,1140.001465 1173.470581,1122.039795 
M245.000412,1087.500000 
	C245.000000,1081.167969 245.123566,1074.831665 244.914062,1068.506592 
	C244.860138,1066.878662 244.002182,1064.068237 243.095154,1063.886353 
	C239.066055,1063.077881 234.757523,1062.260254 230.794586,1062.918457 
	C226.850159,1063.573608 227.022018,1067.736816 227.012772,1071.043701 
	C226.982040,1082.041504 226.761963,1093.046387 227.088058,1104.034546 
	C227.291962,1110.905396 225.398849,1116.941650 222.071533,1122.777344 
	C216.696899,1132.203491 205.723785,1137.723145 195.495895,1135.965454 
	C189.007568,1134.850464 184.053268,1128.177612 184.020172,1120.181030 
	C183.953278,1104.017944 183.861969,1087.852539 184.047882,1071.691284 
	C184.170029,1061.070801 178.346130,1060.777222 169.801331,1062.923340 
	C168.181870,1063.330078 166.634430,1066.332031 166.154419,1068.392944 
	C165.528564,1071.080078 165.956314,1074.023560 166.007217,1076.855469 
	C166.326462,1094.619751 166.002136,1112.435547 167.380707,1130.118042 
	C167.830215,1135.883667 171.391098,1143.025635 175.878143,1146.531372 
	C186.248199,1154.633545 198.794678,1155.176392 210.631165,1149.468018 
	C217.019989,1146.386841 222.405243,1141.224854 227.999847,1137.177612 
	C227.999847,1138.725830 227.985489,1141.195801 228.002747,1143.665649 
	C228.041656,1149.238403 230.124802,1151.011841 236.588058,1150.999268 
	C242.939606,1150.986938 244.990540,1149.181274 244.994934,1143.489136 
	C245.009094,1125.159424 245.000336,1106.829712 245.000412,1087.500000 
M848.443237,1147.040771 
	C852.523987,1143.369873 856.604736,1139.698975 861.000183,1135.744873 
	C861.000183,1138.443359 860.985962,1141.048462 861.003174,1143.653442 
	C861.039307,1149.112915 863.137695,1151.016479 869.071167,1150.998657 
	C875.874939,1150.978149 877.991882,1149.217529 877.994751,1143.468872 
	C878.006775,1118.983032 878.003418,1094.497070 877.997681,1070.011230 
	C877.996216,1063.808350 876.130432,1062.043335 869.593872,1062.000977 
	C862.092163,1061.952271 860.034180,1063.616943 860.012390,1069.979858 
	C859.970703,1082.139404 860.416565,1094.317261 859.890442,1106.454102 
	C859.282166,1120.486938 851.846130,1132.325684 837.470764,1135.613159 
	C828.444458,1137.677368 820.411133,1135.386597 817.389771,1124.675537 
	C816.420898,1121.240845 816.092957,1117.531982 816.059631,1113.942993 
	C815.918945,1098.786377 816.010925,1083.627808 815.993896,1068.469849 
	C815.987732,1062.958252 814.916016,1062.045898 808.615845,1062.000977 
	C801.397400,1061.949463 799.023376,1063.575317 799.013916,1068.802612 
	C798.979614,1087.625122 798.899414,1106.448364 799.035400,1125.269897 
	C799.131165,1138.521973 808.138672,1150.005859 819.428589,1151.980957 
	C829.454590,1153.734863 838.986328,1152.703735 848.443237,1147.040771 
M545.988708,1038.994751 
	C546.027161,1027.999878 546.027161,1027.999756 534.942078,1027.999756 
	C506.971008,1027.999756 478.999939,1027.990234 451.028870,1028.009277 
	C446.123322,1028.012573 444.042938,1030.254150 444.002258,1035.383545 
	C443.954773,1041.372070 445.885773,1043.868896 450.994659,1043.968140 
	C457.319061,1044.091064 463.647675,1043.998901 469.974457,1043.999268 
	C475.229614,1043.999634 480.484802,1043.999268 486.000732,1043.999268 
	C486.000732,1046.733032 486.000763,1048.714966 486.000763,1050.697021 
	C486.000854,1081.332031 485.991943,1111.966919 486.007996,1142.601929 
	C486.011536,1149.339966 488.008362,1151.031616 495.711761,1150.999146 
	C502.173065,1150.971924 503.997437,1149.195801 503.998352,1142.877197 
	C504.002808,1111.909180 504.000427,1080.941284 504.000458,1049.973267 
	C504.000458,1048.059937 504.000458,1046.146606 504.000458,1043.998779 
	C515.943604,1043.998779 527.098083,1044.255249 538.224487,1043.809814 
	C540.846191,1043.704956 543.373169,1041.234009 545.988708,1038.994751 
M349.155670,1079.080078 
	C351.227722,1080.380981 353.175354,1081.971313 355.396301,1082.925659 
	C360.997650,1085.332275 362.856659,1080.598389 365.113220,1077.235962 
	C367.033905,1074.373901 366.222748,1071.688599 363.346375,1069.703857 
	C361.593445,1068.494263 359.984131,1067.006836 358.098450,1066.071045 
	C348.351044,1061.234375 338.321869,1059.074585 327.211060,1060.789429 
	C317.287781,1062.320923 308.300568,1065.474976 301.257477,1072.416748 
	C288.426453,1085.063232 284.449493,1100.584961 288.559814,1118.081055 
	C292.446869,1134.626709 302.530396,1145.493042 318.878021,1150.436279 
	C327.522980,1153.050537 336.543091,1154.223999 345.074463,1151.626221 
	C352.407104,1149.393311 359.306305,1145.335327 365.917480,1141.298706 
	C369.381744,1139.183472 368.783173,1133.891113 365.312378,1129.929932 
	C362.649200,1126.890503 359.903656,1127.767944 356.562714,1129.625610 
	C351.329865,1132.535156 345.797668,1135.994629 340.069916,1136.738525 
	C314.624359,1140.042603 300.451752,1116.537231 306.694244,1096.725586 
	C312.324097,1078.858398 330.437927,1071.139160 349.155670,1079.080078 
M961.101746,1106.314941 
	C966.056763,1119.285156 970.847778,1132.322510 976.117065,1145.163818 
	C977.072021,1147.490967 979.721008,1150.075806 982.058899,1150.661377 
	C985.646790,1151.560181 989.811279,1151.483643 993.407715,1150.560547 
	C995.856384,1149.932373 998.540283,1147.556519 999.728149,1145.246704 
	C1002.023254,1140.783936 1003.300110,1135.802368 1005.060791,1131.058960 
	C1012.336060,1111.458740 1019.587891,1091.849731 1026.955444,1072.284424 
	C1028.905396,1067.106323 1028.468140,1063.988037 1025.052490,1062.547852 
	C1019.808838,1060.337036 1011.796387,1062.399170 1010.259094,1066.479858 
	C1008.072021,1072.285522 1006.031677,1078.146484 1003.939880,1083.988037 
	C998.445740,1099.330811 992.957642,1114.675781 987.455933,1130.051270 
	C986.422607,1126.604370 985.539612,1123.147949 984.356079,1119.797729 
	C978.590027,1103.477295 972.763184,1087.178345 966.917664,1070.886108 
	C963.888184,1062.442505 961.878784,1061.245850 952.464905,1062.007812 
	C947.590759,1062.402344 945.666443,1065.237915 947.391357,1069.824707 
	C951.874756,1081.746582 956.458130,1093.630859 961.101746,1106.314941 
M906.581238,1064.078247 
	C905.739075,1063.569336 904.951355,1062.916626 904.046265,1062.573853 
	C896.241333,1059.617798 891.000671,1063.119995 891.000366,1071.247314 
	C890.999512,1095.413940 890.990662,1119.580566 891.007507,1143.747192 
	C891.011292,1149.173706 893.158142,1150.924805 899.715149,1150.998413 
	C906.477478,1151.074341 908.904175,1149.224976 908.976135,1143.659546 
	C909.066650,1136.660645 909.123474,1129.656982 908.966370,1122.660522 
	C908.787720,1114.703735 908.724304,1106.698120 912.100342,1099.350586 
	C916.767578,1089.193481 921.909119,1079.374023 935.374573,1078.757202 
	C936.980347,1078.683594 939.747559,1075.672974 939.729553,1074.048706 
	C939.685547,1070.077393 942.226440,1065.235962 937.303772,1062.213013 
	C937.042419,1062.052368 936.654236,1062.017944 936.335144,1062.044800 
	C933.404968,1062.291382 930.384277,1062.194214 927.565857,1062.899780 
	C919.292358,1064.970947 913.362183,1070.359619 908.538452,1077.943604 
	C908.021240,1073.025513 907.584229,1068.870239 906.581238,1064.078247 
M276.000427,1098.500000 
	C276.000031,1088.507324 275.861084,1078.511719 276.073944,1068.523560 
	C276.149048,1064.999756 274.354919,1063.253296 271.560883,1062.290039 
	C263.158691,1059.392822 258.008575,1063.138916 258.004242,1072.010132 
	C257.993713,1093.494385 258.000580,1114.978760 258.001068,1136.463013 
	C258.001099,1138.794678 257.886841,1141.133545 258.030273,1143.456421 
	C258.409454,1149.596191 260.759003,1151.231323 268.616058,1150.998047 
	C274.182007,1150.832764 275.995361,1148.873291 275.998138,1142.968140 
	C276.005035,1128.478760 276.000397,1113.989380 276.000427,1098.500000 
M258.000153,1035.612427 
	C258.000214,1036.274292 257.807037,1037.012329 258.033081,1037.584961 
	C259.119354,1040.336914 259.979340,1045.113892 261.543213,1045.370605 
	C265.842499,1046.075928 270.458496,1044.916260 274.933655,1044.367676 
	C275.325562,1044.319824 275.738464,1043.381836 275.914276,1042.789917 
	C279.024689,1032.316895 275.603149,1027.902466 264.763550,1027.949585 
	C260.000702,1027.970337 257.719513,1029.935791 258.000153,1035.612427 
z"/>
<path fill="#3274B9" opacity="1.000000" stroke="none" 
	d="
M456.833344,696.999878 
	C457.750031,698.353210 458.373108,700.356018 459.642212,700.929688 
	C462.629944,702.280090 466.554199,704.470398 468.930817,703.489441 
	C471.618835,702.379883 473.191162,698.267944 474.905060,695.265442 
	C475.479462,694.259155 474.999817,692.650513 474.999817,691.317200 
	C475.000000,560.151428 474.957520,428.985657 475.033936,297.819977 
	C475.050262,269.783936 494.336517,245.700165 522.554321,240.923904 
	C541.892151,237.650757 558.923828,242.582352 573.035645,255.793457 
	C582.802490,264.936951 589.083679,276.520264 589.960022,290.298615 
	C590.527527,299.220276 590.949463,308.168884 590.955933,317.105774 
	C591.025513,413.105042 591.016541,509.104431 590.944580,605.103699 
	C590.941284,609.514404 591.929626,613.193970 596.319580,614.616699 
	C600.355469,615.924683 604.578430,615.253784 606.882019,611.357422 
	C608.288757,608.977966 608.904724,605.798828 608.914246,602.975647 
	C609.041931,565.143005 608.997925,527.309814 609.001404,489.476746 
	C609.002258,480.443085 612.590698,477.698364 621.512817,479.757202 
	C640.766846,484.200256 660.034607,488.584045 679.291199,493.015930 
	C688.166870,495.058685 691.998657,499.939758 691.999573,509.098541 
	C692.001343,526.765076 691.962402,544.431763 692.017517,562.098083 
	C692.042664,570.160400 697.448547,574.838501 704.388550,572.986206 
	C708.300110,571.942200 710.973267,567.195740 710.987915,560.983765 
	C711.023743,545.817261 711.373047,530.638123 710.864624,515.488586 
	C710.543091,505.909180 716.796570,504.463776 723.390076,506.828491 
	C741.229980,513.226746 759.057739,519.670837 776.744202,526.476501 
	C781.222107,528.199646 785.872986,530.655823 789.111755,534.047607 
	C791.768005,536.829346 793.640259,541.455627 793.786499,545.342224 
	C794.324951,559.655212 793.939880,574.001038 794.024353,588.333801 
	C794.074036,596.757629 801.058472,601.730347 807.301697,597.823914 
	C810.324036,595.932800 812.227783,593.488159 812.113831,589.318665 
	C811.790649,577.494263 811.848694,565.652649 812.052002,553.822876 
	C812.201660,545.110718 815.662354,543.685669 822.732849,547.185120 
	C838.726440,555.100891 854.272705,563.975830 869.671448,573.021423 
	C883.797363,581.319336 889.930725,594.536865 889.961121,610.576355 
	C890.062012,663.742493 890.011536,716.908875 889.993286,770.075195 
	C889.985779,791.849243 885.260803,812.782349 877.400574,832.899963 
	C871.449524,848.130920 865.153931,863.362000 857.398132,877.721558 
	C845.736084,899.313416 832.892944,920.283508 820.098267,941.240906 
	C813.199097,952.541565 805.562073,963.412903 797.864685,974.197205 
	C792.937378,981.100586 785.808838,984.943359 777.237122,984.952026 
	C697.071106,985.033142 616.904968,985.019958 536.738831,984.972717 
	C527.666016,984.967346 520.612915,980.483154 515.293945,973.554443 
	C498.625854,951.841919 481.999359,930.092896 465.698761,908.104492 
	C452.728088,890.607849 439.883667,872.993713 427.669342,854.966858 
	C414.452789,835.460876 401.666016,815.638672 389.407837,795.518127 
	C382.541534,784.247864 376.235229,772.472778 373.656189,759.225342 
	C373.312958,757.462402 373.029297,755.652161 373.027893,753.863647 
	C372.993317,710.363953 372.844757,666.863220 373.137726,623.365479 
	C373.193665,615.058594 374.236633,606.558167 376.335419,598.542725 
	C377.530609,593.978027 380.883759,588.741455 384.813141,586.336731 
	C405.323486,573.784668 426.330353,562.043762 447.905334,549.979248 
	C453.038818,548.971191 454.216370,551.127747 454.042694,555.121704 
	C453.840485,559.771240 453.999664,564.436462 453.999786,569.094849 
	C454.000854,608.524963 453.935852,647.955383 454.124725,687.384583 
	C454.140106,690.593933 455.889618,693.794983 456.833344,696.999878 
z"/>
<path fill="#3274B9" opacity="1.000000" stroke="none" 
	d="
M401.269531,194.411652 
	C398.327698,204.649902 395.142792,214.446762 392.895569,224.454163 
	C388.912750,242.190231 389.778259,260.004028 393.359924,277.744171 
	C397.479950,298.150360 406.206207,316.567322 418.222595,333.357391 
	C427.980774,346.992126 440.232574,358.244415 454.137238,367.673462 
	C455.327667,368.480743 456.861816,369.970337 456.871124,371.153656 
	C457.036896,392.290588 456.991455,413.429199 456.991455,435.246552 
	C428.966522,423.755798 405.069336,407.205200 385.198883,385.308197 
	C348.699982,345.086792 330.740753,297.266449 332.282074,243.165436 
	C333.851685,188.072266 355.213196,140.673203 395.162506,102.617210 
	C427.558197,71.756813 466.609009,53.710438 511.283325,49.083946 
	C565.478760,43.471443 614.751526,56.830479 657.765747,90.464241 
	C698.059143,121.970535 723.202820,163.437180 731.802979,213.803452 
	C750.284851,322.041656 683.065918,407.130157 610.000000,434.743347 
	C610.000000,422.800049 610.000000,411.007446 610.000000,399.214844 
	C610.000000,390.715759 610.210938,382.208679 609.889648,373.721771 
	C609.771667,370.606934 610.929749,368.864929 613.247925,367.330017 
	C629.105347,356.830750 642.199890,343.557526 652.744263,327.761108 
	C664.550232,310.074768 671.859802,290.754395 675.130554,269.659912 
	C680.056702,237.888428 674.359619,208.027771 658.905334,180.314789 
	C637.777893,142.428452 605.536804,118.303474 563.103394,109.164856 
	C520.754517,100.044456 482.039307,109.442070 447.241638,135.214157 
	C429.296539,148.504745 415.926392,165.590149 405.459747,185.107925 
	C403.917633,187.983627 402.775848,191.074036 401.269531,194.411652 
z"/>
<path fill="#3274B9" opacity="1.000000" stroke="none" 
	d="
M132.271057,1143.772949 
	C131.068726,1142.369263 130.117111,1141.210205 129.005630,1139.856445 
	C111.054245,1152.316528 91.968132,1155.983032 71.343613,1150.091431 
	C56.328354,1145.802246 44.459320,1137.032227 36.394020,1123.688843 
	C20.668911,1097.672852 24.265535,1061.025269 48.041229,1040.428833 
	C70.565018,1020.916931 108.837929,1020.822449 131.667252,1040.242798 
	C152.806091,1058.225098 163.428085,1095.682373 139.271927,1129.045288 
	C142.338150,1132.016113 145.555450,1134.920044 148.521469,1138.061157 
	C152.188873,1141.945068 151.820084,1144.844482 147.460373,1149.038574 
	C143.432480,1152.913452 141.600357,1152.910522 137.474472,1148.953369 
	C135.792618,1147.340332 134.170898,1145.664673 132.271057,1143.772949 
M92.295059,1135.999146 
	C100.472221,1135.063232 108.259338,1133.109375 115.402176,1127.081787 
	C113.520142,1125.498291 111.809784,1124.161133 110.219841,1122.693604 
	C108.507072,1121.112793 106.794319,1119.506348 105.281609,1117.739746 
	C102.087395,1114.009644 102.586769,1111.938477 107.116959,1107.336060 
	C110.143639,1104.261230 113.191238,1102.641602 116.776520,1106.304077 
	C119.770554,1109.362549 122.618309,1112.564087 125.529289,1115.703857 
	C136.238846,1103.751099 137.029068,1076.132202 125.788445,1060.891846 
	C111.884674,1042.040771 84.806870,1037.068237 66.319229,1049.320679 
	C51.909184,1058.870728 45.636261,1072.721680 45.861931,1090.182373 
	C46.174809,1114.389771 65.105362,1136.630249 92.295059,1135.999146 
z"/>
<path fill="#3274B9" opacity="1.000000" stroke="none" 
	d="
M614.000000,1168.981201 
	C614.000000,1136.023926 613.996704,1103.563477 614.002563,1071.103027 
	C614.004028,1063.197021 619.746582,1058.958130 626.726501,1062.697388 
	C629.536316,1064.202637 630.637695,1068.897217 632.440430,1072.008911 
	C638.806396,1064.313477 648.391113,1059.938110 659.504822,1060.123413 
	C676.260864,1060.402954 688.658447,1068.450439 694.471069,1085.033691 
	C699.950439,1100.666016 699.928162,1116.356201 692.733521,1131.482056 
	C685.925659,1145.794556 673.634705,1152.374268 658.347168,1152.833740 
	C648.196899,1153.138550 639.359375,1148.869751 632.000000,1140.305786 
	C632.000000,1152.326904 631.754333,1163.429688 632.075439,1174.516113 
	C632.346680,1183.878174 630.536316,1185.410522 621.225647,1185.096558 
	C617.829651,1184.981934 615.357849,1184.040039 614.169800,1180.928467 
	C613.667297,1179.612305 614.013428,1177.965820 614.003906,1176.469360 
	C613.989136,1174.139038 614.000000,1171.808350 614.000000,1168.981201 
M638.459900,1084.033203 
	C629.464722,1096.690796 629.317444,1110.163208 635.457092,1123.819702 
	C642.606079,1139.721069 662.468811,1140.839355 672.137268,1129.592041 
	C680.011536,1120.431885 680.926880,1110.101318 679.499451,1099.148926 
	C678.627441,1092.458496 676.078308,1085.926270 670.788208,1081.534546 
	C660.708801,1073.166870 648.328247,1074.209473 638.459900,1084.033203 
z"/>
<path fill="#3274B9" opacity="1.000000" stroke="none" 
	d="
M756.504272,1026.042969 
	C764.172485,1029.002075 771.481079,1031.728394 778.569031,1034.941284 
	C782.666138,1036.798340 782.878296,1040.429810 780.941589,1044.100708 
	C776.642090,1052.250488 775.132263,1052.616943 766.960449,1048.000244 
	C757.975403,1042.924194 748.473389,1041.314819 738.489685,1044.291748 
	C732.672180,1046.026367 728.168701,1049.515503 727.065674,1055.876953 
	C725.801636,1063.167236 728.619202,1069.145264 734.802307,1072.816162 
	C740.813171,1076.384766 747.417603,1078.944824 753.716064,1082.039917 
	C761.796692,1086.010620 769.882874,1089.657471 776.795532,1095.954834 
	C785.155090,1103.570435 786.792419,1120.010376 783.180481,1129.466675 
	C777.707825,1143.794434 767.006165,1150.349243 752.188538,1152.120605 
	C736.523499,1153.993164 722.748413,1149.924316 710.280762,1140.747314 
	C705.861084,1137.494263 705.749878,1134.415283 709.233398,1129.467407 
	C712.522339,1124.796021 716.241150,1123.872681 720.617126,1126.226074 
	C725.908020,1129.071411 731.235352,1131.906006 736.756775,1134.251099 
	C743.250488,1137.009033 749.923523,1136.279541 756.377747,1133.789551 
	C762.595703,1131.390625 766.334290,1126.555664 766.832275,1120.125854 
	C767.315430,1113.887939 764.613647,1108.194336 759.039062,1105.138062 
	C749.139526,1099.710571 738.752625,1095.178223 728.783508,1089.869629 
	C721.648987,1086.070312 715.160767,1081.469727 711.283752,1073.800049 
	C703.784668,1058.965088 709.864807,1039.592407 724.865662,1031.408813 
	C734.850098,1025.961914 745.306396,1025.750000 756.504272,1026.042969 
z"/>
<path fill="#3274B9" opacity="1.000000" stroke="none" 
	d="
M381.000732,1076.000000 
	C381.000793,1062.501465 380.804535,1049.497559 381.157440,1036.508667 
	C381.233063,1033.725464 382.825592,1029.052124 384.542023,1028.635132 
	C388.475830,1027.679199 393.018860,1028.394287 397.084229,1029.380249 
	C398.154114,1029.639771 398.900696,1033.357910 398.918365,1035.495117 
	C399.063049,1052.991943 399.000031,1070.490356 399.000092,1087.988403 
	C399.000092,1089.787598 399.000061,1091.586670 399.000061,1092.963989 
	C409.632446,1097.716431 413.873444,1090.094604 418.653809,1083.704834 
	C423.066376,1077.806763 427.285767,1071.764160 431.699432,1065.866943 
	C434.570709,1062.030396 444.528320,1060.375488 448.628510,1062.892212 
	C451.915344,1064.909790 451.241028,1067.538086 449.434326,1069.975220 
	C444.162109,1077.087158 438.751953,1084.097290 433.366272,1091.124512 
	C430.769714,1094.512573 428.106628,1097.849609 425.334137,1101.387817 
	C434.368103,1114.869263 443.465668,1128.391235 452.498901,1141.955933 
	C455.612213,1146.631104 454.395874,1149.699585 449.132294,1150.876465 
	C442.224274,1152.421021 436.942902,1150.314941 433.105835,1144.375000 
	C427.067688,1135.027710 420.687439,1125.869629 415.225983,1116.194458 
	C412.320465,1111.047119 408.798157,1109.211060 403.317719,1109.976929 
	C402.178314,1110.135986 400.997650,1109.999878 399.000305,1109.999878 
	C399.000305,1111.765869 399.000366,1113.341553 399.000305,1114.917358 
	C398.999969,1124.749634 399.189850,1134.588623 398.838104,1144.408325 
	C398.768036,1146.364258 397.080505,1149.093750 395.361115,1150.015015 
	C388.025909,1153.945190 381.016418,1149.624634 381.008301,1141.492798 
	C380.986633,1119.828491 381.000793,1098.164307 381.000732,1076.000000 
z"/>
<path fill="#3274B9" opacity="1.000000" stroke="none" 
	d="
M1027.985962,1099.902466 
	C1029.591919,1079.900757 1043.498413,1063.650635 1063.660889,1060.846558 
	C1073.321167,1059.503174 1082.241943,1060.233765 1090.771118,1064.951172 
	C1102.198120,1071.271240 1108.125977,1081.384521 1108.848389,1094.008423 
	C1109.703125,1108.943115 1109.183472,1108.999268 1094.423950,1108.999268 
	C1078.458984,1108.999268 1062.494019,1108.999268 1046.603027,1108.999268 
	C1045.215698,1117.586792 1051.285278,1127.997314 1060.171753,1133.046021 
	C1071.919678,1139.720337 1083.220337,1137.720947 1094.187134,1131.231079 
	C1099.750610,1127.938599 1101.704712,1128.235840 1105.332397,1133.862183 
	C1108.401001,1138.621460 1107.820801,1140.616333 1102.415894,1144.250244 
	C1084.024780,1156.615234 1057.668335,1155.523560 1041.295532,1140.681030 
	C1033.499268,1133.613403 1029.138062,1124.445435 1028.072510,1113.955566 
	C1027.616211,1109.463013 1027.983521,1104.886963 1027.985962,1099.902466 
M1078.487061,1097.000000 
	C1082.912842,1097.000000 1087.338623,1097.000000 1091.843384,1097.000000 
	C1089.661499,1082.318970 1081.253906,1073.412231 1070.635254,1074.026611 
	C1057.965942,1074.759644 1047.190552,1085.213257 1047.110840,1096.852905 
	C1047.438477,1096.894897 1047.765991,1096.973145 1048.093628,1096.973633 
	C1057.893066,1096.987183 1067.692505,1096.992920 1078.487061,1097.000000 
z"/>
<path fill="#3274B9" opacity="1.000000" stroke="none" 
	d="
M558.322205,1076.050659 
	C553.361633,1077.830811 548.815735,1079.554688 544.290161,1081.330322 
	C539.385620,1083.254761 537.272461,1080.367432 535.850464,1076.421631 
	C534.579102,1072.893921 533.587341,1069.530518 538.216187,1067.304077 
	C552.094482,1060.628662 566.123718,1057.843872 581.438538,1062.605103 
	C593.714905,1066.421753 600.801819,1079.579102 600.939636,1090.451538 
	C601.163391,1108.106689 600.862488,1125.768555 601.089905,1143.423584 
	C601.152405,1148.274048 599.094666,1150.509888 594.653442,1150.967896 
	C588.140808,1151.639648 584.754395,1149.562500 584.076111,1144.492065 
	C583.825378,1142.618164 584.035645,1140.682617 584.035645,1137.523315 
	C578.811340,1144.364258 573.636719,1149.011108 566.416260,1151.275879 
	C550.827881,1156.165283 531.553833,1148.219727 527.738892,1133.718750 
	C524.682129,1122.099609 529.715027,1108.975708 540.267822,1103.277100 
	C549.612183,1098.231079 559.782288,1096.855347 570.089661,1096.052612 
	C574.192688,1095.733154 578.341431,1096.000000 582.319641,1096.000000 
	C585.688843,1084.179321 576.730103,1073.505005 561.739624,1075.925171 
	C560.762207,1076.083130 559.744690,1075.992310 558.322205,1076.050659 
M562.276367,1137.999634 
	C577.582214,1137.710693 584.717102,1119.421631 583.139954,1107.611572 
	C576.293945,1108.084717 569.280457,1107.937500 562.537415,1109.216309 
	C556.010864,1110.454102 549.204102,1112.499512 546.065430,1119.419067 
	C541.680786,1129.085571 549.874878,1139.472534 562.276367,1137.999634 
z"/>
<path fill="#3274B9" opacity="1.000000" stroke="none" 
	d="
M1173.282959,1122.384155 
	C1165.773315,1140.001465 1159.301758,1157.705078 1150.845459,1174.403564 
	C1144.686401,1186.565796 1127.524414,1190.232056 1115.428711,1184.128174 
	C1111.763184,1182.278564 1110.389893,1179.596069 1112.121338,1175.795288 
	C1113.649902,1172.439941 1114.493286,1168.762573 1120.187744,1170.445068 
	C1133.071411,1174.251953 1136.764893,1167.994141 1143.060791,1156.398560 
	C1147.746582,1147.768799 1142.601074,1141.447754 1139.779053,1134.631592 
	C1131.150269,1113.790039 1121.981445,1093.172363 1113.306885,1072.349243 
	C1112.022217,1069.265747 1109.457886,1065.047729 1114.849976,1062.634644 
	C1120.013184,1060.324097 1128.931152,1062.106689 1130.489380,1066.075928 
	C1138.067627,1085.379883 1145.477905,1104.749756 1152.918823,1124.107300 
	C1153.244263,1124.954102 1153.286743,1125.909668 1153.661865,1127.858398 
	C1156.682007,1119.810791 1159.359619,1112.774780 1161.964844,1105.711792 
	C1166.427734,1093.612305 1170.776367,1081.470093 1175.308594,1069.396729 
	C1177.937866,1062.392578 1184.780640,1059.685791 1191.941040,1062.430298 
	C1195.802612,1063.910400 1195.681763,1066.976807 1194.567139,1069.790771 
	C1187.651001,1087.253174 1180.526245,1104.632690 1173.282959,1122.384155 
z"/>
<path fill="#3274B9" opacity="1.000000" stroke="none" 
	d="
M245.000412,1088.000000 
	C245.000336,1106.829712 245.009094,1125.159424 244.994934,1143.489136 
	C244.990540,1149.181274 242.939606,1150.986938 236.588058,1150.999268 
	C230.124802,1151.011841 228.041656,1149.238403 228.002747,1143.665649 
	C227.985489,1141.195801 227.999847,1138.725830 227.999847,1137.177612 
	C222.405243,1141.224854 217.019989,1146.386841 210.631165,1149.468018 
	C198.794678,1155.176392 186.248199,1154.633545 175.878143,1146.531372 
	C171.391098,1143.025635 167.830215,1135.883667 167.380707,1130.118042 
	C166.002136,1112.435547 166.326462,1094.619751 166.007217,1076.855469 
	C165.956314,1074.023560 165.528564,1071.080078 166.154419,1068.392944 
	C166.634430,1066.332031 168.181870,1063.330078 169.801331,1062.923340 
	C178.346130,1060.777222 184.170029,1061.070801 184.047882,1071.691284 
	C183.861969,1087.852539 183.953278,1104.017944 184.020172,1120.181030 
	C184.053268,1128.177612 189.007568,1134.850464 195.495895,1135.965454 
	C205.723785,1137.723145 216.696899,1132.203491 222.071533,1122.777344 
	C225.398849,1116.941650 227.291962,1110.905396 227.088058,1104.034546 
	C226.761963,1093.046387 226.982040,1082.041504 227.012772,1071.043701 
	C227.022018,1067.736816 226.850159,1063.573608 230.794586,1062.918457 
	C234.757523,1062.260254 239.066055,1063.077881 243.095154,1063.886353 
	C244.002182,1064.068237 244.860138,1066.878662 244.914062,1068.506592 
	C245.123566,1074.831665 245.000000,1081.167969 245.000412,1088.000000 
z"/>
<path fill="#3274B9" opacity="1.000000" stroke="none" 
	d="
M848.176270,1147.297607 
	C838.986328,1152.703735 829.454590,1153.734863 819.428589,1151.980957 
	C808.138672,1150.005859 799.131165,1138.521973 799.035400,1125.269897 
	C798.899414,1106.448364 798.979614,1087.625122 799.013916,1068.802612 
	C799.023376,1063.575317 801.397400,1061.949463 808.615845,1062.000977 
	C814.916016,1062.045898 815.987732,1062.958252 815.993896,1068.469849 
	C816.010925,1083.627808 815.918945,1098.786377 816.059631,1113.942993 
	C816.092957,1117.531982 816.420898,1121.240845 817.389771,1124.675537 
	C820.411133,1135.386597 828.444458,1137.677368 837.470764,1135.613159 
	C851.846130,1132.325684 859.282166,1120.486938 859.890442,1106.454102 
	C860.416565,1094.317261 859.970703,1082.139404 860.012390,1069.979858 
	C860.034180,1063.616943 862.092163,1061.952271 869.593872,1062.000977 
	C876.130432,1062.043335 877.996216,1063.808350 877.997681,1070.011230 
	C878.003418,1094.497070 878.006775,1118.983032 877.994751,1143.468872 
	C877.991882,1149.217529 875.874939,1150.978149 869.071167,1150.998657 
	C863.137695,1151.016479 861.039307,1149.112915 861.003174,1143.653442 
	C860.985962,1141.048462 861.000183,1138.443359 861.000183,1135.744873 
	C856.604736,1139.698975 852.523987,1143.369873 848.176270,1147.297607 
z"/>
<path fill="#3274B9" opacity="1.000000" stroke="none" 
	d="
M545.966248,1039.423096 
	C543.373169,1041.234009 540.846191,1043.704956 538.224487,1043.809814 
	C527.098083,1044.255249 515.943604,1043.998779 504.000458,1043.998779 
	C504.000458,1046.146606 504.000458,1048.059937 504.000458,1049.973267 
	C504.000427,1080.941284 504.002808,1111.909180 503.998352,1142.877197 
	C503.997437,1149.195801 502.173065,1150.971924 495.711761,1150.999146 
	C488.008362,1151.031616 486.011536,1149.339966 486.007996,1142.601929 
	C485.991943,1111.966919 486.000854,1081.332031 486.000763,1050.697021 
	C486.000763,1048.714966 486.000732,1046.733032 486.000732,1043.999268 
	C480.484802,1043.999268 475.229614,1043.999634 469.974457,1043.999268 
	C463.647675,1043.998901 457.319061,1044.091064 450.994659,1043.968140 
	C445.885773,1043.868896 443.954773,1041.372070 444.002258,1035.383545 
	C444.042938,1030.254150 446.123322,1028.012573 451.028870,1028.009277 
	C478.999939,1027.990234 506.971008,1027.999756 534.942078,1027.999756 
	C546.027161,1027.999756 546.027161,1027.999878 545.966248,1039.423096 
z"/>
<path fill="#3274B9" opacity="1.000000" stroke="none" 
	d="
M348.768219,1079.036499 
	C330.437927,1071.139160 312.324097,1078.858398 306.694244,1096.725586 
	C300.451752,1116.537231 314.624359,1140.042603 340.069916,1136.738525 
	C345.797668,1135.994629 351.329865,1132.535156 356.562714,1129.625610 
	C359.903656,1127.767944 362.649200,1126.890503 365.312378,1129.929932 
	C368.783173,1133.891113 369.381744,1139.183472 365.917480,1141.298706 
	C359.306305,1145.335327 352.407104,1149.393311 345.074463,1151.626221 
	C336.543091,1154.223999 327.522980,1153.050537 318.878021,1150.436279 
	C302.530396,1145.493042 292.446869,1134.626709 288.559814,1118.081055 
	C284.449493,1100.584961 288.426453,1085.063232 301.257477,1072.416748 
	C308.300568,1065.474976 317.287781,1062.320923 327.211060,1060.789429 
	C338.321869,1059.074585 348.351044,1061.234375 358.098450,1066.071045 
	C359.984131,1067.006836 361.593445,1068.494263 363.346375,1069.703857 
	C366.222748,1071.688599 367.033905,1074.373901 365.113220,1077.235962 
	C362.856659,1080.598389 360.997650,1085.332275 355.396301,1082.925659 
	C353.175354,1081.971313 351.227722,1080.380981 348.768219,1079.036499 
z"/>
<path fill="#3274B9" opacity="1.000000" stroke="none" 
	d="
M961.051697,1105.922607 
	C956.458130,1093.630859 951.874756,1081.746582 947.391357,1069.824707 
	C945.666443,1065.237915 947.590759,1062.402344 952.464905,1062.007812 
	C961.878784,1061.245850 963.888184,1062.442505 966.917664,1070.886108 
	C972.763184,1087.178345 978.590027,1103.477295 984.356079,1119.797729 
	C985.539612,1123.147949 986.422607,1126.604370 987.455933,1130.051270 
	C992.957642,1114.675781 998.445740,1099.330811 1003.939880,1083.988037 
	C1006.031677,1078.146484 1008.072021,1072.285522 1010.259094,1066.479858 
	C1011.796387,1062.399170 1019.808838,1060.337036 1025.052490,1062.547852 
	C1028.468140,1063.988037 1028.905396,1067.106323 1026.955444,1072.284424 
	C1019.587891,1091.849731 1012.336060,1111.458740 1005.060791,1131.058960 
	C1003.300110,1135.802368 1002.023254,1140.783936 999.728149,1145.246704 
	C998.540283,1147.556519 995.856384,1149.932373 993.407715,1150.560547 
	C989.811279,1151.483643 985.646790,1151.560181 982.058899,1150.661377 
	C979.721008,1150.075806 977.072021,1147.490967 976.117065,1145.163818 
	C970.847778,1132.322510 966.056763,1119.285156 961.051697,1105.922607 
z"/>
<path fill="#3274B9" opacity="1.000000" stroke="none" 
	d="
M906.864197,1064.396484 
	C907.584229,1068.870239 908.021240,1073.025513 908.538452,1077.943604 
	C913.362183,1070.359619 919.292358,1064.970947 927.565857,1062.899780 
	C930.384277,1062.194214 933.404968,1062.291382 936.335144,1062.044800 
	C936.654236,1062.017944 937.042419,1062.052368 937.303772,1062.213013 
	C942.226440,1065.235962 939.685547,1070.077393 939.729553,1074.048706 
	C939.747559,1075.672974 936.980347,1078.683594 935.374573,1078.757202 
	C921.909119,1079.374023 916.767578,1089.193481 912.100342,1099.350586 
	C908.724304,1106.698120 908.787720,1114.703735 908.966370,1122.660522 
	C909.123474,1129.656982 909.066650,1136.660645 908.976135,1143.659546 
	C908.904175,1149.224976 906.477478,1151.074341 899.715149,1150.998413 
	C893.158142,1150.924805 891.011292,1149.173706 891.007507,1143.747192 
	C890.990662,1119.580566 890.999512,1095.413940 891.000366,1071.247314 
	C891.000671,1063.119995 896.241333,1059.617798 904.046265,1062.573853 
	C904.951355,1062.916626 905.739075,1063.569336 906.864197,1064.396484 
z"/>
<path fill="#3274B9" opacity="1.000000" stroke="none" 
	d="
M276.000427,1099.000000 
	C276.000397,1113.989380 276.005035,1128.478760 275.998138,1142.968140 
	C275.995361,1148.873291 274.182007,1150.832764 268.616058,1150.998047 
	C260.759003,1151.231323 258.409454,1149.596191 258.030273,1143.456421 
	C257.886841,1141.133545 258.001099,1138.794678 258.001068,1136.463013 
	C258.000580,1114.978760 257.993713,1093.494385 258.004242,1072.010132 
	C258.008575,1063.138916 263.158691,1059.392822 271.560883,1062.290039 
	C274.354919,1063.253296 276.149048,1064.999756 276.073944,1068.523560 
	C275.861084,1078.511719 276.000031,1088.507324 276.000427,1099.000000 
z"/>
<path fill="#3274B9" opacity="1.000000" stroke="none" 
	d="
M456.899597,696.535339 
	C455.889618,693.794983 454.140106,690.593933 454.124725,687.384583 
	C453.935852,647.955383 454.000854,608.524963 453.999786,569.094849 
	C453.999664,564.436462 453.840485,559.771240 454.042694,555.121704 
	C454.216370,551.127747 453.038818,548.971191 448.265808,549.947693 
	C450.670807,548.289368 453.456146,546.621094 456.965881,544.518860 
	C456.965881,595.978271 456.965881,646.024536 456.899597,696.535339 
z"/>
<path fill="#3274B9" opacity="1.000000" stroke="none" 
	d="
M258.000397,1035.169922 
	C257.719513,1029.935791 260.000702,1027.970337 264.763550,1027.949585 
	C275.603149,1027.902466 279.024689,1032.316895 275.914276,1042.789917 
	C275.738464,1043.381836 275.325562,1044.319824 274.933655,1044.367676 
	C270.458496,1044.916260 265.842499,1046.075928 261.543213,1045.370605 
	C259.979340,1045.113892 259.119354,1040.336914 258.033081,1037.584961 
	C257.807037,1037.012329 258.000214,1036.274292 258.000397,1035.169922 
z"/>
<path fill="#000000" opacity="1.000000" stroke="none" 
	d="
M91.835922,1135.999390 
	C65.105362,1136.630249 46.174809,1114.389771 45.861931,1090.182373 
	C45.636261,1072.721680 51.909184,1058.870728 66.319229,1049.320679 
	C84.806870,1037.068237 111.884674,1042.040771 125.788445,1060.891846 
	C137.029068,1076.132202 136.238846,1103.751099 125.530060,1115.703125 
	C122.618309,1112.564087 119.770554,1109.362549 116.776520,1106.304077 
	C113.191238,1102.641602 110.143639,1104.261230 107.116959,1107.336060 
	C102.586769,1111.938477 102.087395,1114.009644 105.281609,1117.739746 
	C106.794319,1119.506348 108.507072,1121.112793 110.219841,1122.693604 
	C111.809784,1124.161133 113.520142,1125.498291 115.402176,1127.081787 
	C108.259338,1133.109375 100.472221,1135.063232 91.835922,1135.999390 
z"/>
<path fill="#000000" opacity="1.000000" stroke="none" 
	d="
M638.722168,1083.777832 
	C648.328247,1074.209473 660.708801,1073.166870 670.788208,1081.534546 
	C676.078308,1085.926270 678.627441,1092.458496 679.499451,1099.148926 
	C680.926880,1110.101318 680.011536,1120.431885 672.137268,1129.592041 
	C662.468811,1140.839355 642.606079,1139.721069 635.457092,1123.819702 
	C629.317444,1110.163208 629.464722,1096.690796 638.722168,1083.777832 
z"/>
<path fill="#000000" opacity="1.000000" stroke="none" 
	d="
M1077.989502,1097.000000 
	C1067.692505,1096.992920 1057.893066,1096.987183 1048.093628,1096.973633 
	C1047.765991,1096.973145 1047.438477,1096.894897 1047.111084,1096.850464 
	C1047.190552,1085.213257 1057.965942,1074.759644 1070.635254,1074.026611 
	C1081.253906,1073.412231 1089.661499,1082.318970 1091.843384,1097.000000 
	C1087.338623,1097.000000 1082.912842,1097.000000 1077.989502,1097.000000 
z"/>
<path fill="#000000" opacity="1.000000" stroke="none" 
	d="
M561.832214,1137.999878 
	C549.874878,1139.472534 541.680786,1129.085571 546.065430,1119.419067 
	C549.204102,1112.499512 556.010864,1110.454102 562.537415,1109.216309 
	C569.280457,1107.937500 576.293945,1108.084717 583.139954,1107.611572 
	C584.717102,1119.421631 577.582214,1137.710693 561.832214,1137.999878 
z"/>
</svg>