<svg version="1.1" id="Layer_1" xmlns="http://www.w3.org/2000/svg" xmlns:xlink="http://www.w3.org/1999/xlink" x="0px" y="0px"
	 width="100%" viewBox="0 0 195 195" enable-background="new 0 0 195 195" xml:space="preserve">
<path fill="#FFFEFE" opacity="1.000000" stroke="none" 
	d="
M124.000000,196.000000 
	C82.692856,196.000000 41.885712,196.000000 1.039282,196.000000 
	C1.039282,131.067902 1.039282,66.135765 1.039282,1.101814 
	C65.890297,1.101814 130.780807,1.101814 195.835663,1.101814 
	C195.835663,65.999657 195.835663,130.999802 195.835663,196.000000 
	C172.136047,196.000000 148.318024,196.000000 124.000000,196.000000 
M78.025986,48.953739 
	C78.025986,48.953739 78.129509,48.914150 78.112640,48.277725 
	C77.412277,47.843037 76.711914,47.408348 75.579208,46.453514 
	C61.352585,35.942299 38.285652,35.707497 28.284985,43.204681 
	C30.725510,45.910152 33.374161,48.455112 35.541695,51.359173 
	C37.711365,54.266090 39.686131,57.396896 41.232170,60.672260 
	C43.479767,65.433891 43.740925,69.819527 39.436157,74.244072 
	C27.524296,86.487381 27.239470,109.739655 38.865944,122.034233 
	C44.023022,127.487648 43.700485,132.714447 40.323425,138.166992 
	C36.817043,143.828323 32.556366,149.022446 28.644697,154.394623 
	C43.557293,162.664520 65.380753,159.782394 79.859192,147.304459 
	C80.681839,146.588211 81.504478,145.871964 83.031639,145.300522 
	C84.703407,145.473633 86.375168,145.646744 88.372513,146.090424 
	C88.915268,146.061096 89.458023,146.031784 90.704361,146.247345 
	C91.445213,146.247025 92.186066,146.246704 93.668800,146.584641 
	C98.139114,146.470978 102.609436,146.357315 107.811737,146.353287 
	C108.539040,146.243134 109.266342,146.132996 110.353600,146.253571 
	C110.886658,146.114960 111.419708,145.976364 112.794128,145.914505 
	C129.100510,143.808395 143.771057,138.104599 156.404709,127.212402 
	C172.994568,112.909348 173.825134,86.348099 157.821365,71.384682 
	C145.752991,60.100819 131.410660,53.719509 114.555763,51.226376 
	C112.696678,51.128338 110.837601,51.030300 108.368996,50.696884 
	C107.937012,50.714890 107.505020,50.732891 106.335884,50.398750 
	C101.863876,50.516613 97.391876,50.634476 92.184532,50.645977 
	C91.456749,50.762573 90.728973,50.879169 89.627693,50.798733 
	C89.102264,50.925220 88.576828,51.051712 87.327835,51.079826 
	C85.660477,51.333782 83.993111,51.587734 81.937363,51.295940 
	C80.994423,50.791416 80.051476,50.286888 79.090248,49.889957 
	C79.090248,49.889957 79.182594,49.831795 78.793694,49.538460 
	C78.523033,49.352879 78.289543,49.128605 78.025986,48.953739 
z"/>
<path fill="#C22A30" opacity="1.000000" stroke="none" 
	d="
M82.325752,51.841686 
	C83.993111,51.587734 85.660477,51.333782 87.845520,51.332829 
	C88.909195,51.389141 89.455193,51.192455 90.001190,50.995766 
	C90.728973,50.879169 91.456749,50.762573 92.831360,51.020042 
	C98.009796,51.179703 102.541420,50.965302 107.073036,50.750900 
	C107.505020,50.732891 107.937012,50.714890 108.898346,51.092545 
	C111.321419,51.511242 113.215149,51.534275 115.108879,51.557308 
	C131.410660,53.719509 145.752991,60.100819 157.821365,71.384682 
	C173.825134,86.348099 172.994568,112.909348 156.404709,127.212402 
	C143.771057,138.104599 129.100510,143.808395 112.215439,145.672623 
	C111.089043,145.628098 110.541336,145.825470 109.993637,146.022858 
	C109.266342,146.132996 108.539040,146.243134 107.166733,145.977661 
	C101.990128,145.816818 97.458527,146.031601 92.926918,146.246384 
	C92.186066,146.246704 91.445213,146.247025 90.222412,145.902145 
	C89.175949,145.644592 88.611443,145.732224 88.046936,145.819855 
	C86.375168,145.646744 84.703407,145.473633 82.305466,145.200500 
	C80.797958,145.908813 80.016609,146.717163 79.235260,147.525513 
	C65.380753,159.782394 43.557293,162.664520 28.644697,154.394623 
	C32.556366,149.022446 36.817043,143.828323 40.323425,138.166992 
	C43.700485,132.714447 44.023022,127.487648 38.865944,122.034233 
	C27.239470,109.739655 27.524296,86.487381 39.436157,74.244072 
	C43.740925,69.819527 43.479767,65.433891 41.232170,60.672260 
	C39.686131,57.396896 37.711365,54.266090 35.541695,51.359173 
	C33.374161,48.455112 30.725510,45.910152 28.284985,43.204681 
	C38.285652,35.707497 61.352585,35.942299 75.844986,47.038040 
	C76.783684,48.053097 77.456596,48.483624 78.129509,48.914150 
	C78.129509,48.914150 78.025986,48.953739 78.103470,49.193638 
	C78.514832,49.566292 78.848717,49.699043 79.182594,49.831795 
	C79.182594,49.831795 79.090248,49.889957 79.225876,50.166328 
	C80.349579,50.909023 81.337669,51.375355 82.325752,51.841686 
M103.667931,59.520142 
	C102.778198,59.681561 101.888466,59.842979 100.339867,60.171371 
	C99.893669,60.115711 99.447472,60.060051 98.641747,59.484470 
	C97.756317,59.672680 96.870895,59.860889 95.155937,60.257576 
	C79.835403,61.448792 65.424850,65.146355 52.934952,74.742607 
	C37.602287,86.523003 34.935135,105.699394 49.119534,118.727554 
	C54.748627,123.897804 53.953632,129.047745 52.475998,134.808487 
	C51.663265,137.977036 49.918381,140.906494 48.052589,144.287949 
	C46.675888,145.898468 45.299191,147.508972 43.324516,149.819016 
	C45.243637,150.574005 46.866116,151.874222 48.230572,151.644150 
	C58.949455,149.836807 68.650436,145.767258 76.120888,137.537292 
	C78.163376,135.287140 80.202560,134.646057 83.132805,135.443588 
	C91.257240,137.654861 99.432671,139.171295 107.875053,136.859497 
	C116.807861,134.413422 126.061172,132.889359 134.697235,129.678818 
	C143.113953,126.549812 150.498795,121.285477 155.516937,112.508926 
	C161.828461,101.285316 161.666199,90.808517 153.284805,81.620087 
	C148.257950,76.109184 141.988464,70.770515 135.197571,68.058029 
	C125.313850,64.110176 114.456772,62.599163 103.667931,59.520142 
z"/>
<path fill="#C94248" opacity="1.000000" stroke="none" 
	d="
M93.297859,146.415512 
	C97.458527,146.031601 101.990128,145.816818 106.800743,145.922836 
	C102.609436,146.357315 98.139114,146.470978 93.297859,146.415512 
z"/>
<path fill="#C94249" opacity="1.000000" stroke="none" 
	d="
M106.704460,50.574825 
	C102.541420,50.965302 98.009796,51.179703 93.199020,51.073227 
	C97.391876,50.634476 101.863876,50.516613 106.704460,50.574825 
z"/>
<path fill="#C94249" opacity="1.000000" stroke="none" 
	d="
M114.832321,51.391842 
	C113.215149,51.534275 111.321419,51.511242 109.203102,51.210236 
	C110.837601,51.030300 112.696678,51.128338 114.832321,51.391842 
z"/>
<path fill="#C94249" opacity="1.000000" stroke="none" 
	d="
M82.131561,51.568813 
	C81.337669,51.375355 80.349579,50.909023 79.235016,50.112526 
	C80.051476,50.286888 80.994423,50.791416 82.131561,51.568813 
z"/>
<path fill="#C94248" opacity="1.000000" stroke="none" 
	d="
M79.547226,147.414978 
	C80.016609,146.717163 80.797958,145.908813 81.953209,145.128082 
	C81.504478,145.871964 80.681839,146.588211 79.547226,147.414978 
z"/>
<path fill="#C94248" opacity="1.000000" stroke="none" 
	d="
M110.173615,146.138214 
	C110.541336,145.825470 111.089043,145.628098 111.794754,145.634247 
	C111.419708,145.976364 110.886658,146.114960 110.173615,146.138214 
z"/>
<path fill="#C94248" opacity="1.000000" stroke="none" 
	d="
M88.209724,145.955139 
	C88.611443,145.732224 89.175949,145.644592 89.870621,145.779709 
	C89.458023,146.031784 88.915268,146.061096 88.209724,145.955139 
z"/>
<path fill="#C94249" opacity="1.000000" stroke="none" 
	d="
M89.814438,50.897247 
	C89.455193,51.192455 88.909195,51.389141 88.207298,51.382019 
	C88.576828,51.051712 89.102264,50.925220 89.814438,50.897247 
z"/>
<path fill="#C94249" opacity="1.000000" stroke="none" 
	d="
M78.121078,48.595940 
	C77.456596,48.483624 76.783684,48.053097 76.061157,47.298119 
	C76.711914,47.408348 77.412277,47.843037 78.121078,48.595940 
z"/>
<path fill="#C94249" opacity="1.000000" stroke="none" 
	d="
M78.988144,49.685127 
	C78.848717,49.699043 78.514832,49.566292 78.137093,49.149582 
	C78.289543,49.128605 78.523033,49.352879 78.988144,49.685127 
z"/>
<path fill="#FEFDFD" opacity="1.000000" stroke="none" 
	d="
M48.593765,143.943741 
	C49.918381,140.906494 51.663265,137.977036 52.475998,134.808487 
	C53.953632,129.047745 54.748627,123.897804 49.119534,118.727554 
	C34.935135,105.699394 37.602287,86.523003 52.934952,74.742607 
	C65.424850,65.146355 79.835403,61.448792 95.943832,60.232697 
	C97.488235,60.140007 98.244759,60.072205 99.001274,60.004395 
	C99.447472,60.060051 99.893669,60.115711 101.041389,60.172035 
	C102.500183,60.131504 103.257446,60.090313 104.014717,60.049118 
	C114.456772,62.599163 125.313850,64.110176 135.197571,68.058029 
	C141.988464,70.770515 148.257950,76.109184 153.284805,81.620087 
	C161.666199,90.808517 161.828461,101.285316 154.907150,112.763275 
	C151.733932,115.089302 149.330170,117.406639 146.581467,119.193260 
	C127.020859,131.907288 105.484497,133.654495 83.031334,130.659866 
	C80.805351,130.362976 77.857880,131.206192 76.074799,132.589508 
	C67.907387,138.925720 59.185543,143.611267 48.593765,143.943741 
M105.784409,94.684845 
	C100.554939,90.561874 97.427948,90.912941 93.271004,96.089706 
	C90.951691,98.978012 91.494873,104.343864 95.175095,105.897224 
	C97.889259,107.042824 102.117157,107.148254 104.577965,105.768478 
	C108.557808,103.536964 108.526588,99.254913 105.784409,94.684845 
M122.951134,106.273102 
	C124.495155,106.551521 126.035141,107.039825 127.583946,107.069580 
	C132.521393,107.164436 135.274704,104.422928 135.238770,99.665222 
	C135.201126,94.681183 131.854156,92.088875 125.717590,92.290825 
	C122.529999,92.395737 119.339378,96.324409 119.887825,100.120041 
	C120.173424,102.096550 121.508743,103.921379 122.951134,106.273102 
M78.291794,104.374840 
	C81.167358,99.505501 80.844543,96.655388 75.743774,93.395142 
	C73.122627,91.719780 69.566483,91.697197 66.865219,94.461563 
	C63.565418,97.838448 63.281097,101.630714 66.165161,104.924240 
	C69.159393,108.343567 73.553261,108.390114 78.291794,104.374840 
z"/>
<path fill="#CDC7C7" opacity="1.000000" stroke="none" 
	d="
M48.323181,144.115845 
	C59.185543,143.611267 67.907387,138.925720 76.074799,132.589508 
	C77.857880,131.206192 80.805351,130.362976 83.031334,130.659866 
	C105.484497,133.654495 127.020859,131.907288 146.581467,119.193260 
	C149.330170,117.406639 151.733932,115.089302 154.643707,112.988281 
	C150.498795,121.285477 143.113953,126.549812 134.697235,129.678818 
	C126.061172,132.889359 116.807861,134.413422 107.875053,136.859497 
	C99.432671,139.171295 91.257240,137.654861 83.132805,135.443588 
	C80.202560,134.646057 78.163376,135.287140 76.120888,137.537292 
	C68.650436,145.767258 58.949455,149.836807 48.230572,151.644150 
	C46.866116,151.874222 45.243637,150.574005 43.324516,149.819016 
	C45.299191,147.508972 46.675888,145.898468 48.323181,144.115845 
z"/>
<path fill="#BF161F" opacity="1.000000" stroke="none" 
	d="
M103.841324,59.784630 
	C103.257446,60.090313 102.500183,60.131504 101.370819,60.088547 
	C101.888466,59.842979 102.778198,59.681561 103.841324,59.784630 
z"/>
<path fill="#BF161F" opacity="1.000000" stroke="none" 
	d="
M98.821510,59.744434 
	C98.244759,60.072205 97.488235,60.140007 96.358597,60.128456 
	C96.870895,59.860889 97.756317,59.672680 98.821510,59.744434 
z"/>
<path fill="#C22A30" opacity="1.000000" stroke="none" 
	d="
M106.026398,94.978844 
	C108.526588,99.254913 108.557808,103.536964 104.577965,105.768478 
	C102.117157,107.148254 97.889259,107.042824 95.175095,105.897224 
	C91.494873,104.343864 90.951691,98.978012 93.271004,96.089706 
	C97.427948,90.912941 100.554939,90.561874 106.026398,94.978844 
z"/>
<path fill="#C22B31" opacity="1.000000" stroke="none" 
	d="
M122.660515,106.043915 
	C121.508743,103.921379 120.173424,102.096550 119.887825,100.120041 
	C119.339378,96.324409 122.529999,92.395737 125.717590,92.290825 
	C131.854156,92.088875 135.201126,94.681183 135.238770,99.665222 
	C135.274704,104.422928 132.521393,107.164436 127.583946,107.069580 
	C126.035141,107.039825 124.495155,106.551521 122.660515,106.043915 
z"/>
<path fill="#C22A30" opacity="1.000000" stroke="none" 
	d="
M78.120819,104.711960 
	C73.553261,108.390114 69.159393,108.343567 66.165161,104.924240 
	C63.281097,101.630714 63.565418,97.838448 66.865219,94.461563 
	C69.566483,91.697197 73.122627,91.719780 75.743774,93.395142 
	C80.844543,96.655388 81.167358,99.505501 78.120819,104.711960 
z"/>
</svg>