<svg version="1.1" id="Layer_1" xmlns="http://www.w3.org/2000/svg" xmlns:xlink="http://www.w3.org/1999/xlink" x="0px" y="0px"
	 width="100%" viewBox="0 0 512 512" enable-background="new 0 0 512 512" xml:space="preserve">
<path fill="#000000" opacity="1.000000" stroke="none" 
	d="
M282.736267,416.315887 
	C270.663727,417.523834 261.656311,412.380951 253.766724,404.571564 
	C248.202332,399.063782 242.609070,393.581543 237.184525,387.938110 
	C235.332245,386.011108 233.651260,385.098969 231.139389,386.538727 
	C229.477264,387.491455 227.576065,387.236786 225.749893,387.236206 
	C188.757965,387.225006 151.766022,387.218842 114.774094,387.190033 
	C96.476822,387.175781 81.700928,372.601562 81.681084,354.279358 
	C81.616287,294.459106 81.518784,234.638290 81.732468,174.818741 
	C81.805084,154.489029 95.661446,142.034592 114.430389,141.864334 
	C173.745895,141.326309 233.070786,141.440216 292.389099,141.794800 
	C313.154938,141.918915 325.292145,156.930283 325.500824,176.585587 
	C325.673920,192.890427 325.757111,209.196350 325.835541,225.502014 
	C325.882599,235.279480 325.844147,245.057373 325.844147,255.192108 
	C327.331177,254.399872 328.547821,253.573547 329.886414,253.074326 
	C333.012878,251.908310 335.795319,252.573380 338.041016,255.089554 
	C340.376099,257.705872 341.002106,260.617249 339.343262,263.833649 
	C339.040741,264.420166 338.679291,265.013275 338.216827,265.474854 
	C322.887787,280.773743 307.955780,296.504639 292.043701,311.172058 
	C282.720825,319.765717 271.207550,318.696655 260.118530,313.721008 
	C254.116272,311.027771 249.065002,306.946930 244.442307,302.312622 
	C238.912537,296.768921 233.470245,291.132965 227.807251,285.728516 
	C221.102203,279.329559 215.293015,279.451080 208.692947,285.920349 
	C204.054688,290.466675 199.426102,295.028198 194.940933,299.724060 
	C189.372238,305.554352 188.687103,312.459381 192.783508,319.403107 
	C194.741165,322.721497 197.156906,325.670074 199.890640,328.393402 
	C221.605881,350.025940 243.279572,371.700165 264.996307,393.331207 
	C274.710388,403.006927 282.804932,403.947998 292.962341,394.667511 
	C307.217316,381.643158 320.637268,367.700745 334.331940,354.068176 
	C358.303619,330.205139 382.207733,306.274170 406.150238,282.381775 
	C416.344940,272.208435 416.453918,264.700012 406.342499,254.188232 
	C401.492706,249.146408 396.448547,244.291763 391.504852,239.339920 
	C390.446533,238.279831 389.334259,237.247833 388.433136,236.061401 
	C385.742279,232.518723 385.912262,228.883255 388.730286,225.569397 
	C391.421448,222.404663 395.683044,221.961960 398.975739,225.136490 
	C407.474731,233.330521 416.751862,240.843826 423.545471,250.642227 
	C432.676971,263.812469 431.795105,278.475708 420.438477,290.281281 
	C404.503174,306.846558 388.028687,322.893494 371.769348,339.146637 
	C350.323761,360.584106 328.881409,382.024902 307.398285,403.424713 
	C300.651184,410.145599 292.931854,415.149414 282.736267,416.315887 
M117.808716,158.402313 
	C106.000862,158.698654 98.399994,165.724686 98.392464,176.673065 
	C98.352196,235.172516 98.484703,293.672424 98.264725,352.171051 
	C98.233994,360.343903 106.835739,370.190735 116.015800,370.042877 
	C148.007507,369.527618 180.012085,369.820038 212.011673,369.758087 
	C213.885345,369.754456 215.890961,370.135834 218.036453,368.984772 
	C209.651093,360.577850 201.553726,352.446075 193.440262,344.330414 
	C188.495178,339.384003 183.458588,334.562134 179.781006,328.478149 
	C171.339249,314.512604 172.906036,299.408325 184.287064,287.769562 
	C188.831009,283.122681 193.429306,278.526184 198.094360,274.001099 
	C209.764252,262.681335 226.174606,262.510223 238.021011,273.674561 
	C243.233948,278.587372 248.217804,283.744873 253.261414,288.835144 
	C257.023071,292.631622 260.829010,296.353912 265.637299,298.852112 
	C273.693176,303.037598 279.022156,302.290833 285.514099,295.948975 
	C289.447998,292.106049 292.963623,287.748474 297.264130,284.385468 
	C306.079468,277.491821 308.766479,269.295837 308.522675,257.814484 
	C307.960632,231.351624 308.283722,204.836639 308.520416,178.349640 
	C308.627625,166.352936 299.992004,158.249786 287.740540,158.297333 
	C231.408524,158.516052 175.075195,158.397354 117.808716,158.402313 
z"/>
<path fill="#000000" opacity="1.000000" stroke="none" 
	d="
M363.485199,244.113037 
	C361.574890,247.818253 358.822540,249.228287 355.121307,248.610367 
	C351.814545,248.058289 349.832794,245.911911 349.042053,242.785599 
	C348.267242,239.722198 349.558075,237.211517 351.921722,235.347183 
	C354.516937,233.300201 357.454010,233.059921 360.257874,234.842773 
	C363.516876,236.915070 365.029877,239.832123 363.485199,244.113037 
z"/>
</svg>