<svg version="1.1" id="Layer_1" xmlns="http://www.w3.org/2000/svg" xmlns:xlink="http://www.w3.org/1999/xlink" x="0px" y="0px"
	 width="100%" viewBox="0 0 256 256" enable-background="new 0 0 256 256" xml:space="preserve">
<path fill="#414141" opacity="1.000000" stroke="none" 
	d="
M257.000000,190.000000 
	C257.000000,212.308517 257.000000,234.617020 257.000000,256.962769 
	C171.786331,256.962769 86.572647,256.962769 1.000000,256.962769 
	C1.000000,233.647003 1.000000,210.292160 1.321440,186.612396 
	C2.722213,186.702393 3.770843,187.347198 4.885709,187.496078 
	C14.362022,188.761673 23.911135,187.655899 33.478985,188.620987 
	C40.770718,189.356491 48.377773,186.965912 55.916656,186.377350 
	C56.006153,197.116760 56.002544,207.444977 56.049076,217.772995 
	C56.075508,223.640442 57.073624,224.436005 62.435848,222.728683 
	C97.959152,211.418152 133.472717,200.076965 169.326080,188.728989 
	C170.969467,188.407028 172.276215,188.101852 173.860168,188.051239 
	C176.509155,189.346436 178.834793,191.131699 181.261703,191.281952 
	C187.452927,191.665329 193.690338,191.219849 199.907410,191.285095 
	C213.955322,191.432571 228.001846,191.712463 242.049698,191.869598 
	C243.847015,191.889709 245.652344,191.525879 247.447952,191.293472 
	C250.634384,190.881088 253.816238,190.433090 257.000000,190.000000 
z"/>
<path fill="#4C4C4C" opacity="1.000000" stroke="none" 
	d="
M1.000000,56.000000 
	C1.000000,37.687954 1.000000,19.375912 1.000000,1.063867 
	C1.145184,1.042578 1.290368,1.002633 1.435552,1.002628 
	C86.503319,0.999968 171.571091,1.000000 257.000000,1.000000 
	C257.000000,22.686224 257.000000,44.374454 256.733704,66.337708 
	C254.442444,63.919930 252.905075,60.180046 248.413589,62.071148 
	C240.808929,65.273041 233.119705,63.197525 225.423309,62.792732 
	C221.071045,62.563824 216.685715,63.024490 212.314056,63.083462 
	C208.924072,63.129192 205.532196,63.033714 202.065613,62.537674 
	C201.973709,55.275002 201.954956,48.475670 201.941650,41.676327 
	C201.926208,33.782059 201.505539,33.485001 194.122910,35.769394 
	C176.134399,41.335556 158.136810,46.872326 139.838531,52.249210 
	C138.894073,51.927673 138.232040,51.586288 137.617111,51.656624 
	C127.651604,52.796478 117.695404,54.018406 107.727783,55.138828 
	C106.111145,55.320549 104.449615,55.111385 102.809135,55.070930 
	C99.381371,54.986389 95.953323,54.809570 92.526314,54.829449 
	C89.400253,54.847580 86.274849,55.200375 83.150124,55.186642 
	C74.731995,55.149643 66.310684,54.795193 57.897709,54.950367 
	C50.907856,55.079296 43.644707,57.186497 37.005360,55.874084 
	C24.825825,53.466530 12.979209,56.460136 1.000000,56.000000 
z"/>
<path fill="#454544" opacity="1.000000" stroke="none" 
	d="
M55.844547,185.966064 
	C48.377773,186.965912 40.770718,189.356491 33.478985,188.620987 
	C23.911135,187.655899 14.362022,188.761673 4.885709,187.496078 
	C3.770843,187.347198 2.722213,186.702393 1.321440,186.143738 
	C1.000000,163.312439 1.000000,140.624878 1.314709,117.316772 
	C2.216483,116.127907 3.214439,115.629639 3.325192,114.980103 
	C4.162915,110.067154 7.400521,110.079002 11.138053,110.971992 
	C14.331235,111.734909 17.517910,113.129478 20.714577,113.150253 
	C27.837952,113.196564 34.983471,112.095131 42.085415,112.366257 
	C46.643620,112.540283 51.696156,110.087952 55.918343,114.465424 
	C56.006424,117.918449 56.031757,120.909760 56.036503,123.901108 
	C56.049126,131.856842 56.334934,132.236404 64.063698,134.719131 
	C81.919693,140.455002 99.773209,146.198608 117.315186,152.132355 
	C115.667397,152.898422 114.332153,153.471237 112.629944,154.052490 
	C109.803535,154.880753 107.344078,155.700562 104.494865,156.593994 
	C100.044411,158.020294 95.983711,159.372955 91.530945,160.762024 
	C83.549751,163.166412 75.955536,165.518204 68.372658,167.906052 
	C55.371380,172.000153 55.921867,170.547455 56.020081,184.489441 
	C56.023548,184.981216 55.905800,185.473831 55.844547,185.966064 
z"/>
<path fill="#484847" opacity="1.000000" stroke="none" 
	d="
M202.141174,63.001007 
	C205.532196,63.033714 208.924072,63.129192 212.314056,63.083462 
	C216.685715,63.024490 221.071045,62.563824 225.423309,62.792732 
	C233.119705,63.197525 240.808929,65.273041 248.413589,62.071148 
	C252.905075,60.180046 254.442444,63.919930 256.733704,66.806366 
	C257.000000,87.687561 257.000000,108.375122 256.604553,129.557465 
	C252.830780,130.853653 249.414215,132.456635 246.081757,132.297607 
	C237.944443,131.909348 229.848312,130.682709 221.728119,129.868256 
	C220.974106,129.792633 220.092361,130.110306 219.396179,130.481918 
	C214.963745,132.847839 210.915405,132.543747 206.892227,129.360336 
	C205.399582,128.179230 203.291260,127.776192 201.245010,126.784790 
	C199.027313,125.451225 197.142883,123.996964 195.011093,123.307533 
	C178.854996,118.082626 162.648560,113.013504 146.463959,107.876480 
	C144.873535,107.371681 143.324371,106.736916 140.495132,105.700630 
	C159.555695,99.649437 177.103836,93.892601 194.784378,88.576134 
	C200.239014,86.935944 202.347931,84.035454 202.023392,78.478386 
	C201.723236,73.339081 202.075958,68.161652 202.141174,63.001007 
z"/>
<path fill="#494949" opacity="1.000000" stroke="none" 
	d="
M55.846210,114.003731 
	C51.696156,110.087952 46.643620,112.540283 42.085415,112.366257 
	C34.983471,112.095131 27.837952,113.196564 20.714577,113.150253 
	C17.517910,113.129478 14.331235,111.734909 11.138053,110.971992 
	C7.400521,110.079002 4.162915,110.067154 3.325192,114.980103 
	C3.214439,115.629639 2.216483,116.127907 1.314709,116.848114 
	C1.000000,96.979103 1.000000,76.958214 1.000000,56.468658 
	C12.979209,56.460136 24.825825,53.466530 37.005360,55.874084 
	C43.644707,57.186497 50.907856,55.079296 57.897709,54.950367 
	C66.310684,54.795193 74.731995,55.149643 83.150124,55.186642 
	C86.274849,55.200375 89.400253,54.847580 92.526314,54.829449 
	C95.953323,54.809570 99.381371,54.986389 102.809135,55.070930 
	C104.449615,55.111385 106.111145,55.320549 107.727783,55.138828 
	C117.695404,54.018406 127.651604,52.796478 137.617111,51.656624 
	C138.232040,51.586288 138.894073,51.927673 139.570435,52.491127 
	C113.861092,61.112896 88.140495,69.401070 62.347595,77.457794 
	C57.519516,78.965897 55.848137,81.688683 55.962265,86.585426 
	C56.175137,95.718994 55.911530,104.863678 55.846210,114.003731 
z"/>
<path fill="#444444" opacity="1.000000" stroke="none" 
	d="
M201.463715,127.018326 
	C203.291260,127.776192 205.399582,128.179230 206.892227,129.360336 
	C210.915405,132.543747 214.963745,132.847839 219.396179,130.481918 
	C220.092361,130.110306 220.974106,129.792633 221.728119,129.868256 
	C229.848312,130.682709 237.944443,131.909348 246.081757,132.297607 
	C249.414215,132.456635 252.830780,130.853653 256.604553,130.026123 
	C257.000000,149.687561 257.000000,169.375122 257.000000,189.531342 
	C253.816238,190.433090 250.634384,190.881088 247.447952,191.293472 
	C245.652344,191.525879 243.847015,191.889709 242.049698,191.869598 
	C228.001846,191.712463 213.955322,191.432571 199.907410,191.285095 
	C193.690338,191.219849 187.452927,191.665329 181.261703,191.281952 
	C178.834793,191.131699 176.509155,189.346436 174.153656,187.821899 
	C176.822571,186.326797 179.475235,185.315582 182.520752,184.275269 
	C186.275116,183.163651 189.636612,182.081131 193.370255,180.994781 
	C196.122650,179.651367 198.502930,178.311768 201.129761,176.628937 
	C201.405457,159.863235 201.434586,143.440781 201.463715,127.018326 
z"/>
<path fill="#FD9601" opacity="1.000000" stroke="none" 
	d="
M55.916656,186.377350 
	C55.905800,185.473831 56.023548,184.981216 56.020081,184.489441 
	C55.921867,170.547455 55.371380,172.000153 68.372658,167.906052 
	C75.955536,165.518204 83.549751,163.166412 91.655495,161.105316 
	C95.811386,163.434036 99.233665,166.159760 103.126282,167.359741 
	C123.475021,173.632721 143.955276,179.478134 164.347656,185.612350 
	C166.054626,186.125824 167.449539,187.676819 168.989441,188.745789 
	C133.472717,200.076965 97.959152,211.418152 62.435848,222.728683 
	C57.073624,224.436005 56.075508,223.640442 56.049076,217.772995 
	C56.002544,207.444977 56.006153,197.116760 55.916656,186.377350 
z"/>
<path fill="#F69000" opacity="1.000000" stroke="none" 
	d="
M169.326080,188.729004 
	C167.449539,187.676819 166.054626,186.125824 164.347656,185.612350 
	C143.955276,179.478134 123.475021,173.632721 103.126282,167.359741 
	C99.233665,166.159760 95.811386,163.434036 92.047562,161.068939 
	C95.983711,159.372955 100.044411,158.020294 104.630524,156.945496 
	C107.146164,158.551407 108.962242,160.448090 111.153641,161.119186 
	C132.238327,167.576263 153.405258,173.764664 174.492584,180.213379 
	C177.201385,181.041733 179.590622,182.915070 182.127899,184.304352 
	C179.475235,185.315582 176.822571,186.326797 173.876434,187.567352 
	C172.276215,188.101852 170.969467,188.407028 169.326080,188.729004 
z"/>
<path fill="#FE9800" opacity="1.000000" stroke="none" 
	d="
M201.245010,126.784798 
	C201.434586,143.440781 201.405457,159.863235 200.725861,176.622833 
	C197.963104,176.557007 195.785904,176.360092 193.748825,175.718399 
	C177.736923,170.674469 161.767303,165.496216 145.752548,160.461472 
	C136.408081,157.523743 127.004631,154.773621 117.627724,151.939087 
	C99.773209,146.198608 81.919693,140.455002 64.063698,134.719131 
	C56.334934,132.236404 56.049126,131.856842 56.036503,123.901108 
	C56.031757,120.909760 56.006424,117.918449 55.918343,114.465424 
	C55.911530,104.863678 56.175137,95.718994 55.962265,86.585426 
	C55.848137,81.688683 57.519516,78.965897 62.347595,77.457794 
	C88.140495,69.401070 113.861092,61.112896 139.874786,52.662846 
	C158.136810,46.872326 176.134399,41.335556 194.122910,35.769394 
	C201.505539,33.485001 201.926208,33.782059 201.941650,41.676327 
	C201.954956,48.475670 201.973709,55.275002 202.065613,62.537674 
	C202.075958,68.161652 201.723236,73.339081 202.023392,78.478386 
	C202.347931,84.035454 200.239014,86.935944 194.784378,88.576134 
	C177.103836,93.892601 159.555695,99.649437 140.495132,105.700630 
	C143.324371,106.736916 144.873535,107.371681 146.463959,107.876480 
	C162.648560,113.013504 178.854996,118.082626 195.011093,123.307533 
	C197.142883,123.996964 199.027313,125.451225 201.245010,126.784798 
z"/>
<path fill="#EF8900" opacity="1.000000" stroke="none" 
	d="
M182.520752,184.275253 
	C179.590622,182.915070 177.201385,181.041733 174.492584,180.213379 
	C153.405258,173.764664 132.238327,167.576263 111.153641,161.119186 
	C108.962242,160.448090 107.146164,158.551407 105.020279,156.871887 
	C107.344078,155.700562 109.803535,154.880753 112.801788,154.343933 
	C115.914253,156.033096 118.343102,157.896286 121.086838,158.765762 
	C132.497467,162.381683 144.027359,165.619110 155.467178,169.145660 
	C168.004074,173.010391 180.489990,177.040558 192.998123,180.998611 
	C189.636612,182.081131 186.275116,183.163651 182.520752,184.275253 
z"/>
<path fill="#E78300" opacity="1.000000" stroke="none" 
	d="
M193.370255,180.994781 
	C180.489990,177.040558 168.004074,173.010391 155.467178,169.145660 
	C144.027359,165.619110 132.497467,162.381683 121.086838,158.765762 
	C118.343102,157.896286 115.914253,156.033096 113.168747,154.335480 
	C114.332153,153.471237 115.667397,152.898422 117.315186,152.132355 
	C127.004631,154.773621 136.408081,157.523743 145.752548,160.461472 
	C161.767303,165.496216 177.736923,170.674469 193.748825,175.718399 
	C195.785904,176.360092 197.963104,176.557007 200.479279,176.966064 
	C198.502930,178.311768 196.122650,179.651367 193.370255,180.994781 
z"/>
</svg>