<?xml version="1.0" encoding="UTF-8"?>
<svg version="1.1" xmlns="http://www.w3.org/2000/svg" width="512" height="512">
<path d="M0 0 C0.66354668 -0.00320648 1.32709336 -0.00641296 2.01074752 -0.0097166 C4.22599505 -0.01799355 6.44097057 -0.01210052 8.65622234 -0.00622082 C10.26381075 -0.00924256 11.87139772 -0.01313216 13.47898215 -0.01781338 C17.89049917 -0.02809928 22.30193496 -0.02591004 26.71345866 -0.02163279 C31.47363483 -0.01916663 36.23379138 -0.0281784 40.99396038 -0.03567028 C50.31761547 -0.04842264 59.64124177 -0.05021028 68.96490411 -0.04787002 C76.54379331 -0.04608719 84.12267377 -0.04783574 91.70156193 -0.05209446 C92.78011715 -0.05268965 93.85867238 -0.05328484 94.96991109 -0.05389806 C97.16099305 -0.05510981 99.352075 -0.05632395 101.54315694 -0.05754044 C122.09376937 -0.06841818 142.64436539 -0.06625246 163.19497874 -0.06015559 C181.99245769 -0.05498702 200.78988481 -0.0662399 219.58735351 -0.08525381 C238.89050014 -0.10462946 258.19362225 -0.11288864 277.49677867 -0.10913056 C288.3332265 -0.107218 299.16963023 -0.10971137 310.00607014 -0.1238451 C319.23194384 -0.13575642 328.45774629 -0.1371666 337.68362097 -0.12505493 C342.38964903 -0.11916434 347.09554673 -0.11807182 351.80156612 -0.13005733 C356.11276218 -0.14090956 360.42371894 -0.13782061 364.73490378 -0.12379565 C366.29138963 -0.1211469 367.8478942 -0.12352088 369.4043617 -0.13153151 C377.74183674 -0.17145055 385.21989366 0.21616278 393.07582378 3.25447559 C394.01555035 3.57029591 394.95527691 3.88611622 395.92348003 4.21150684 C401.89061632 6.51627377 406.89072897 9.5330699 412.07582378 13.25447559 C412.77449566 13.72498341 413.47316753 14.19549122 414.19301128 14.68025684 C415.86041367 15.81529582 417.47452135 17.02794607 419.07582378 18.25447559 C419.07582378 18.91447559 419.07582378 19.57447559 419.07582378 20.25447559 C419.71519878 20.52260059 420.35457378 20.79072559 421.01332378 21.06697559 C423.07582378 22.25447559 423.07582378 22.25447559 424.07582378 25.25447559 C424.69586285 25.56256153 425.31590191 25.87064747 425.95473003 26.18806934 C429.96330618 28.20343083 431.80707321 32.5180539 434.07582378 36.25447559 C434.53473003 37.00599903 434.99363628 37.75752247 435.46644878 38.53181934 C438.41931995 43.5926136 440.4502435 48.63541774 442.07582378 54.25447559 C442.41451321 55.31484317 442.75320264 56.37521075 443.10215539 57.46771067 C444.06657281 61.21849696 444.32745521 64.31770165 444.33029938 68.17865181 C444.33510909 69.17397183 444.33510909 69.17397183 444.34001598 70.18939933 C444.34829293 72.40464686 444.3423999 74.61962238 444.3365202 76.83487415 C444.33954194 78.44246256 444.34343154 80.05004953 444.34811276 81.65763396 C444.35839866 86.06915097 444.35620942 90.48058677 444.35193217 94.89211047 C444.34946601 99.65228663 444.35847778 104.41244319 444.36596966 109.17261219 C444.37872202 118.49626728 444.38050965 127.81989358 444.3781694 137.14355592 C444.37638657 144.72244512 444.37813512 152.30132558 444.38239384 159.88021374 C444.38298903 160.95876896 444.38358421 162.03732419 444.38419744 163.1485629 C444.38540919 165.33964486 444.38662332 167.53072681 444.38783982 169.72180875 C444.39871756 190.27242118 444.39655183 210.8230172 444.39045497 231.37363055 C444.3852864 250.1711095 444.39653928 268.96853662 444.41555319 287.76600531 C444.43492884 307.06915195 444.44318802 326.37227406 444.43942994 345.67543048 C444.43751738 356.51187831 444.44001075 367.34828204 444.45414448 378.18472195 C444.4660558 387.41059565 444.46746598 396.6363981 444.45535431 405.86227278 C444.44946372 410.56830083 444.4483712 415.27419854 444.46035671 419.98021793 C444.47120894 424.29141399 444.46811999 428.60237075 444.45409503 432.91355558 C444.45144627 434.47004144 444.45382026 436.02654601 444.46183089 437.58301351 C444.50174993 445.92048855 444.1141366 453.39854547 441.07582378 461.25447559 C440.76000347 462.19420216 440.44418316 463.13392872 440.11879253 464.10213184 C437.81402561 470.06926813 434.79722947 475.06938078 431.07582378 480.25447559 C430.60531597 480.95314747 430.13480816 481.65181934 429.65004253 482.37166309 C428.51500356 484.03906548 427.30235331 485.65317316 426.07582378 487.25447559 C425.41582378 487.25447559 424.75582378 487.25447559 424.07582378 487.25447559 C423.80769878 487.89385059 423.53957378 488.53322559 423.26332378 489.19197559 C422.07582378 491.25447559 422.07582378 491.25447559 419.07582378 492.25447559 C418.76773785 492.87451466 418.45965191 493.49455372 418.14223003 494.13338184 C416.12686855 498.14195799 411.81224548 499.98572502 408.07582378 502.25447559 C407.32430035 502.71338184 406.57277691 503.17228809 405.79848003 503.64510059 C400.73768578 506.59797176 395.69488164 508.62889531 390.07582378 510.25447559 C389.01545621 510.59316502 387.95508863 510.93185445 386.8625887 511.2808072 C383.11180242 512.24522462 380.01259773 512.50610702 376.15164757 512.50895119 C375.15632754 512.5137609 375.15632754 512.5137609 374.14090005 512.51866779 C371.92565252 512.52694474 369.71067699 512.52105171 367.49542522 512.515172 C365.88783682 512.51819375 364.28024985 512.52208335 362.67266542 512.52676457 C358.2611484 512.53705047 353.84971261 512.53486123 349.43818891 512.53058398 C344.67801274 512.52811781 339.91785618 512.53712959 335.15768719 512.54462147 C325.8340321 512.55737383 316.5104058 512.55916146 307.18674346 512.5568212 C299.60785426 512.55503838 292.0289738 512.55678693 284.45008564 512.56104565 C283.37153041 512.56164084 282.29297519 512.56223602 281.18173647 512.56284925 C278.99065452 512.564061 276.79957257 512.56527513 274.60849062 512.56649163 C254.0578782 512.57736937 233.50728218 512.57520364 212.95666883 512.56910678 C194.15918988 512.56393821 175.36176276 512.57519109 156.56429406 512.594205 C137.26114743 512.61358065 117.95802532 512.62183983 98.6548689 512.61808175 C87.81842106 512.61616919 76.98201734 512.61866256 66.14557743 512.63279629 C56.91970373 512.64470761 47.69390128 512.64611779 38.4680266 512.63400612 C33.76199854 512.62811553 29.05610084 512.62702301 24.35008144 512.63900852 C20.03888539 512.64986075 15.72792862 512.6467718 11.41674379 512.63274684 C9.86025793 512.63009808 8.30375336 512.63247207 6.74728587 512.6404827 C-1.59018917 512.68040174 -9.06824609 512.29278841 -16.92417622 509.25447559 C-17.86390278 508.93865528 -18.80362934 508.62283497 -19.77183247 508.29744434 C-25.73896875 505.99267742 -30.7390814 502.97588128 -35.92417622 499.25447559 C-36.97218403 498.54871387 -36.97218403 498.54871387 -38.04136372 497.82869434 C-39.7087661 496.69365537 -41.32287378 495.48100512 -42.92417622 494.25447559 C-42.92417622 493.59447559 -42.92417622 492.93447559 -42.92417622 492.25447559 C-43.56355122 491.98635059 -44.20292622 491.71822559 -44.86167622 491.44197559 C-46.92417622 490.25447559 -46.92417622 490.25447559 -47.92417622 487.25447559 C-48.54421528 486.94638966 -49.16425434 486.63830372 -49.80308247 486.32088184 C-53.81165861 484.30552036 -55.65542564 479.99089729 -57.92417622 476.25447559 C-58.38308247 475.50295216 -58.84198872 474.75142872 -59.31480122 473.97713184 C-62.26767238 468.91633759 -64.29859593 463.87353345 -65.92417622 458.25447559 C-66.26286565 457.19410802 -66.60155507 456.13374044 -66.95050782 455.04124051 C-67.91492524 451.29045423 -68.17580764 448.19124954 -68.17865181 444.33029938 C-68.18185829 443.6667527 -68.18506477 443.00320601 -68.18836841 442.31955186 C-68.19664536 440.10430433 -68.19075233 437.8893288 -68.18487263 435.67407703 C-68.18789437 434.06648863 -68.19178397 432.45890166 -68.19646519 430.85131723 C-68.20675109 426.43980021 -68.20456185 422.02836441 -68.2002846 417.61684072 C-68.19781844 412.85666455 -68.20683021 408.09650799 -68.21432209 403.336339 C-68.22707445 394.01268391 -68.22886209 384.68905761 -68.22652183 375.36539527 C-68.224739 367.78650607 -68.22648755 360.20762561 -68.23074627 352.62873745 C-68.23163905 351.01090461 -68.23163905 351.01090461 -68.23254987 349.36038828 C-68.23376162 347.16930633 -68.23497576 344.97822438 -68.23619225 342.78714243 C-68.24706999 322.23653001 -68.24490426 301.68593399 -68.2388074 281.13532064 C-68.23363883 262.33784169 -68.24489171 243.54041457 -68.26390562 224.74294587 C-68.28328127 205.43979924 -68.29154045 186.13667713 -68.28778237 166.83352071 C-68.28586981 155.99707287 -68.28836318 145.16066915 -68.30249691 134.32422924 C-68.31440823 125.09835554 -68.31581841 115.87255309 -68.30370674 106.64667841 C-68.29781615 101.94065035 -68.29672363 97.23475265 -68.30870914 92.52873325 C-68.31956137 88.2175372 -68.31647242 83.90658043 -68.30244746 79.5953956 C-68.29979871 78.03890974 -68.30217269 76.48240517 -68.31018332 74.92593767 C-68.35010236 66.58846264 -67.96248903 59.11040572 -64.92417622 51.25447559 C-64.6083559 50.31474903 -64.29253559 49.37502247 -63.96714497 48.40681934 C-61.66237804 42.43968306 -58.64558191 37.43957041 -54.92417622 32.25447559 C-54.2184145 31.20646778 -54.2184145 31.20646778 -53.49839497 30.13728809 C-52.36335599 28.46988571 -51.15070574 26.85577803 -49.92417622 25.25447559 C-49.26417622 25.25447559 -48.60417622 25.25447559 -47.92417622 25.25447559 C-47.65605122 24.61510059 -47.38792622 23.97572559 -47.11167622 23.31697559 C-45.92417622 21.25447559 -45.92417622 21.25447559 -42.92417622 20.25447559 C-42.61609028 19.63443653 -42.30800434 19.01439747 -41.99058247 18.37556934 C-39.97522098 14.3669932 -35.66059791 12.52322617 -31.92417622 10.25447559 C-31.17265278 9.79556934 -30.42112934 9.33666309 -29.64683247 8.86385059 C-24.58603821 5.91097943 -19.54323407 3.88005588 -13.92417622 2.25447559 C-12.86380864 1.91578616 -11.80344106 1.57709674 -10.71094114 1.22814399 C-6.96015485 0.26372657 -3.86095016 0.00284417 0 0 Z " fill="#006984" transform="translate(67.92417621612549,-0.25447559356689453)"/>
<path d="M0 0 C5.82540344 -0.26621467 10.87056304 0.66650448 16.5 2.125 C17.31597656 2.31320313 18.13195312 2.50140625 18.97265625 2.6953125 C26.28123702 4.57231559 31.4636119 8.09616455 35.375 14.625 C40.14680089 24.53566339 38.39098258 36.57639056 36 47 C35.1679139 49.32689564 34.22476453 51.48955985 33.11328125 53.69482422 C32.01665566 55.96551256 31.09656157 58.24724951 30.1953125 60.6015625 C28.00814122 66.12120408 25.43390686 71.3950108 22.75 76.6875 C22.27199951 77.63705566 21.79399902 78.58661133 21.30151367 79.56494141 C17.32073343 87.44139418 13.2148664 95.24657815 9 103 C9.4640625 102.71125 9.928125 102.4225 10.40625 102.125 C19.84655075 97.05259959 30.93015954 97.8382302 41 100.625 C46.34689568 102.51800033 51.17179847 104.7099511 55 109 C56.5 112.4375 56.5 112.4375 57 116 C57.20625 117.11375 57.4125 118.2275 57.625 119.375 C56.37812443 126.60687832 50.18379766 131.32465908 44.5625 135.625 C40.06586254 138.60881524 35.33253008 140.78654294 30.375 142.875 C29.67060791 143.1735791 28.96621582 143.4721582 28.24047852 143.77978516 C23.46979817 145.68939346 19.11966238 146.55131049 14 147 C14.66 145.68 15.32 144.36 16 143 C16.66 143 17.32 143 18 143 C18.28230469 142.40703125 18.56460938 141.8140625 18.85546875 141.203125 C20 139 20 139 22.3125 135.75 C27.47308974 127.54834845 31.9968834 114.79523859 30 105 C29.34 104.34 28.68 103.68 28 103 C25.4358681 103.17094213 24.08264598 103.9405982 22 105.4375 C19.00435847 109.27566571 17.61353552 113.43865919 16 118 C15.43539062 119.40572266 15.43539062 119.40572266 14.859375 120.83984375 C12.36333087 127.66880955 11.5878799 134.03985353 11.5 141.25 C11.48163086 142.07741699 11.46326172 142.90483398 11.44433594 143.75732422 C11.5254171 151.88003541 14.28849517 159.10425308 20 165 C27.84556393 167.61518798 36.40724617 166.59451759 43.83984375 163.22265625 C46.92258133 161.47781563 49.37097902 159.36611889 52 157 C52.66 157 53.32 157 54 157 C54.25265625 156.43539062 54.5053125 155.87078125 54.765625 155.2890625 C56.16835952 152.68778898 57.84896049 150.63708965 59.75 148.375 C63.23593051 144.10171907 66.13357069 139.71493512 68.87109375 134.93359375 C70 133 70 133 71 132 C72.66617115 131.95936168 74.33388095 131.957279 76 132 C72.18960044 146.47951834 61.25122742 156.63237018 48.7668457 164.01000977 C42.76731606 167.35980416 36.66421224 169.32397057 30 171 C29.01 171.33 28.02 171.66 27 172 C10.57054185 172.7539666 -4.04382073 171.37776149 -17 160 C-21.68475563 154.43530349 -23.42211331 147.97862083 -25 141 C-26.30710937 142.46759766 -26.30710937 142.46759766 -27.640625 143.96484375 C-50.68161172 169.47404244 -50.68161172 169.47404244 -65.375 170.6875 C-72.26280682 170.23483774 -79.19273366 166.82349332 -84.02734375 161.9609375 C-85.51116992 160.02361923 -86.80398719 158.12528896 -88 156 C-88.36996094 155.41734375 -88.73992187 154.8346875 -89.12109375 154.234375 C-96.75774407 134.82031285 -85.60060894 99.48190823 -81 80 C-81.37511719 81.01578125 -81.75023437 82.0315625 -82.13671875 83.078125 C-85.24818974 91.46436781 -88.4667913 99.78012959 -92 108 C-92.30292969 108.71800781 -92.60585937 109.43601562 -92.91796875 110.17578125 C-95.64079127 116.48940029 -98.76089566 122.60925055 -101.86328125 128.7421875 C-103.26839752 131.52438144 -104.63925805 134.31928023 -105.98046875 137.1328125 C-117.65887811 161.47255429 -117.65887811 161.47255429 -129 168 C-129.78375 168.45375 -130.5675 168.9075 -131.375 169.375 C-137.95159266 170.9408554 -144.17718787 170.79740553 -150.1171875 167.39453125 C-155.75424959 163.21936286 -160.05131673 157.76307724 -162 151 C-163.75582942 136.0878149 -158.07203685 120.19834737 -154 106 C-151.8496852 98.30590484 -149.82715846 90.67488067 -148.48828125 82.79296875 C-145.58983316 66.21384568 -140.8088109 50.10163322 -136 34 C-149.8367372 40.96024834 -163.45865815 47.86574972 -176 57 C-176.84175781 57.61230469 -177.68351562 58.22460938 -178.55078125 58.85546875 C-185.16905764 63.85061 -192.04860176 69.22433739 -197.16796875 75.7734375 C-197.77253906 76.50820312 -198.37710938 77.24296875 -199 78 C-199.66 78 -200.32 78 -201 78 C-201.27972656 78.58136719 -201.55945313 79.16273438 -201.84765625 79.76171875 C-203.27814497 82.54026125 -204.96772116 85.09825944 -206.68359375 87.70703125 C-210.17474555 93.78805828 -211.54199633 99.02646534 -212.1875 105.9375 C-212.26935547 106.71673828 -212.35121094 107.49597656 -212.43554688 108.29882812 C-212.63364171 110.19820797 -212.81823841 112.09898762 -213 114 C-222.756896 112.33459879 -227.57186912 106.51545075 -233.21484375 98.83984375 C-236.8789144 93.01100488 -236.58242286 86.72828796 -236 80 C-232.95993204 67.62101823 -218.13851325 58.42140159 -208.03344727 52.16259766 C-204.89970925 50.33372098 -201.74178761 48.56097848 -198.5625 46.8125 C-197.40741943 46.17393066 -196.25233887 45.53536133 -195.06225586 44.87744141 C-143.62862786 16.71978261 -143.62862786 16.71978261 -128 18 C-125.48842952 19.11562432 -123.36865398 20.19327213 -121.0625 21.625 C-120.45639893 21.99036865 -119.85029785 22.3557373 -119.22583008 22.73217773 C-117.47157 23.80301465 -115.73503783 24.89838046 -114 26 C-113.12601562 26.53496094 -112.25203125 27.06992188 -111.3515625 27.62109375 C-106.24187442 31.02447805 -106.24187442 31.02447805 -105.17578125 35.32421875 C-104.98907234 39.2285096 -105.49182446 41.18693529 -107 44.75 C-109.72489863 51.83929058 -111.68624766 59.01792982 -113.5625 66.375 C-113.86317383 67.55344482 -114.16384766 68.73188965 -114.47363281 69.94604492 C-116.0869352 76.31292241 -117.67050774 82.68716632 -119.25 89.0625 C-120.42353485 93.79625239 -121.71128563 98.45828857 -123.1484375 103.1171875 C-126.07555776 113.02642949 -128.88023662 123.05401104 -130.53125 133.26171875 C-131.00991055 136.05789415 -131.60267332 138.82043445 -132.20336914 141.5925293 C-133.60907131 148.16034101 -134.42633614 154.28915328 -134 161 C-128.57755149 160.31869408 -126.65638952 158.16152644 -123.234375 154.08984375 C-114.38837164 141.85699645 -108.2868551 127.65672736 -102 114 C-101.04808123 111.94761613 -100.09397571 109.89626915 -99.13867188 107.84545898 C-98.55407798 106.59034873 -97.9707097 105.33466677 -97.38867188 104.07836914 C-95.76915888 100.59498722 -94.07516424 97.16281799 -92.3125 93.75 C-90.18193365 89.54438694 -88.57017783 85.26056986 -87.01953125 80.8125 C-86.01027278 78.02833871 -84.87106972 75.33911429 -83.6875 72.625 C-80.92997579 66.12572755 -78.7899645 59.45371665 -76.60205078 52.74780273 C-74.38488511 46.00783875 -71.90966791 39.4763576 -69 33 C-63.97826082 32.35544727 -60.70633482 34.60183507 -56.625 37.1875 C-55.99078125 37.57486328 -55.3565625 37.96222656 -54.703125 38.36132812 C-53.42680681 39.14925925 -52.15963022 39.95219338 -50.90209961 40.76977539 C-49.61218364 41.60405681 -48.30177276 42.40732026 -46.97485352 43.18139648 C-45.109358 44.34152582 -43.53291159 45.42586583 -42 47 C-41.32421875 50.07421875 -41.32421875 50.07421875 -41.6875 53.6875 C-41.75203369 54.35740967 -41.81656738 55.02731934 -41.88305664 55.7175293 C-42.94926184 64.87476658 -45.32758187 73.86480213 -47.52734375 82.80078125 C-48.72217248 87.68048916 -49.69839684 92.55987315 -50.52368164 97.51489258 C-51.03618562 100.18879212 -51.73793091 102.76212011 -52.5 105.375 C-53.87492625 110.25222594 -54.69248001 115.07244279 -55.3984375 120.0859375 C-56.01474848 124.09596088 -56.75592211 128.06812542 -57.51489258 132.05297852 C-59.2875234 141.39030937 -60.67519386 150.48317995 -61 160 C-30.71646285 145.84146315 -13.29183176 98.49350848 -2.20703125 69.4921875 C2.29236807 56.47450791 5.17859039 44.41693883 5.1875 30.5625 C5.19974609 29.56412109 5.21199219 28.56574219 5.22460938 27.53710938 C5.23875041 20.36760621 5.01041985 13.3725979 0.8125 7.25 C-1 4 -1 4 -0.75 1.5625 C-0.37875 0.7890625 -0.37875 0.7890625 0 0 Z " fill="#FAFCFC" transform="translate(303,163)"/>
<path d="M0 0 C1.9375 0.75 1.9375 0.75 3.9375 2.75 C5.83560497 15.56837123 -0.52661952 28.52563799 -7.6015625 38.796875 C-9.24579171 40.99504239 -11.00560775 42.93044147 -13.0625 44.75 C-11.7425 45.08 -10.4225 45.41 -9.0625 45.75 C-9.84625 45.688125 -10.63 45.62625 -11.4375 45.5625 C-12.736875 45.6553125 -12.736875 45.6553125 -14.0625 45.75 C-14.7225 46.74 -15.3825 47.73 -16.0625 48.75 C-16.66094486 38.23288574 -16.63153837 28.60862701 -13.375 18.5 C-13.13120605 17.73969482 -12.88741211 16.97938965 -12.63623047 16.19604492 C-6.69242359 -0.81120286 -6.69242359 -0.81120286 0 0 Z " fill="#0C708A" transform="translate(330.0625,265.25)"/>
<path d="M0 0 C1.2065625 0.0309375 1.2065625 0.0309375 2.4375 0.0625 C-1.37289956 14.54201834 -12.31127258 24.69487018 -24.7956543 32.07250977 C-30.79518394 35.42230416 -36.89828776 37.38647057 -43.5625 39.0625 C-45.0475 39.5575 -45.0475 39.5575 -46.5625 40.0625 C-48.12368428 40.12990865 -49.6875252 40.14764456 -51.25 40.125 C-52.46236328 40.11146484 -52.46236328 40.11146484 -53.69921875 40.09765625 C-54.31410156 40.08605469 -54.92898438 40.07445312 -55.5625 40.0625 C-55.5625 39.7325 -55.5625 39.4025 -55.5625 39.0625 C-50.6125 38.5675 -50.6125 38.5675 -45.5625 38.0625 C-45.5625 37.4025 -45.5625 36.7425 -45.5625 36.0625 C-47.2125 36.0625 -48.8625 36.0625 -50.5625 36.0625 C-50.5625 35.7325 -50.5625 35.4025 -50.5625 35.0625 C-49.74007813 35.03671875 -48.91765625 35.0109375 -48.0703125 34.984375 C-37.28851006 34.4365698 -29.61015263 32.30538737 -21.5625 25.0625 C-20.9025 25.0625 -20.2425 25.0625 -19.5625 25.0625 C-19.18351562 24.21558594 -19.18351562 24.21558594 -18.796875 23.3515625 C-17.39414048 20.75028898 -15.71353951 18.69958965 -13.8125 16.4375 C-10.32656949 12.16421907 -7.42892931 7.77743512 -4.69140625 2.99609375 C-2.98467335 0.07279691 -2.98467335 0.07279691 0 0 Z " fill="#E8F1F4" transform="translate(376.5625,294.9375)"/>
<path d="M0 0 C0.66 0.99 1.32 1.98 2 3 C-5.31609881 7.95446872 -12.50813354 10.67754003 -21 13 C-21.99 13.33 -22.98 13.66 -24 14 C-25.56118428 14.06740865 -27.1250252 14.08514456 -28.6875 14.0625 C-29.89986328 14.04896484 -29.89986328 14.04896484 -31.13671875 14.03515625 C-32.05904297 14.01775391 -32.05904297 14.01775391 -33 14 C-33 13.67 -33 13.34 -33 13 C-29.7 12.67 -26.4 12.34 -23 12 C-23 11.34 -23 10.68 -23 10 C-24.65 10 -26.3 10 -28 10 C-28 9.67 -28 9.34 -28 9 C-27.17757813 8.97421875 -26.35515625 8.9484375 -25.5078125 8.921875 C-15.74611135 8.42589942 -7.35553041 6.86516172 0 0 Z " fill="#B9D6DD" transform="translate(354,321)"/>
</svg>
