<?xml version="1.0" encoding="UTF-8"?>
<svg version="1.1" xmlns="http://www.w3.org/2000/svg" width="600" height="315">
<path d="M0 0 C79.2 0 158.4 0 240 0 C240 79.2 240 158.4 240 240 C160.8 240 81.6 240 0 240 C0 160.8 0 81.6 0 0 Z " fill="#036A86" transform="translate(180,37)"/>
<path d="M0 0 C0.89874816 0.00092179 1.79749632 0.00184359 2.72347927 0.00279331 C3.75138073 0.00141865 4.77928219 0.00004398 5.83833218 -0.00137234 C6.975527 0.00222294 8.11272182 0.00581821 9.2843771 0.00952244 C10.47445873 0.00937641 11.66454037 0.00923038 12.89068508 0.00907993 C16.16326569 0.00965889 19.43580402 0.01468801 22.70837617 0.02165389 C26.1250196 0.02788815 29.54166379 0.02849128 32.95831203 0.0296793 C39.43232563 0.0327924 45.90632242 0.0410055 52.3803286 0.05102879 C59.74901216 0.06219058 67.11769651 0.06770054 74.48638642 0.07272422 C89.64814464 0.08318813 104.80988712 0.10078717 119.97163296 0.12304783 C119.97163296 0.78304783 119.97163296 1.44304783 119.97163296 2.12304783 C120.63163296 2.12304783 121.29163296 2.12304783 121.97163296 2.12304783 C121.9949736 16.03956982 122.01255144 29.95608878 122.02344513 43.8726263 C122.0286725 50.33403672 122.03576753 56.79543402 122.04707241 63.25683689 C122.05790643 69.48783212 122.0639109 75.7188147 122.0665102 81.94981861 C122.06836351 84.33175576 122.07198235 86.71369218 122.07736301 89.09562397 C122.08458025 92.42167522 122.08562361 95.74767365 122.08515835 99.07373142 C122.08875362 100.06706989 122.0923489 101.06040836 122.09605312 102.083848 C122.09467846 102.98691181 122.09330379 103.88997562 122.09188747 104.82040501 C122.09280927 105.60761621 122.09373106 106.39482742 122.09468079 107.20589352 C121.97163296 109.12304783 121.97163296 109.12304783 120.97163296 111.12304783 C80.38163296 111.12304783 39.79163296 111.12304783 -2.02836704 111.12304783 C-3.20086972 108.77804248 -3.1541087 107.40239423 -3.15535069 104.78917027 C-3.15817051 103.87913746 -3.16099033 102.96910465 -3.16389561 102.03149509 C-3.16187138 101.03037693 -3.15984715 100.02925877 -3.15776157 98.99780369 C-3.15951389 97.94573231 -3.16126621 96.89366093 -3.16307163 95.8097086 C-3.16748648 92.31908633 -3.16455364 88.82851439 -3.16117954 85.33789158 C-3.16185264 82.92175887 -3.16282271 80.50562623 -3.16407871 78.08949375 C-3.16555515 73.02116343 -3.16340267 67.95285071 -3.15873814 62.88452244 C-3.15303785 56.3716371 -3.15632211 49.85879295 -3.1623106 43.34590912 C-3.16591508 38.35583781 -3.1647782 33.36577636 -3.16218281 28.37570477 C-3.16151338 25.97340547 -3.1623425 23.5711053 -3.16466236 21.16880703 C-3.16718736 17.81881288 -3.16335059 14.46888651 -3.15776157 11.11889744 C-3.1597858 10.11575504 -3.16181004 9.11261265 -3.16389561 8.079072 C-3.16107578 7.17185902 -3.15825596 6.26464603 -3.15535069 5.32994175 C-3.15497366 4.53703204 -3.15459663 3.74412233 -3.15420818 2.92718506 C-2.972697 0.32492736 -2.59712782 0.15755084 0 0 Z " fill="#026B85" transform="translate(240.0283670425415,99.87695217132568)"/>
<path d="M0 0 C16.115719 -0.11673281 32.23130115 -0.20493853 48.34734058 -0.25906086 C55.8300927 -0.28485731 63.31258235 -0.3200348 70.79516602 -0.37719727 C77.31599511 -0.42698881 83.83663416 -0.45928055 90.35764807 -0.47044247 C93.81150979 -0.47696866 97.26482775 -0.49233532 100.7185154 -0.52865028 C104.57131874 -0.56883435 108.42358714 -0.56995216 112.27661133 -0.56762695 C113.99966995 -0.59459152 113.99966995 -0.59459152 115.75753784 -0.62210083 C116.80501694 -0.61522751 117.85249603 -0.60835419 118.93171692 -0.60127258 C119.84337018 -0.60588155 120.75502344 -0.61049051 121.69430256 -0.61523914 C124 0 124 0 127 5 C127 21.5 127 38 127 55 C84.1 55 41.2 55 -3 55 C-3 38.17 -3 21.34 -3 4 C-2.34 4 -1.68 4 -1 4 C-0.67 2.68 -0.34 1.36 0 0 Z " fill="#00788D" transform="translate(237,222)"/>
<path d="M0 0 C41.25 0 82.5 0 125 0 C125 15.51 125 31.02 125 47 C123 49 123 49 120.85137844 49.24888897 C119.50658712 49.24807182 119.50658712 49.24807182 118.1346283 49.24723816 C117.10679733 49.25143265 116.07896637 49.25562714 115.01998901 49.25994873 C113.88796051 49.25432922 112.75593201 49.24870972 111.58959961 49.24291992 C110.40097824 49.24481827 109.21235687 49.24671661 107.98771667 49.24867249 C104.72334772 49.25174826 101.45914465 49.24585769 98.19479442 49.23571944 C94.78396297 49.22695094 91.37313595 49.22869614 87.96229553 49.2290802 C82.23485017 49.22814312 76.50745774 49.21945259 70.7800293 49.20581055 C64.14986335 49.19007706 57.51975535 49.18481267 50.88957208 49.1855461 C44.52077485 49.18615556 38.15199658 49.18105807 31.78320503 49.17275429 C29.06830256 49.16921571 26.35340679 49.16739022 23.63850212 49.16686058 C19.85263997 49.16470465 16.06685218 49.15597689 12.28100586 49.14526367 C10.57992676 49.14594345 10.57992676 49.14594345 8.84448242 49.14663696 C7.30696571 49.14023949 7.30696571 49.14023949 5.73838806 49.13371277 C4.84223754 49.13203692 3.94608702 49.13036108 3.02278042 49.12863445 C1 49 1 49 0 48 C0 32.16 0 16.32 0 0 Z " fill="#00577A" transform="translate(237,37)"/>
<path d="M0 0 C0 39.6 0 79.2 0 120 C-15.51 120 -31.02 120 -47 120 C-47 81.39 -47 42.78 -47 3 C-46.34 3 -45.68 3 -45 3 C-45 2.34 -45 1.68 -45 1 C-31.58027985 -5.70986007 -15.00370325 0 0 0 Z " fill="#00738A" transform="translate(420,157)"/>
<path d="M0 0 C14.19 0 28.38 0 43 0 C46 3 46 3 46.36914349 5.19637585 C46.36499542 6.48642513 46.36499542 6.48642513 46.36076355 7.80253601 C46.36488754 8.79111603 46.36901154 9.77969604 46.3732605 10.79823303 C46.36247467 11.88148361 46.35168884 12.96473419 46.34057617 14.08081055 C46.34123329 15.7932193 46.34123329 15.7932193 46.34190369 17.54022217 C46.33980971 21.32256025 46.31644927 25.10445788 46.29296875 28.88671875 C46.28737498 31.50559751 46.28310385 34.12447941 46.28010559 36.74336243 C46.27077849 42.9375914 46.24615584 49.13166168 46.21605712 55.32582074 C46.18253371 62.37772889 46.16603231 69.42964458 46.15097082 76.48161256 C46.11960675 90.98783524 46.06458644 105.49388609 46 120 C30.82 120 15.64 120 0 120 C0 80.4 0 40.8 0 0 Z " fill="#00738A" transform="translate(180,157)"/>
<path d="M0 0 C14.19 0 28.38 0 43 0 C43 35.97 43 71.94 43 109 C29.14 109 15.28 109 1 109 C0 108 0 108 -0.12304783 106.19027615 C-0.12212604 105.3947688 -0.12120424 104.59926146 -0.12025452 103.77964783 C-0.12162918 102.86954453 -0.12300385 101.95944122 -0.12442017 101.02175903 C-0.12082489 100.01547455 -0.11722961 99.00919006 -0.11352539 97.97241211 C-0.11367142 96.91888046 -0.11381744 95.86534882 -0.1139679 94.77989197 C-0.11326826 91.279022 -0.10547348 87.77820448 -0.09765625 84.27734375 C-0.09579225 81.85738657 -0.09436826 79.43742901 -0.09336853 77.01747131 C-0.08954192 70.63384976 -0.07971041 64.25025079 -0.06866455 57.86663818 C-0.05845351 51.35836086 -0.05387157 44.8500799 -0.04882812 38.34179688 C-0.03808827 25.56118637 -0.02049032 12.78059859 0 0 Z " fill="#005D7D" transform="translate(377,37)"/>
<path d="M0 0 C14.19 0 28.38 0 43 0 C43 35.31 43 70.62 43 107 C30.17641063 113.41179469 14.33720878 108 0 108 C0 72.36 0 36.72 0 0 Z " fill="#005D7D" transform="translate(180,37)"/>
<path d="M0 0 C5.95703125 0.29296875 5.95703125 0.29296875 8 1 C11.83963779 5.72505316 11.23316901 9.77454916 10.66015625 15.55078125 C9.65393629 20.80813169 7.54201293 25.31931936 5 30 C6.216875 30.0825 7.43375 30.165 8.6875 30.25 C12.79427587 30.77520047 15.17875804 31.82610279 18 35 C18.625 37.4375 18.625 37.4375 18 40 C15.94103344 42.83107902 14.35684273 44.65640027 10.88671875 45.53515625 C8.93383877 45.78143419 6.96580817 45.90004365 5 46 C5.33 45.29875 5.66 44.5975 6 43.875 C7.09044562 40.73996884 7.15322643 38.29436818 7 35 C6.67 36.65 6.34 38.3 6 40 C5.34 40 4.68 40 4 40 C4.495 45.445 4.495 45.445 5 51 C7.64 51.33 10.28 51.66 13 52 C13 51.34 13 50.68 13 50 C13.78375 49.9175 14.5675 49.835 15.375 49.75 C18.09451513 49.27375675 18.09451513 49.27375675 19.25 47.1875 C19.9531955 45.13651313 20.54576256 43.11977471 21 41 C21.99 41 22.98 41 24 41 C23.67 42.65 23.34 44.3 23 46 C22.34 46 21.68 46 21 46 C20.71125 46.598125 20.4225 47.19625 20.125 47.8125 C18.01547635 51.91435154 16.32373857 53.69769409 12.01953125 55.4375 C8.62870376 56.38194711 5.50077587 56.18425136 2 56 C2 55.34 2 54.68 2 54 C0.68 54 -0.64 54 -2 54 C-2 53.34 -2 52.68 -2 52 C-2.66 52 -3.32 52 -4 52 C-4 51.34 -4 50.68 -4 50 C-5.98 49.505 -5.98 49.505 -8 49 C-8 48.34 -8 47.68 -8 47 C-9.98 47.66 -11.96 48.32 -14 49 C-14 49.66 -14 50.32 -14 51 C-16.38821127 53.08005497 -18.1367975 54.01154786 -21.3359375 53.96875 C-23.57501398 53.71447002 -25.78277968 53.40093527 -28 53 C-29.61064629 49.34920174 -30.44894091 45.9492568 -31 42 C-33.7511312 44.53950573 -35.76083651 47.14775279 -37.8125 50.25 C-40.15622699 53.42441504 -40.58302647 53.90654042 -44.625 54.8125 C-48 54 -48 54 -50.4375 52 C-53.86202006 45.42492149 -51.56675939 37.89162406 -50 31 C-49.80921875 30.12988281 -49.6184375 29.25976562 -49.421875 28.36328125 C-48.95533903 26.2405426 -48.47871537 24.12002519 -48 22 C-47.34 22 -46.68 22 -46 22 C-46.020625 20.906875 -46.04125 19.81375 -46.0625 18.6875 C-46 15 -46 15 -45 12 C-58.00934151 18.67554251 -58.00934151 18.67554251 -68 29 C-68.873938 32.22433127 -68.873938 32.22433127 -69 35 C-73.54060325 34.52204176 -73.54060325 34.52204176 -75.375 32.4375 C-76.29288118 28.85776339 -76.27840212 25.44975848 -75 22 C-71.0433982 17.04639736 -66.20999342 14.8965906 -60.5625 12.375 C-58.89693334 11.61242037 -57.23156421 10.84940914 -55.56640625 10.0859375 C-54.38691406 9.55311157 -54.38691406 9.55311157 -53.18359375 9.00952148 C-51.2979872 8.13776577 -49.44412457 7.19794711 -47.59765625 6.24609375 C-44.47188034 4.74666139 -42.42964118 4.62721292 -39 5 C-36.625 6 -36.625 6 -35 7 C-35 7.66 -35 8.32 -35 9 C-34.34 9 -33.68 9 -33 9 C-33.44808965 14.0186041 -34.28879397 18.0371342 -36.17578125 22.75 C-39.26395812 31.18028376 -40.66711584 40.15592154 -42 49 C-41.34 49 -40.68 49 -40 49 C-38.92474806 46.34771188 -37.90543849 43.71631546 -37 41 C-36.34 41 -35.68 41 -35 41 C-34.814375 40.195625 -34.814375 40.195625 -34.625 39.375 C-33.87793984 36.5361714 -32.94696636 33.77776798 -32 31 C-31.34 31 -30.68 31 -30 31 C-29.896875 30.113125 -29.79375 29.22625 -29.6875 28.3125 C-29 25 -29 25 -27.5625 22.6875 C-25.69362703 19.4730385 -25.11405792 16.51658758 -24.4296875 12.890625 C-24 11 -24 11 -23 10 C-19.70020628 9.54169532 -18.15398283 9.91787583 -15.1875 11.5 C-12.66103769 14.38738549 -12.45682989 16.10576764 -12.69140625 19.89453125 C-13.15595732 23.06406325 -13.98703508 25.96110523 -15 29 C-15.66 29 -16.32 29 -17 29 C-16.938125 30.051875 -16.87625 31.10375 -16.8125 32.1875 C-16.77947637 38.29687123 -18.49396468 44.11929067 -20 50 C-19.01 50 -18.02 50 -17 50 C-16.71125 49.4225 -16.4225 48.845 -16.125 48.25 C-15.08333333 46.16666667 -14.04166667 44.08333333 -13 42 C-12.34 42 -11.68 42 -11 42 C-10.67 40.35 -10.34 38.7 -10 37 C-9.34 37 -8.68 37 -8 37 C-7.814375 36.0409375 -7.814375 36.0409375 -7.625 35.0625 C-7.41875 34.381875 -7.2125 33.70125 -7 33 C-6.34 32.67 -5.68 32.34 -5 32 C-4.05767314 29.5663895 -3.22065625 27.17175529 -2.4375 24.6875 C-2.21642578 24.01009766 -1.99535156 23.33269531 -1.76757812 22.63476562 C-0.12542524 17.55947135 1.14109944 13.27446488 1.125 7.9375 C1.12757813 7.08027344 1.13015625 6.22304687 1.1328125 5.33984375 C1.09365135 2.84435799 1.09365135 2.84435799 0 0 Z " fill="#F6F9FA" transform="translate(322,127)"/>
<path d="M0 0 C1.56471542 -0.01268921 1.56471542 -0.01268921 3.16104126 -0.02563477 C4.87703018 -0.01652573 4.87703018 -0.01652573 6.62768555 -0.00723267 C7.8327475 -0.01248962 9.03780945 -0.01774658 10.27938843 -0.02316284 C13.58528975 -0.03411519 16.89062888 -0.03153298 20.19649887 -0.02202559 C23.6544445 -0.01443546 27.11236594 -0.02147279 30.5703125 -0.02618408 C36.37756672 -0.03164354 42.18470651 -0.02444511 47.99194336 -0.01016235 C54.70794373 0.00616463 61.4236709 0.00087625 68.13966465 -0.01564157 C73.9036547 -0.02925109 79.66756245 -0.03117875 85.43156338 -0.02332556 C88.87512631 -0.01864606 92.31856078 -0.01803166 95.76211548 -0.02793503 C99.60022622 -0.03820188 103.43803041 -0.02397595 107.27612305 -0.00723267 C108.42011566 -0.01330536 109.56410828 -0.01937805 110.74276733 -0.02563477 C111.78591095 -0.01717529 112.82905457 -0.00871582 113.90380859 0 C115.2654438 0.00169662 115.2654438 0.00169662 116.65458679 0.00342751 C118.9519043 0.38095093 118.9519043 0.38095093 120.74444199 1.62526608 C122.27779928 3.85481159 122.3243651 5.15685973 122.31939697 7.8528595 C122.32496613 8.76834564 122.33053528 9.68383179 122.33627319 10.62705994 C122.32245102 12.13030067 122.32245102 12.13030067 122.30834961 13.66390991 C122.31039398 14.72106201 122.31243835 15.77821411 122.31454468 16.86740112 C122.31755895 20.37079014 122.29905435 23.87371139 122.2800293 27.37704468 C122.27697243 29.80698022 122.27509576 32.23691751 122.27435303 34.66685486 C122.26974573 39.76376025 122.25530428 44.86050803 122.2331543 49.95736694 C122.20488671 56.49571972 122.19394465 63.03394815 122.1894722 69.57235622 C122.18531752 74.5917231 122.17549936 79.61106476 122.16359711 84.63041878 C122.15789336 87.04140076 122.153135 89.45238517 122.14933014 91.8633709 C122.14246498 95.23182313 122.12883069 98.60017668 122.11303711 101.96859741 C122.11191925 102.96873367 122.11080139 103.96886993 122.10964966 104.99931335 C122.10393951 105.91761932 122.09822937 106.83592529 122.09234619 107.78205872 C122.08937153 108.57827857 122.08639687 109.37449842 122.08333206 110.19484615 C121.95037431 112.40639997 121.67888165 114.28684469 120.9519043 116.38095093 C118.4720293 117.62088843 116.82991794 117.50677559 114.05529785 117.50793457 C112.50309792 117.51216431 112.50309792 117.51216431 110.91954041 117.51647949 C109.77973221 117.51445526 108.63992401 117.51243103 107.46557617 117.51034546 C106.26880753 117.51209778 105.07203888 117.5138501 103.83900452 117.51565552 C100.55188135 117.51930985 97.26482088 117.51844305 93.97770119 117.51527643 C90.54197732 117.51274938 87.10625619 117.51509134 83.67053223 117.5166626 C77.90022296 117.51848328 72.12992647 117.51608063 66.35961914 117.51132202 C59.68289716 117.50587959 53.00620571 117.50764232 46.32948446 117.51314843 C40.60291835 117.51768243 34.87636143 117.51832869 29.1497941 117.51570976 C25.72696844 117.51414857 22.30415714 117.5139489 18.8813324 117.51724625 C15.06695361 117.52066394 11.25260918 117.5159305 7.43823242 117.51034546 C5.72852013 117.51338181 5.72852013 117.51338181 3.98426819 117.51647949 C2.94946823 117.51365967 1.91466827 117.51083984 0.84851074 117.50793457 C-0.05409233 117.50755754 -0.9566954 117.50718052 -1.88665009 117.50679207 C-4.0480957 117.38095093 -4.0480957 117.38095093 -6.0480957 116.38095093 C-6.0480957 115.39095093 -6.0480957 114.40095093 -6.0480957 113.38095093 C-6.7080957 113.38095093 -7.3680957 113.38095093 -8.0480957 113.38095093 C-8.11814556 99.09058066 -8.17086471 84.80023698 -8.20353222 70.50973034 C-8.21920855 63.87453965 -8.24048289 57.23946404 -8.27441406 50.6043396 C-8.30693708 44.20474931 -8.32493388 37.80526994 -8.33272743 31.40560341 C-8.33828363 28.96028204 -8.34913304 26.51496694 -8.36528587 24.06969261 C-8.38696599 20.65272125 -8.39006653 17.23621208 -8.38867188 13.81918335 C-8.3994577 12.80138794 -8.41024353 11.78359253 -8.4213562 10.73495483 C-8.41723221 9.8052739 -8.41310822 8.87559296 -8.40885925 7.91773987 C-8.41162463 7.10932742 -8.41439001 6.30091497 -8.41723919 5.46800518 C-8.0480957 3.38095093 -8.0480957 3.38095093 -6.84105396 1.62121105 C-4.44830386 -0.03394881 -2.90055689 0.00361413 0 0 Z M-5.0480957 3.38095093 C-5.14571535 4.78048716 -5.17441225 6.18490835 -5.17507935 7.58784485 C-5.17789917 8.49505783 -5.18071899 9.40227081 -5.18362427 10.3369751 C-5.18160004 11.34011749 -5.17957581 12.34325989 -5.17749023 13.37680054 C-5.17924255 14.4271196 -5.18099487 15.47743866 -5.18280029 16.55958557 C-5.18722153 20.05083848 -5.18427965 23.54204121 -5.1809082 27.03329468 C-5.18158121 29.448461 -5.18255122 31.86362725 -5.18380737 34.27879333 C-5.18528476 39.34890384 -5.18312868 44.41899676 -5.1784668 49.48910522 C-5.17277253 56.00079976 -5.17604635 62.51245306 -5.18203926 69.02414608 C-5.18564637 74.01425998 -5.18450554 79.00436404 -5.18191147 83.99447823 C-5.18124246 86.395951 -5.18206972 88.79742466 -5.18439102 91.19889641 C-5.18691966 94.55119072 -5.18307377 97.90341753 -5.17749023 101.25570679 C-5.17951447 102.25682495 -5.1815387 103.25794312 -5.18362427 104.28939819 C-5.18080444 105.199431 -5.17798462 106.10946381 -5.17507935 107.04707336 C-5.17470232 107.8403601 -5.17432529 108.63364683 -5.17393684 109.45097256 C-5.16800489 111.4645241 -5.16800489 111.4645241 -4.0480957 113.38095093 C36.5419043 113.38095093 77.1319043 113.38095093 118.9519043 113.38095093 C120.12153958 111.04168036 120.07521019 109.68418445 120.07215881 107.07830811 C120.07353348 106.17524429 120.07490814 105.27218048 120.07632446 104.3417511 C120.07272919 103.34841263 120.06913391 102.35507416 120.06542969 101.33163452 C120.06557571 100.28771042 120.06572174 99.24378632 120.06587219 98.16822815 C120.06517352 94.7052607 120.0573832 91.24234652 120.04956055 87.77938843 C120.04769621 85.38328074 120.04627238 82.98717266 120.04527283 80.59106445 C120.04144891 74.27486118 120.03161967 67.95868079 120.02056885 61.64248657 C120.01035204 55.20114451 120.00577463 48.75979876 120.00073242 42.31845093 C119.98999731 29.67260781 119.97311375 17.02678059 119.9519043 4.38095093 C119.2919043 4.38095093 118.6319043 4.38095093 117.9519043 4.38095093 C117.9519043 3.72095093 117.9519043 3.06095093 117.9519043 2.38095093 C102.06235303 2.35762169 86.17280636 2.33997163 70.28324223 2.32913876 C62.90594473 2.32397585 55.52865786 2.31693326 48.15136719 2.30551147 C41.7235825 2.29556447 35.2958055 2.28909746 28.86801332 2.28686243 C25.46251152 2.28555535 22.05703172 2.28246968 18.65153694 2.27522087 C14.85589389 2.26801487 11.06029718 2.2669598 7.26464844 2.26742554 C6.12745361 2.26383026 4.99025879 2.26023499 3.81860352 2.25653076 C2.27675133 2.25859276 2.27675133 2.25859276 0.70375061 2.26069641 C-0.19499755 2.25977462 -1.09374571 2.25885283 -2.01972866 2.2579031 C-4.04388066 2.15573842 -4.04388066 2.15573842 -5.0480957 3.38095093 Z " fill="#2F94B0" transform="translate(242.048095703125,97.61904907226563)"/>
<path d="M0 0 C2.375 1 2.375 1 4 2 C4 2.66 4 3.32 4 4 C4.66 4 5.32 4 6 4 C5.43270056 10.35375374 4.71062571 17.28937429 0 22 C-1.96036639 28.18125096 -3.26822584 34.56038737 -4 41 C-4.66 41 -5.32 41 -6 41 C-6 42.98 -6 44.96 -6 47 C-8.375 47.1875 -8.375 47.1875 -11 47 C-14.33470765 41.99793853 -13.23498123 36.71811867 -12.125 31.0625 C-11.75832409 29.37317172 -11.38322047 27.6856522 -11 26 C-10.80921875 25.12988281 -10.6184375 24.25976562 -10.421875 23.36328125 C-9.95533903 21.2405426 -9.47871537 19.12002519 -9 17 C-8.34 17 -7.68 17 -7 17 C-7.020625 15.906875 -7.04125 14.81375 -7.0625 13.6875 C-7 10 -7 10 -6 7 C-19.00934151 13.67554251 -19.00934151 13.67554251 -29 24 C-29.873938 27.22433127 -29.873938 27.22433127 -30 30 C-34.54060325 29.52204176 -34.54060325 29.52204176 -36.375 27.4375 C-37.29288118 23.85776339 -37.27840212 20.44975848 -36 17 C-32.0433982 12.04639736 -27.20999342 9.8965906 -21.5625 7.375 C-19.89693334 6.61242037 -18.23156421 5.84940914 -16.56640625 5.0859375 C-15.38691406 4.55311157 -15.38691406 4.55311157 -14.18359375 4.00952148 C-12.2979872 3.13776577 -10.44412457 2.19794711 -8.59765625 1.24609375 C-5.47188034 -0.25333861 -3.42964118 -0.37278708 0 0 Z " fill="#ECF3F5" transform="translate(283,132)"/>
<path d="M0 0 C3.79478618 0.4312257 5.23848808 1.44220067 7.75 4.3125 C8.38193396 9.81935306 7.48826544 14.09770368 5.75 19.3125 C5.09 19.3125 4.43 19.3125 3.75 19.3125 C3.811875 20.364375 3.87375 21.41625 3.9375 22.5 C3.97052363 28.60937123 2.25603532 34.43179067 0.75 40.3125 C1.74 40.3125 2.73 40.3125 3.75 40.3125 C4.03875 39.735 4.3275 39.1575 4.625 38.5625 C5.66666667 36.47916667 6.70833333 34.39583333 7.75 32.3125 C8.41 32.3125 9.07 32.3125 9.75 32.3125 C10.08 30.6625 10.41 29.0125 10.75 27.3125 C11.41 27.3125 12.07 27.3125 12.75 27.3125 C13.08 25.9925 13.41 24.6725 13.75 23.3125 C14.245 24.3025 14.245 24.3025 14.75 25.3125 C14.255 26.7975 14.255 26.7975 13.75 28.3125 C13.09 28.3125 12.43 28.3125 11.75 28.3125 C11.42 30.2925 11.09 32.2725 10.75 34.3125 C11.74 34.3125 12.73 34.3125 13.75 34.3125 C13.75 35.9625 13.75 37.6125 13.75 39.3125 C13.42 38.6525 13.09 37.9925 12.75 37.3125 C10.77 37.9725 8.79 38.6325 6.75 39.3125 C6.75 39.9725 6.75 40.6325 6.75 41.3125 C4.36178873 43.39255497 2.6132025 44.32404786 -0.5859375 44.28125 C-2.82501398 44.02697002 -5.03277968 43.71343527 -7.25 43.3125 C-8.86064629 39.66170174 -9.69894091 36.2617568 -10.25 32.3125 C-13.0011312 34.85200573 -15.01083651 37.46025279 -17.0625 40.5625 C-18.58984375 42.671875 -18.58984375 42.671875 -20.25 44.3125 C-24.125 44.8125 -24.125 44.8125 -27.25 44.3125 C-27.58 43.6525 -27.91 42.9925 -28.25 42.3125 C-26.93 42.3125 -25.61 42.3125 -24.25 42.3125 C-24.25 40.3325 -24.25 38.3525 -24.25 36.3125 C-23.59 36.3125 -22.93 36.3125 -22.25 36.3125 C-22.3428125 34.95125 -22.3428125 34.95125 -22.4375 33.5625 C-22.44887675 28.03339797 -21.03994405 22.51811709 -19.25 17.3125 C-18.59 16.9825 -17.93 16.6525 -17.25 16.3125 C-17.83569388 22.46228573 -18.83257427 28.305868 -20.25 34.3125 C-20.58986667 35.97784667 -20.92702486 37.64379513 -21.25 39.3125 C-20.59 39.3125 -19.93 39.3125 -19.25 39.3125 C-18.17474806 36.66021188 -17.15543849 34.02881546 -16.25 31.3125 C-15.59 31.3125 -14.93 31.3125 -14.25 31.3125 C-14.12625 30.77625 -14.0025 30.24 -13.875 29.6875 C-13.12793984 26.8486714 -12.19696636 24.09026798 -11.25 21.3125 C-10.59 21.3125 -9.93 21.3125 -9.25 21.3125 C-9.146875 20.425625 -9.04375 19.53875 -8.9375 18.625 C-8.25 15.3125 -8.25 15.3125 -6.8125 13 C-4.94362703 9.7855385 -4.36405792 6.82908758 -3.6796875 3.203125 C-3.06259871 0.4879343 -2.79351133 0.38798768 0 0 Z " fill="#F5F9FA" transform="translate(301.25,136.6875)"/>
<path d="M0 0 C16.115719 -0.11673281 32.23130115 -0.20493853 48.34734058 -0.25906086 C55.8300927 -0.28485731 63.31258235 -0.3200348 70.79516602 -0.37719727 C77.31599511 -0.42698881 83.83663416 -0.45928055 90.35764807 -0.47044247 C93.81150979 -0.47696866 97.26482775 -0.49233532 100.7185154 -0.52865028 C104.57131874 -0.56883435 108.42358714 -0.56995216 112.27661133 -0.56762695 C113.99966995 -0.59459152 113.99966995 -0.59459152 115.75753784 -0.62210083 C116.80501694 -0.61522751 117.85249603 -0.60835419 118.93171692 -0.60127258 C119.84337018 -0.60588155 120.75502344 -0.61049051 121.69430256 -0.61523914 C124 0 124 0 125.79421997 2.38136292 C127.10474954 5.22748846 127.36423685 7.04214798 127.34057617 10.1574707 C127.34034958 11.15813065 127.34012299 12.15879059 127.33988953 13.18977356 C127.32440567 14.2576561 127.30892181 15.32553864 127.29296875 16.42578125 C127.28872391 17.52850876 127.28447906 18.63123627 127.28010559 19.76737976 C127.26333905 23.28267023 127.22568951 26.79738336 127.1875 30.3125 C127.17245059 32.69855942 127.15876264 35.08462784 127.14648438 37.47070312 C127.11344212 43.31399842 127.06326236 49.15695796 127 55 C126.34 55 125.68 55 125 55 C124.67 38.17 124.34 21.34 124 4 C83.74 4 43.48 4 2 4 C1.67 20.83 1.34 37.66 1 55 C-0.32 55 -1.64 55 -3 55 C-3 38.17 -3 21.34 -3 4 C-2.34 4 -1.68 4 -1 4 C-0.67 2.68 -0.34 1.36 0 0 Z " fill="#1E85A9" transform="translate(237,222)"/>
<path d="M0 0 C0.99 0 1.98 0 3 0 C3.33 15.84 3.66 31.68 4 48 C19.88955445 48.02254723 35.77909629 48.04097929 51.66866207 48.05181217 C59.04595956 48.05697508 66.42324643 48.06401767 73.80053711 48.07543945 C80.2283218 48.08538646 86.6560988 48.09185347 93.08389097 48.09408849 C96.48939278 48.09539557 99.89487258 48.09848125 103.30036736 48.10573006 C107.09601041 48.11293606 110.89160712 48.11399113 114.68725586 48.11352539 C115.82445068 48.11712067 116.96164551 48.12071594 118.13330078 48.12442017 C119.16120224 48.1230455 120.1891037 48.12167084 121.24815369 48.12025452 C122.14690185 48.12117631 123.04565001 48.1220981 123.97163296 48.12304783 C125.99578496 48.22521251 125.99578496 48.22521251 127 47 C127.12232644 45.52749355 127.1777456 44.04934289 127.20532227 42.57202148 C127.22526749 41.63112167 127.24521271 40.69022186 127.26576233 39.72080994 C127.28247482 38.69790359 127.29918732 37.67499725 127.31640625 36.62109375 C127.3475779 35.058395 127.3475779 35.058395 127.37937927 33.46412659 C127.44499057 30.12198753 127.50381331 26.77976715 127.5625 23.4375 C127.60567422 21.17772582 127.64928814 18.91795999 127.69335938 16.65820312 C127.80068367 11.10555579 127.90242812 5.55282679 128 0 C128.66 0 129.32 0 130 0 C130.10138675 6.76256512 130.17145971 13.52493439 130.21972656 20.28808594 C130.23984688 22.58894169 130.26714634 24.88974629 130.30175781 27.19042969 C130.35025612 30.49687317 130.37296478 33.80264085 130.390625 37.109375 C130.41127014 38.13867126 130.43191528 39.16796753 130.45318604 40.22845459 C130.45348816 41.18914856 130.45379028 42.14984253 130.45410156 43.13964844 C130.46298401 43.98348083 130.47186646 44.82731323 130.48101807 45.69671631 C129.81880574 48.86762184 128.47802655 49.95855918 126 52 C123.60248947 52.49219131 123.60248947 52.49219131 120.88739014 52.48101807 C119.85536469 52.48651672 118.82333923 52.49201538 117.76004028 52.49768066 C116.63363129 52.48329956 115.50722229 52.46891846 114.34667969 52.45410156 C112.56090012 52.45497772 112.56090012 52.45497772 110.73904419 52.45587158 C107.47877948 52.45356326 104.21920263 52.43351169 100.95907497 52.40557575 C97.55048554 52.38056055 94.1418824 52.37822003 90.73321533 52.37347412 C84.28042907 52.36104461 77.82791408 52.32822363 71.37524724 52.28807616 C64.02829514 52.24335745 56.68133005 52.22137121 49.33427572 52.20129442 C34.22269937 52.15949076 19.11137682 52.08913947 4 52 C3.34 50.68 2.68 49.36 2 48 C1.34 48 0.68 48 0 48 C0 32.16 0 16.32 0 0 Z " fill="#2A7FAF" transform="translate(234,37)"/>
<path d="M0 0 C1.29111191 0.0001133 1.29111191 0.0001133 2.60830688 0.00022888 C3.53855682 0.00539017 4.46880676 0.01055145 5.42724609 0.01586914 C6.37884613 0.01728409 7.33044617 0.01869904 8.31088257 0.02015686 C11.35751456 0.02576527 14.40407372 0.0383192 17.45068359 0.05102539 C19.51318253 0.05603931 21.57568262 0.0606024 23.63818359 0.06469727 C28.70071176 0.07573744 33.76318532 0.09300772 38.82568359 0.11352539 C38.82568359 0.77352539 38.82568359 1.43352539 38.82568359 2.11352539 C18.03568359 2.60852539 18.03568359 2.60852539 -3.17431641 3.11352539 C-3.50431641 41.72352539 -3.83431641 80.33352539 -4.17431641 120.11352539 C-5.49431641 120.11352539 -6.81431641 120.11352539 -8.17431641 120.11352539 C-8.17431641 81.50352539 -8.17431641 42.89352539 -8.17431641 3.11352539 C-7.51431641 3.11352539 -6.85431641 3.11352539 -6.17431641 3.11352539 C-6.17431641 2.45352539 -6.17431641 1.79352539 -6.17431641 1.11352539 C-3.86611133 -0.04057715 -2.56647364 -0.00750431 0 0 Z " fill="#2084AB" transform="translate(381.17431640625,156.886474609375)"/>
<path d="M0 0 C41.58 0 83.16 0 126 0 C126.495 1.98 126.495 1.98 127 4 C124.520125 5.2399375 122.87801364 5.12582466 120.10339355 5.12698364 C118.55119362 5.13121338 118.55119362 5.13121338 116.96763611 5.13552856 C115.82782791 5.13350433 114.68801971 5.1314801 113.51367188 5.12939453 C112.31690323 5.13114685 111.12013458 5.13289917 109.88710022 5.13470459 C106.59997705 5.13835892 103.31291659 5.13749212 100.02579689 5.1343255 C96.59007303 5.13179845 93.15435189 5.13414041 89.71862793 5.13571167 C83.94831866 5.13753235 78.17802217 5.13512971 72.40771484 5.13037109 C65.73099286 5.12492867 59.05430141 5.12669139 52.37758017 5.1321975 C46.65101405 5.13673151 40.92445714 5.13737776 35.1978898 5.13475883 C31.77506414 5.13319765 28.35225285 5.13299797 24.9294281 5.13629532 C21.11504931 5.13971301 17.30070489 5.13497958 13.48632812 5.12939453 C11.77661583 5.13243088 11.77661583 5.13243088 10.03236389 5.13552856 C8.99756393 5.13270874 7.96276398 5.12988892 6.89660645 5.12698364 C5.99400337 5.12660662 5.0914003 5.12622959 4.16144562 5.12584114 C2 5 2 5 0 4 C0 2.68 0 1.36 0 0 Z " fill="#2F9CB6" transform="translate(236,210)"/>
<path d="M0 0 C6.06890175 -0.07408977 12.13754097 -0.12857359 18.20678711 -0.16479492 C20.27193791 -0.17989271 22.3370566 -0.20037274 24.40209961 -0.22631836 C27.36840739 -0.26265795 30.33429171 -0.2797163 33.30078125 -0.29296875 C34.2258699 -0.30845261 35.15095856 -0.32393646 36.1040802 -0.33988953 C36.96474594 -0.34011612 37.82541168 -0.34034271 38.7121582 -0.34057617 C39.46938675 -0.34723801 40.2266153 -0.35389984 41.00679016 -0.36076355 C43.62008604 0.11223326 44.36809229 0.92492517 46 3 C46.36914349 5.19637585 46.36914349 5.19637585 46.36076355 7.80253601 C46.36488754 8.79111603 46.36901154 9.77969604 46.3732605 10.79823303 C46.36247467 11.88148361 46.35168884 12.96473419 46.34057617 14.08081055 C46.34123329 15.7932193 46.34123329 15.7932193 46.34190369 17.54022217 C46.33980971 21.32256025 46.31644927 25.10445788 46.29296875 28.88671875 C46.28737498 31.50559751 46.28310385 34.12447941 46.28010559 36.74336243 C46.27077849 42.9375914 46.24615584 49.13166168 46.21605712 55.32582074 C46.18253371 62.37772889 46.16603231 69.42964458 46.15097082 76.48161256 C46.11960677 90.9878236 46.06683341 105.49390958 46 120 C45.01 120 44.02 120 43 120 C43 81.39 43 42.78 43 3 C28.81 2.67 14.62 2.34 0 2 C0 1.34 0 0.68 0 0 Z " fill="#2988B3" transform="translate(180,157)"/>
<path d="M0 0 C0.99 0 1.98 0 3 0 C3.33 35.64 3.66 71.28 4 108 C17.86 108.33 31.72 108.66 46 109 C46 109.66 46 110.32 46 111 C31.48 111 16.96 111 2 111 C0.16218151 107.32436302 -0.24946966 106.2740755 -0.24050903 102.45684814 C-0.24325836 101.551035 -0.24600769 100.64522186 -0.24884033 99.71195984 C-0.24164978 98.72581192 -0.23445923 97.739664 -0.22705078 96.72363281 C-0.22734283 95.67941666 -0.22763489 94.6352005 -0.22793579 93.55934143 C-0.22654224 90.10718482 -0.21097962 86.65524392 -0.1953125 83.203125 C-0.19158247 80.80987669 -0.18873545 78.41662685 -0.18673706 76.02337646 C-0.17909988 69.72361029 -0.15945055 63.42393629 -0.1373291 57.12420654 C-0.11687258 50.6960983 -0.10773575 44.26797516 -0.09765625 37.83984375 C-0.07620483 25.22652317 -0.04245207 12.61326649 0 0 Z " fill="#2479A7" transform="translate(374,37)"/>
<path d="M0 0 C15.98537418 -0.0700405 31.97069868 -0.12296376 47.95618916 -0.15543652 C55.37831561 -0.17091406 62.8003468 -0.19202041 70.22241211 -0.22631836 C76.69050238 -0.2561937 83.15852368 -0.27556855 89.62668103 -0.28226548 C93.05244464 -0.28618095 96.47801088 -0.29540093 99.90371132 -0.31719017 C103.72531495 -0.34130103 107.54672442 -0.34197119 111.3684082 -0.34057617 C112.50776321 -0.351362 113.64711823 -0.36214783 114.82099915 -0.3732605 C116.37959656 -0.36707451 116.37959656 -0.36707451 117.96968079 -0.36076355 C118.8739597 -0.36352893 119.77823862 -0.36629431 120.70991993 -0.36914349 C123 0 123 0 124.79100609 1.2422123 C126.32691907 3.47531614 126.37478915 4.78482847 126.3742218 7.48536682 C126.38123611 8.40374329 126.38825043 9.32211975 126.39547729 10.26832581 C126.38783356 11.27362839 126.38018982 12.27893097 126.37231445 13.31469727 C126.37596512 14.37506195 126.37961578 15.43542664 126.38337708 16.52792358 C126.39149831 20.04091289 126.37785993 23.55344325 126.36328125 27.06640625 C126.36276287 29.50113423 126.3632797 31.93586264 126.36479187 34.37059021 C126.36470208 39.47588337 126.35425756 44.58101884 126.33618164 49.6862793 C126.31348236 56.24280949 126.31295184 62.79910938 126.31969929 69.35566807 C126.32303436 74.38354046 126.31641808 79.41135996 126.30657005 84.43922234 C126.3027107 86.85743877 126.30157286 89.27566108 126.3031559 91.69388008 C126.30352514 95.06760068 126.29094615 98.44102152 126.2746582 101.81469727 C126.27713562 102.82202408 126.27961304 103.82935089 126.28216553 104.86720276 C126.27508072 105.7827594 126.26799591 106.69831604 126.26069641 107.64161682 C126.25761711 108.83871198 126.25761711 108.83871198 126.25447559 110.05999088 C126 112 126 112 124 114 C123.05512431 111.16537294 122.88680938 109.50573326 122.91770935 106.57710266 C122.92474884 105.67266418 122.93178833 104.76822571 122.93904114 103.83638 C122.95198715 102.84663681 122.96493317 101.85689362 122.97827148 100.8371582 C122.98787903 99.79308807 122.99748657 98.74901794 123.00738525 97.67330933 C123.04041635 94.21573225 123.0807332 90.75827991 123.12109375 87.30078125 C123.14539084 84.906107 123.1692346 82.51142811 123.19264221 80.116745 C123.255524 73.80873334 123.32457913 67.50080365 123.39489746 61.19287109 C123.46554389 54.75817604 123.53038294 48.32342281 123.59570312 41.88867188 C123.72476827 29.25905094 123.86015469 16.62950593 124 4 C123.34 4 122.68 4 122 4 C122 3.01 122 2.02 122 1 C81.74 1 41.48 1 0 1 C0 0.67 0 0.34 0 0 Z " fill="#52B7D4" transform="translate(238,98)"/>
<path d="M0 0 C0.66 0 1.32 0 2 0 C2.07002065 14.17725692 2.12275469 28.35448711 2.15543652 42.53188133 C2.17111899 49.11441402 2.1924044 55.69683087 2.22631836 62.27929688 C2.25881965 68.62701182 2.27683354 74.97461507 2.28463173 81.32240677 C2.29019186 83.74901718 2.30104877 86.1756212 2.31719017 88.6021843 C2.33884154 91.99062249 2.34197206 95.37859407 2.34057617 98.76708984 C2.351362 99.77912979 2.36214783 100.79116974 2.3732605 101.83387756 C2.36707451 103.21371574 2.36707451 103.21371574 2.36076355 104.62142944 C2.36352893 105.42338934 2.36629431 106.22534924 2.36914349 107.05161095 C2.18641746 108.01606353 2.18641746 108.01606353 2 109 C-1.09055955 111.06037303 -1.70926162 111.24799242 -5.19604492 111.22705078 C-6.03668991 111.22689972 -6.8773349 111.22674866 -7.74345398 111.22659302 C-8.64666885 111.21627045 -9.54988373 111.20594788 -10.48046875 111.1953125 C-11.87245232 111.19106766 -11.87245232 111.19106766 -13.29255676 111.18673706 C-16.25766879 111.17553836 -19.22247921 111.15043435 -22.1875 111.125 C-24.19726126 111.1149698 -26.20702726 111.10584402 -28.21679688 111.09765625 C-33.14464753 111.07560004 -38.07227262 111.04107229 -43 111 C-43 110.01 -43 109.02 -43 108 C-28.81 107.67 -14.62 107.34 0 107 C0 71.69 0 36.38 0 0 Z " fill="#2A81AF" transform="translate(223,37)"/>
<path d="M0 0 C0.33 0.66 0.66 1.32 1 2 C2.85625 2.185625 2.85625 2.185625 4.75 2.375 C8.87124886 2.80491445 11.17170089 3.8181635 14 7 C14.625 9.4375 14.625 9.4375 14 12 C11.94103344 14.83107902 10.35684273 16.65640027 6.88671875 17.53515625 C4.93383877 17.78143419 2.96580817 17.90004365 1 18 C1.33 17.29875 1.66 16.5975 2 15.875 C3.09044562 12.73996884 3.15322643 10.29436818 3 7 C2.67 8.65 2.34 10.3 2 12 C1.34 12 0.68 12 0 12 C0.33 15.63 0.66 19.26 1 23 C3.64 23.33 6.28 23.66 9 24 C9 23.34 9 22.68 9 22 C9.78375 21.9175 10.5675 21.835 11.375 21.75 C14.09451513 21.27375675 14.09451513 21.27375675 15.25 19.1875 C15.9531955 17.13651313 16.54576256 15.11977471 17 13 C17.99 13 18.98 13 20 13 C19.67 14.65 19.34 16.3 19 18 C18.34 18 17.68 18 17 18 C16.566875 18.8971875 16.566875 18.8971875 16.125 19.8125 C14.01547635 23.91435154 12.32373857 25.69769409 8.01953125 27.4375 C4.62870376 28.38194711 1.50077587 28.18425136 -2 28 C-2 27.34 -2 26.68 -2 26 C-3.32 25.67 -4.64 25.34 -6 25 C-4.35 24.67 -2.7 24.34 -1 24 C-1.03480469 22.96359375 -1.06960938 21.9271875 -1.10546875 20.859375 C-1.13361482 19.48959958 -1.16091411 18.11980659 -1.1875 16.75 C-1.21263672 16.06808594 -1.23777344 15.38617188 -1.26367188 14.68359375 C-1.31137459 11.40800711 -1.21085076 9.34651444 0.51171875 6.515625 C1.00285156 6.01546875 1.49398438 5.5153125 2 5 C1.01 4.67 0.02 4.34 -1 4 C-0.67 2.68 -0.34 1.36 0 0 Z " fill="#8BBCC7" transform="translate(326,155)"/>
<path d="M0 0 C2.26598448 3.39897673 2.23742654 4.56319173 2.1953125 8.54296875 C2.18886719 9.61611328 2.18242187 10.68925781 2.17578125 11.79492188 C2.15902344 12.91447266 2.14226562 14.03402344 2.125 15.1875 C2.11597656 16.31865234 2.10695313 17.44980469 2.09765625 18.61523438 C2.07406862 21.41036828 2.041153 24.20507845 2 27 C3.32 27.33 4.64 27.66 6 28 C5.34 28.33 4.68 28.66 4 29 C1 28 1 28 -0.125 25.8125 C-1.03631374 22.88327726 -1.57643017 20.03558382 -2 17 C-4.7511312 19.53950573 -6.76083651 22.14775279 -8.8125 25.25 C-10.33984375 27.359375 -10.33984375 27.359375 -12 29 C-15.875 29.5 -15.875 29.5 -19 29 C-19.33 28.34 -19.66 27.68 -20 27 C-18.68 27 -17.36 27 -16 27 C-16 25.02 -16 23.04 -16 21 C-15.34 21 -14.68 21 -14 21 C-14.0928125 19.63875 -14.0928125 19.63875 -14.1875 18.25 C-14.19887675 12.72089797 -12.78994405 7.20561709 -11 2 C-10.34 1.67 -9.68 1.34 -9 1 C-9.58569388 7.14978573 -10.58257427 12.993368 -12 19 C-12.33986667 20.66534667 -12.67702486 22.33129513 -13 24 C-12.34 24 -11.68 24 -11 24 C-9.92474806 21.34771188 -8.90543849 18.71631546 -8 16 C-7.34 16 -6.68 16 -6 16 C-5.87625 15.46375 -5.7525 14.9275 -5.625 14.375 C-4.87793984 11.5361714 -3.94696636 8.77776798 -3 6 C-2.34 6 -1.68 6 -1 6 C-0.67 4.02 -0.34 2.04 0 0 Z " fill="#8CBCC8" transform="translate(293,152)"/>
<path d="M0 0 C0.99 0 1.98 0 3 0 C3.14285332 6.7809967 3.28522015 13.5620035 3.42724609 20.34301758 C3.47563612 22.65063713 3.5241382 24.95825433 3.57275391 27.26586914 C3.64254631 30.57958376 3.71193791 33.89330656 3.78125 37.20703125 C3.81406067 38.75871758 3.81406067 38.75871758 3.84753418 40.3417511 C3.87756531 41.78290535 3.87756531 41.78290535 3.90820312 43.25317383 C3.92596802 44.09922684 3.94373291 44.94527985 3.96203613 45.81697083 C3.99207747 47.54443236 4 49.27227726 4 51 C3.34 50.67 2.68 50.34 2 50 C2 49.34 2 48.68 2 48 C1.34 48 0.68 48 0 48 C0 32.16 0 16.32 0 0 Z " fill="#2477A6" transform="translate(234,37)"/>
<path d="M0 0 C1.02086197 -0.00137466 2.04172394 -0.00274933 3.09352112 -0.00416565 C4.21776993 -0.00057037 5.34201874 0.0030249 6.50033569 0.00672913 C7.68080978 0.0065831 8.86128387 0.00643707 10.07752991 0.00628662 C13.31906079 0.00686492 16.56054879 0.01188868 19.80207109 0.01886058 C23.18801214 0.02510146 26.57395399 0.0256985 29.9598999 0.02688599 C36.37367314 0.02999713 42.78742938 0.03820761 49.20119512 0.04823548 C56.5021885 0.05940333 63.80318269 0.06490876 71.10418248 0.06993091 C86.12475215 0.08039039 101.14530589 0.09798565 116.16586304 0.12025452 C116.16586304 0.45025452 116.16586304 0.78025452 116.16586304 1.12025452 C115.25006989 1.12660243 115.25006989 1.12660243 114.31577587 1.13307858 C99.4685669 1.23632878 84.62140463 1.3449581 69.77427959 1.45959377 C62.59435848 1.51490036 55.41443239 1.56837815 48.23446655 1.61756897 C41.97729704 1.66044222 35.72016373 1.70672815 29.46305019 1.75713307 C26.14916648 1.78370871 22.83529062 1.80805221 19.52136803 1.82932854 C15.8242834 1.8533543 12.12729457 1.88341156 8.43026733 1.91493225 C7.32831528 1.92068771 6.22636322 1.92644318 5.09101868 1.93237305 C4.08561035 1.94216187 3.08020203 1.95195068 2.04432678 1.96203613 C1.16954524 1.96848868 0.2947637 1.97494123 -0.60652637 1.98158932 C-3.00726719 2.03536629 -3.00726719 2.03536629 -5.83413696 3.12025452 C-6.16413696 3.78025452 -6.49413696 4.44025452 -6.83413696 5.12025452 C-6.83413696 3.80025452 -6.83413696 2.48025452 -6.83413696 1.12025452 C-4.3677938 -0.11291707 -2.75862523 -0.00285572 0 0 Z " fill="#348FBE" transform="translate(242.83413696289063,222.87974548339844)"/>
<path d="M0 0 C0.99 0.66 1.98 1.32 3 2 C2.51322375 2.40534375 2.02644751 2.8106875 1.52492046 3.2283144 C-0.3732597 5.4336612 -0.38154394 6.47045566 -0.39872742 9.3469696 C-0.41126556 10.23457977 -0.42380371 11.12218994 -0.4367218 12.03669739 C-0.43528671 13.00773911 -0.43385162 13.97878082 -0.43237305 14.97924805 C-0.4425647 16.00381104 -0.45275635 17.02837402 -0.46325684 18.08398438 C-0.49349455 21.47661735 -0.50266937 24.86896848 -0.51171875 28.26171875 C-0.52855741 30.61156663 -0.54670654 32.96140547 -0.56611633 35.31123352 C-0.6137105 41.5007952 -0.64345902 47.6903202 -0.66955566 53.88000488 C-0.69931366 60.19416554 -0.7458603 66.50819963 -0.79101562 72.82226562 C-0.87715592 85.21477768 -0.94445351 97.60731571 -1 110 C-1.33 110 -1.66 110 -2 110 C-2.04629987 96.24841361 -2.08185728 82.4968457 -2.10362434 68.7451973 C-2.11407037 62.36005148 -2.12824461 55.97495892 -2.15087891 49.58984375 C-2.17257794 43.43015773 -2.18456245 37.27052299 -2.18975449 31.1108017 C-2.19345552 28.75842227 -2.20068252 26.4060457 -2.21146011 24.05368805 C-2.22593581 20.76391998 -2.22797957 17.474365 -2.22705078 14.18457031 C-2.23424133 13.20777313 -2.24143188 12.23097595 -2.24884033 11.22457886 C-2.24471634 9.87848038 -2.24471634 9.87848038 -2.24050903 8.50518799 C-2.24235262 7.72719471 -2.24419621 6.94920143 -2.24609566 6.1476326 C-1.96901583 3.72960672 -1.20301541 2.09884206 0 0 Z " fill="#44AAC7" transform="translate(237,98)"/>
<path d="M0 0 C0.33 0 0.66 0 1 0 C1.06058594 0.98742187 1.12117188 1.97484375 1.18359375 2.9921875 C1.26738281 4.27351562 1.35117187 5.55484375 1.4375 6.875 C1.51871094 8.15117187 1.59992188 9.42734375 1.68359375 10.7421875 C1.79206027 13.88300152 1.79206027 13.88300152 3 16 C16.86 16.33 30.72 16.66 45 17 C45 17.66 45 18.32 45 19 C30.48 19 15.96 19 1 19 C-0.806612 13.58016399 -1.1732982 11.49832238 -0.625 6.125 C-0.51414062 4.97257813 -0.40328125 3.82015625 -0.2890625 2.6328125 C-0.19367188 1.76398438 -0.09828125 0.89515625 0 0 Z " fill="#2F87B6" transform="translate(375,129)"/>
<path d="M0 0 C0.66 0 1.32 0 2 0 C4.17585822 3.26378733 4.24605016 4.15904315 4.22705078 7.93041992 C4.22689972 8.93123093 4.22674866 9.93204193 4.22659302 10.96318054 C4.21627045 12.04138565 4.20594788 13.11959076 4.1953125 14.23046875 C4.1924826 15.33602615 4.18965271 16.44158356 4.18673706 17.5806427 C4.17553002 21.11637128 4.15042427 24.6518478 4.125 28.1875 C4.11497089 30.58267864 4.10584492 32.97786124 4.09765625 35.37304688 C4.07558897 41.24878411 4.04210618 47.12437405 4 53 C3.34 53 2.68 53 2 53 C1.98969254 52.39500671 1.97938507 51.79001343 1.96876526 51.16668701 C1.86062416 44.87257242 1.74603221 38.57859877 1.62768555 32.28466797 C1.58436114 29.9354141 1.54268427 27.58612925 1.50268555 25.23681641 C1.44492285 21.8609076 1.38124532 18.48515439 1.31640625 15.109375 C1.29969376 14.05820496 1.28298126 13.00703491 1.26576233 11.92401123 C1.24581711 10.94329651 1.22587189 9.96258179 1.20532227 8.95214844 C1.18977798 8.09055115 1.1742337 7.22895386 1.15821838 6.34124756 C1.00732208 4.10834895 0.61837728 2.14579455 0 0 Z " fill="#308FBC" transform="translate(360,224)"/>
<path d="M0 0 C0.66 0 1.32 0 2 0 C2.07596188 6.780933 2.1285625 13.5617566 2.16479492 20.34301758 C2.17989676 22.65067648 2.20037969 24.95830661 2.22631836 27.26586914 C2.26263975 30.57966199 2.27971236 33.89307592 2.29296875 37.20703125 C2.30845261 38.2414888 2.32393646 39.27594635 2.33988953 40.3417511 C2.34022942 41.78290535 2.34022942 41.78290535 2.34057617 43.25317383 C2.34723801 44.09922684 2.35389984 44.94527985 2.36076355 45.81697083 C1.92364455 48.46203716 1.04559682 49.33536812 -1 51 C-1.66 50.34 -2.32 49.68 -3 49 C-2.34 48.34 -1.68 47.68 -1 47 C-0.66983494 44.90019956 -0.66983494 44.90019956 -0.68115234 42.45849609 C-0.66128265 41.51767181 -0.64141296 40.57684753 -0.62094116 39.60751343 C-0.60938995 38.58976837 -0.59783875 37.57202332 -0.5859375 36.5234375 C-0.56657135 35.48305328 -0.5472052 34.44266907 -0.5272522 33.37075806 C-0.46734273 30.0389228 -0.42102548 26.70705321 -0.375 23.375 C-0.3368307 21.11977637 -0.2977796 18.86456748 -0.2578125 16.609375 C-0.16163201 11.07304725 -0.07661804 5.53663115 0 0 Z " fill="#3081B3" transform="translate(362,37)"/>
<path d="M0 0 C1.29111191 0.0001133 1.29111191 0.0001133 2.60830688 0.00022888 C3.53855682 0.00539017 4.46880676 0.01055145 5.42724609 0.01586914 C6.37884613 0.01728409 7.33044617 0.01869904 8.31088257 0.02015686 C11.35751456 0.02576527 14.40407372 0.0383192 17.45068359 0.05102539 C19.51318253 0.05603931 21.57568262 0.0606024 23.63818359 0.06469727 C28.70071176 0.07573744 33.76318532 0.09300772 38.82568359 0.11352539 C38.82568359 0.77352539 38.82568359 1.43352539 38.82568359 2.11352539 C37.56908936 2.13858154 36.31249512 2.1636377 35.01782227 2.18945312 C30.36049002 2.28354834 25.70330618 2.38376399 21.04614258 2.48583984 C19.0295763 2.52918068 17.01297353 2.57085637 14.99633789 2.61083984 C12.09949742 2.66856286 9.20284053 2.73225161 6.30615234 2.79711914 C4.95133003 2.82218788 4.95133003 2.82218788 3.56913757 2.84776306 C2.72849258 2.86770828 1.8878476 2.8876535 1.02172852 2.90820312 C0.28226486 2.92374741 -0.45719879 2.93929169 -1.21907043 2.95530701 C-3.3894835 3.05264764 -3.3894835 3.05264764 -6.17431641 4.11352539 C-6.17431641 3.12352539 -6.17431641 2.13352539 -6.17431641 1.11352539 C-3.86611133 -0.04057715 -2.56647364 -0.00750431 0 0 Z " fill="#368DBF" transform="translate(381.17431640625,156.886474609375)"/>
<path d="M0 0 C5.75 0.75 5.75 0.75 8 3 C8.5 5.375 8.5 5.375 8 8 C4.8680624 10.57514869 3.10589421 12 -1 12 C-0.67 8.04 -0.34 4.08 0 0 Z " fill="#EAF3F5" transform="translate(332,159)"/>
<path d="M0 0 C0.99 0 1.98 0 3 0 C2.67 1.65 2.34 3.3 2 5 C1.34 5 0.68 5 0 5 C-0.28875 5.598125 -0.5775 6.19625 -0.875 6.8125 C-2.98452365 10.91435154 -4.67626143 12.69769409 -8.98046875 14.4375 C-12.37129624 15.38194711 -15.49922413 15.18425136 -19 15 C-19 14.34 -19 13.68 -19 13 C-15.36576791 10.67409146 -12.22911669 10.83734167 -8 11 C-8 10.34 -8 9.68 -8 9 C-7.21625 8.9175 -6.4325 8.835 -5.625 8.75 C-2.90548487 8.27375675 -2.90548487 8.27375675 -1.75 6.1875 C-1.0468045 4.13651313 -0.45423744 2.11977471 0 0 Z " fill="#4394A6" transform="translate(343,168)"/>
<path d="M0 0 C3.28423071 -0.37534065 4.86008015 -0.07462392 7.8125 1.5 C10.33896231 4.38738549 10.54317011 6.10576764 10.30859375 9.89453125 C9.84404268 13.06406325 9.01296492 15.96110523 8 19 C7.67 19 7.34 19 7 19 C7 14.05 7 9.1 7 4 C2.26352314 3.73647686 2.26352314 3.73647686 -1 5 C-0.67 3.35 -0.34 1.7 0 0 Z " fill="#84B6C3" transform="translate(299,137)"/>
<path d="M0 0 C0.66 0.33 1.32 0.66 2 1 C1.4225 1.49628906 0.845 1.99257812 0.25 2.50390625 C-4.62002467 6.81647551 -4.62002467 6.81647551 -6.625 12.8125 C-6.18466918 16.13925235 -6.18466918 16.13925235 -4 19 C-5.9375 18.5 -5.9375 18.5 -8 17 C-9.07534286 12.62693903 -9.58137236 10.30808781 -7.75 6.1875 C-3.81818182 1.27272727 -3.81818182 1.27272727 0 0 Z " fill="#B4D3DB" transform="translate(255,143)"/>
<path d="M0 0 C3.94727588 -0.17942163 6.5980513 -0.09350689 10 2 C10 2.66 10 3.32 10 4 C10.66 4 11.32 4 12 4 C11.47606294 9.86809507 10.23891142 14.54873741 8 20 C6.76895845 16.31599416 7.09232748 13.08525024 7.4375 9.25 C7.53933594 8.07953125 7.64117187 6.9090625 7.74609375 5.703125 C7.82988281 4.81109375 7.91367187 3.9190625 8 3 C5.36 2.34 2.72 1.68 0 1 C0 0.67 0 0.34 0 0 Z " fill="#7DB1BF" transform="translate(277,132)"/>
<path d="M0 0 C0.66 0 1.32 0 2 0 C2.33 5.94 2.66 11.88 3 18 C4.32 18.33 5.64 18.66 7 19 C6.34 19.33 5.68 19.66 5 20 C2 19 2 19 0.875 16.8125 C0 14 0 14 -0.5 10.75 C-0.7475 9.38875 -0.7475 9.38875 -1 8 C-1.66 7.67 -2.32 7.34 -3 7 C-2.01 4.69 -1.02 2.38 0 0 Z " fill="#589FAF" transform="translate(292,161)"/>
<path d="M0 0 C0.33 0.66 0.66 1.32 1 2 C0.67 2.99 0.34 3.98 0 5 C-0.66 5 -1.32 5 -2 5 C-2.33 6.98 -2.66 8.96 -3 11 C-2.01 11 -1.02 11 0 11 C0 12.65 0 14.3 0 16 C-0.33 15.34 -0.66 14.68 -1 14 C-2.32 14.33 -3.64 14.66 -5 15 C-6.0625 13.125 -6.0625 13.125 -7 11 C-6.67 10.34 -6.34 9.68 -6 9 C-5.34 9 -4.68 9 -4 9 C-3.67 7.35 -3.34 5.7 -3 4 C-2.34 4 -1.68 4 -1 4 C-0.67 2.68 -0.34 1.36 0 0 Z " fill="#95C2CC" transform="translate(315,160)"/>
<path d="M0 0 C0.33 0 0.66 0 1 0 C1.2954439 5.02254631 0.98514628 7.89542386 -2 12 C-0.02 11.67 1.96 11.34 4 11 C3.67 11.66 3.34 12.32 3 13 C1.68 13 0.36 13 -1 13 C-1 14.65 -1 16.3 -1 18 C-1.66 17.67 -2.32 17.34 -3 17 C-3 13.37 -3 9.74 -3 6 C-2.34 6 -1.68 6 -1 6 C-1.0309375 4.7934375 -1.0309375 4.7934375 -1.0625 3.5625 C-1 1 -1 1 0 0 Z " fill="#1B7C93" transform="translate(329,161)"/>
<path d="M0 0 C0.66 0 1.32 0 2 0 C1.67 2.64 1.34 5.28 1 8 C1.99 8 2.98 8 4 8 C4.268125 7.360625 4.53625 6.72125 4.8125 6.0625 C6 4 6 4 9 3 C9 4.32 9 5.64 9 7 C8.34 7 7.68 7 7 7 C7 7.66 7 8.32 7 9 C4 10 4 10 0 9 C0 6.03 0 3.06 0 0 Z " fill="#C6DEE4" transform="translate(301,169)"/>
<path d="M0 0 C0.66 0 1.32 0 2 0 C2 1.65 2 3.3 2 5 C2.99 5 3.98 5 5 5 C4.67 5.99 4.34 6.98 4 8 C1.69 8 -0.62 8 -3 8 C-3.33 7.34 -3.66 6.68 -4 6 C-2.68 6 -1.36 6 0 6 C0 4.02 0 2.04 0 0 Z " fill="#B9D7DE" transform="translate(277,173)"/>
<path d="M0 0 C2.64 0.33 5.28 0.66 8 1 C8 1.33 8 1.66 8 2 C6.35 2 4.7 2 3 2 C3.02320313 2.91523438 3.04640625 3.83046875 3.0703125 4.7734375 C3.08835937 5.96195313 3.10640625 7.15046875 3.125 8.375 C3.14820313 9.55835938 3.17140625 10.74171875 3.1953125 11.9609375 C3 15 3 15 1 17 C1.01160156 16.02417969 1.02320313 15.04835937 1.03515625 14.04296875 C1.04417969 12.77066406 1.05320312 11.49835938 1.0625 10.1875 C1.07410156 8.92292969 1.08570313 7.65835938 1.09765625 6.35546875 C1.16159116 3.00394763 1.16159116 3.00394763 0 0 Z " fill="#D7E6EB" transform="translate(322,127)"/>
<path d="M0 0 C2.67927341 4.01891012 2.15601248 6.24161923 2 11 C1.67 10.34 1.34 9.68 1 9 C-0.32 9.33 -1.64 9.66 -3 10 C-3 8.68 -3 7.36 -3 6 C-2.34 6 -1.68 6 -1 6 C-0.67 4.02 -0.34 2.04 0 0 Z " fill="#8BBBC7" transform="translate(293,152)"/>
<path d="M0 0 C1.54075504 3.08151008 0.91454546 6.21280187 0.6875 9.5625 C0.63432617 10.60954102 0.63432617 10.60954102 0.58007812 11.67773438 C0.46434955 13.45857263 0.24009741 15.23163035 0 17 C-0.66 17.33 -1.32 17.66 -2 18 C-2.054138 15.75026553 -2.09285491 13.50015617 -2.125 11.25 C-2.14820313 9.99703125 -2.17140625 8.7440625 -2.1953125 7.453125 C-2.01537302 4.27179508 -1.68998582 2.63478104 0 0 Z " fill="#CEE2E7" transform="translate(296,147)"/>
<path d="M0 0 C0.99 0 1.98 0 3 0 C2.67 1.65 2.34 3.3 2 5 C1.34 5 0.68 5 0 5 C-0.268125 5.639375 -0.53625 6.27875 -0.8125 6.9375 C-2 9 -2 9 -5 10 C-5 9.34 -5 8.68 -5 8 C-4.34 8 -3.68 8 -3 8 C-1.58622659 5.36095629 -0.62759865 2.92879371 0 0 Z " fill="#85B9C5" transform="translate(343,168)"/>
<path d="M0 0 C0.33 0 0.66 0 1 0 C1.33 3.3 1.66 6.6 2 10 C1.34 9.67 0.68 9.34 0 9 C-0.625 6.9375 -0.625 6.9375 -1 5 C-1.99 6.485 -1.99 6.485 -3 8 C-3.66 8 -4.32 8 -5 8 C-4.1875 5.5625 -4.1875 5.5625 -3 3 C-2.01 2.67 -1.02 2.34 0 2 C0 1.34 0 0.68 0 0 Z " fill="#1F7E94" transform="translate(291,167)"/>
<path d="M0 0 C0.33 0.66 0.66 1.32 1 2 C0.53980469 2.39832031 0.07960938 2.79664063 -0.39453125 3.20703125 C-2.2674322 5.29866516 -2.87389302 7.01421992 -3.6875 9.6875 C-3.93886719 10.49574219 -4.19023437 11.30398437 -4.44921875 12.13671875 C-4.72185547 13.05904297 -4.72185547 13.05904297 -5 14 C-5.66 13.67 -6.32 13.34 -7 13 C-5.99806563 9.20696275 -5.18975773 6.28463659 -3 3 C-2.34 3 -1.68 3 -1 3 C-0.67 2.01 -0.34 1.02 0 0 Z " fill="#73ADBB" transform="translate(259,149)"/>
<path d="M0 0 C0.33 0 0.66 0 1 0 C1.33 3.63 1.66 7.26 2 11 C1.01 11 0.02 11 -1 11 C-0.67 7.37 -0.34 3.74 0 0 Z " fill="#539CAD" transform="translate(303,166)"/>
<path d="M0 0 C1.9078584 3.1749094 2.1609041 5.10585211 1.625 8.75 C1.51414062 9.54921875 1.40328125 10.3484375 1.2890625 11.171875 C1.19367188 11.77515625 1.09828125 12.3784375 1 13 C0.67 13 0.34 13 0 13 C0 9.7 0 6.4 0 3 C-0.66 3 -1.32 3 -2 3 C-1 1 -1 1 0 0 Z " fill="#3B9CBB" transform="translate(362,99)"/>
</svg>
